<svg width="354" height="354" viewBox="0 0 354 354" fill="none" xmlns="http://www.w3.org/2000/svg">
<mask id="mask0_727_16057" style="mask-type:alpha" maskUnits="userSpaceOnUse" x="0" y="0" width="354" height="354">
<rect width="354" height="354" fill="#D9D9D9"/>
</mask>
<g mask="url(#mask0_727_16057)">
<path d="M347.586 131.456C372.811 225.596 316.944 322.361 222.803 347.586C128.663 372.811 31.8984 316.944 6.67358 222.803C-18.5512 128.663 37.3158 31.8984 131.456 6.67359C225.596 -18.5512 322.361 37.3158 347.586 131.456ZM36.9752 214.684C57.7159 292.089 137.279 338.025 214.684 317.284C292.089 296.544 338.025 216.981 317.284 139.575C296.544 62.1702 216.981 16.2345 139.575 36.9752C62.1702 57.7159 16.2345 137.279 36.9752 214.684Z" fill="#FD4B28"/>
<path d="M266.256 52.9502L264.05 50.987L268.054 46.4859L263.918 42.8065L259.914 47.3076L257.707 45.3444L266.99 34.9099L269.197 36.8731L265.556 40.9651L269.692 44.6445L273.333 40.5525L275.539 42.5157L266.256 52.9502ZM283.006 58.479C282.287 59.2876 281.53 59.9322 280.736 60.4127C279.96 60.8921 279.156 61.1885 278.322 61.3018C277.498 61.4239 276.656 61.3298 275.798 61.0198C274.949 60.7183 274.1 60.1906 273.253 59.4365C272.405 58.6824 271.777 57.897 271.37 57.0803C270.98 56.2625 270.789 55.4378 270.796 54.6061C270.821 53.7733 271.026 52.9347 271.411 52.0902C271.805 51.2543 272.362 50.432 273.082 49.6234C274.044 48.5419 275.055 47.7578 276.117 47.2709C277.188 46.7927 278.284 46.6594 279.405 46.8711C280.544 47.0816 281.684 47.694 282.824 48.7081C283.954 49.7135 284.685 50.7654 285.017 51.8636C285.357 52.9521 285.343 54.0567 284.975 55.1774C284.624 56.297 283.968 57.3975 283.006 58.479ZM275.392 51.7052C274.742 52.4359 274.276 53.1467 273.993 53.8375C273.71 54.5283 273.637 55.1883 273.776 55.8176C273.914 56.4468 274.29 57.0344 274.904 57.5805C275.537 58.1439 276.17 58.4534 276.801 58.5088C277.442 58.573 278.084 58.42 278.728 58.05C279.381 57.6885 280.032 57.1425 280.683 56.4118C281.662 55.3108 282.224 54.2666 282.37 53.279C282.516 52.2914 282.121 51.3816 281.185 50.5495C280.562 49.9948 279.929 49.6853 279.288 49.6211C278.647 49.557 278 49.7056 277.347 50.067C276.694 50.4285 276.042 50.9745 275.392 51.7052ZM287.583 64.7498L281.58 66.5829L279.125 64.3986L286.174 62.4491C285.995 62.0808 285.864 61.6589 285.781 61.1835C285.707 60.6983 285.746 60.1834 285.899 59.6387C286.061 59.0843 286.393 58.5246 286.895 57.9595C287.753 56.995 288.754 56.5671 289.896 56.6759C291.047 56.7749 292.246 57.3791 293.494 58.4886L296.884 61.5049L287.601 71.9394L285.394 69.9762L288.957 65.9719L287.583 64.7498ZM291.969 60.3788C291.589 60.0407 291.224 59.7942 290.873 59.6392C290.532 59.4929 290.202 59.4521 289.882 59.5169C289.572 59.5905 289.274 59.788 288.988 60.1095C288.581 60.5674 288.407 61.0671 288.466 61.6086C288.544 62.149 288.895 62.6966 289.518 63.2513L290.556 64.1744L293.065 61.3539L291.969 60.3788ZM290.232 74.2802L299.515 63.8457L306.106 69.7093L304.481 71.5361L300.097 67.6357L298.159 69.8132L299.036 70.5933C300.02 71.4687 300.703 72.3202 301.084 73.1477C301.474 73.9839 301.608 74.775 301.485 75.5211C301.363 76.2672 301.028 76.9472 300.482 77.561C299.876 78.243 299.205 78.6932 298.469 78.9116C297.734 79.1301 296.932 79.0891 296.065 78.7888C295.206 78.4787 294.275 77.8773 293.272 76.9845L290.232 74.2802ZM294.796 75.0943C295.469 75.6924 296.09 76.0533 296.661 76.177C297.241 76.3093 297.77 76.1076 298.246 75.5718C298.576 75.2015 298.73 74.8323 298.708 74.4641C298.696 74.1046 298.545 73.7347 298.255 73.3544C297.984 72.9731 297.604 72.5658 297.117 72.1324L296.547 71.6253L294.051 74.4313L294.796 75.0943Z" fill="white"/>
<path d="M325.318 117.949C324.308 118.336 323.339 118.561 322.413 118.623C321.504 118.693 320.653 118.586 319.86 118.304C319.072 118.033 318.368 117.563 317.748 116.893C317.133 116.236 316.622 115.377 316.215 114.318C315.809 113.259 315.612 112.273 315.625 111.36C315.655 110.455 315.864 109.634 316.252 108.899C316.657 108.17 317.224 107.52 317.954 106.946C318.689 106.385 319.561 105.911 320.572 105.523C321.923 105.005 323.182 104.773 324.349 104.828C325.52 104.896 326.554 105.281 327.453 105.984C328.368 106.694 329.099 107.762 329.645 109.186C330.187 110.599 330.353 111.869 330.143 112.997C329.946 114.12 329.426 115.095 328.583 115.921C327.758 116.754 326.669 117.43 325.318 117.949ZM321.668 108.434C320.754 108.784 320.013 109.201 319.445 109.685C318.876 110.168 318.509 110.721 318.342 111.344C318.176 111.966 318.24 112.661 318.534 113.428C318.838 114.219 319.258 114.785 319.793 115.124C320.333 115.476 320.973 115.635 321.715 115.602C322.461 115.581 323.291 115.395 324.204 115.045C325.58 114.517 326.559 113.848 327.142 113.038C327.725 112.227 327.792 111.238 327.344 110.069C327.045 109.29 326.626 108.725 326.086 108.373C325.546 108.021 324.903 107.856 324.157 107.877C323.41 107.898 322.581 108.084 321.668 108.434ZM323.894 133.787L322.689 130.646L327.485 123.379L320.874 125.916L319.816 123.158L332.856 118.155L333.914 120.913L327.595 123.337L335.708 125.588L336.836 128.528L328.75 126.183L323.894 133.787ZM326.451 140.45L325.393 137.693L336.131 133.573L334.772 130.03L337.073 129.147L340.85 138.99L338.549 139.873L337.189 136.33L326.451 140.45Z" fill="white"/>
<path d="M30.2937 223.003L27.3449 224.846L28.6612 229.759L32.1364 229.881L32.9616 232.96L18.1389 231.829L17.2023 228.334L29.4684 219.924L30.2937 223.003ZM22.2545 227.992C22.0573 228.113 21.8084 228.267 21.5079 228.456C21.2074 228.644 20.9006 228.835 20.5875 229.026C20.2744 229.218 20.0004 229.38 19.7653 229.51C20.0341 229.505 20.3726 229.509 20.7809 229.521C21.1732 229.524 21.5529 229.531 21.92 229.54C22.2711 229.541 22.5227 229.547 22.6747 229.561L26.0693 229.684L25.1277 226.17L22.2545 227.992ZM29.0106 218.215L15.5204 221.83L12.66 211.155L26.1503 207.54L26.9147 210.393L15.8051 213.37L17.1365 218.339L28.2462 215.362L29.0106 218.215ZM10.5938 203.444C10.1281 201.706 10.1668 200.338 10.7099 199.342C11.2371 198.337 12.1556 197.659 13.4656 197.308C14.0576 197.149 14.6481 197.086 15.2369 197.117C15.8132 197.151 16.3712 197.319 16.9108 197.62C17.4345 197.912 17.9054 198.359 18.3236 198.963C18.7418 199.566 19.0826 200.359 19.3458 201.342L19.6749 202.57L24.4739 201.284L25.2384 204.137L11.7481 207.752L10.5938 203.444ZM12.9772 202.967L13.3265 204.271L17.332 203.198L17.0789 202.253C16.9338 201.711 16.7396 201.264 16.4964 200.91C16.2533 200.557 15.9518 200.314 15.5921 200.181C15.2325 200.048 14.8133 200.045 14.3347 200.173C13.6671 200.352 13.2248 200.667 13.0077 201.116C12.7781 201.569 12.7679 202.186 12.9772 202.967Z" fill="white"/>
<path d="M23.6066 157.267L12.1552 157.682L12.135 157.758C12.3903 157.813 12.7732 157.895 13.2838 158.005C13.7944 158.115 14.3428 158.234 14.9289 158.365C15.5025 158.491 16.0223 158.617 16.4883 158.742L22.7611 160.423L22.0777 162.973L8.58741 159.359L9.63031 155.467L20.802 155.038L20.8172 154.981L11.4073 148.835L12.4502 144.943L25.9405 148.557L25.2266 151.221L18.8405 149.51C18.4122 149.395 17.9227 149.257 17.3718 149.096C16.8243 148.923 16.3067 148.764 15.8188 148.62C15.3217 148.459 14.9489 148.339 14.7004 148.259L14.6801 148.335L24.3103 154.641L23.6066 157.267ZM29.0659 136.893L25.5907 137.015L24.2744 141.927L27.2231 143.77L26.3979 146.85L14.1267 138.459L15.0633 134.963L29.8911 133.813L29.0659 136.893ZM19.6093 137.194C19.3782 137.2 19.0855 137.209 18.731 137.222C18.3765 137.235 18.0157 137.246 17.6486 137.256C17.2815 137.266 16.9636 137.268 16.6948 137.264C16.9298 137.394 17.2211 137.567 17.5686 137.781C17.9069 137.98 18.2326 138.175 18.5457 138.367C18.8495 138.543 19.064 138.675 19.1891 138.762L22.0673 140.566L23.0089 137.052L19.6093 137.194ZM18.0129 124.182C18.4787 122.444 19.1958 121.279 20.1642 120.688C21.1233 120.081 22.2579 119.953 23.5679 120.304C24.1599 120.463 24.7031 120.703 25.1975 121.024C25.6792 121.342 26.0786 121.767 26.3955 122.297C26.7031 122.812 26.8872 123.435 26.9476 124.166C27.0081 124.898 26.9067 125.755 26.6434 126.738L26.3143 127.966L31.1134 129.252L30.3489 132.105L16.8587 128.49L18.0129 124.182ZM20.3153 124.961L19.966 126.265L23.9715 127.338L24.2246 126.393C24.3697 125.852 24.4253 125.367 24.3914 124.939C24.3575 124.512 24.2181 124.15 23.9731 123.855C23.7282 123.56 23.3664 123.349 22.8878 123.22C22.2202 123.041 21.68 123.092 21.2672 123.373C20.8419 123.651 20.5245 124.18 20.3153 124.961ZM34.9201 115.045L34.1557 117.898L23.046 114.921L22.0639 118.586L19.6832 117.948L22.412 107.765L24.7926 108.403L23.8105 112.068L34.9201 115.045Z" fill="white"/>
<path d="M48.0504 70.7443L49.2675 71.9615C50.374 70.9103 51.4206 70.2418 52.4072 69.956C53.3939 69.6517 54.2975 69.6332 55.1182 69.9006C55.9481 70.1588 56.6857 70.6106 57.3312 71.2561C57.7461 71.671 58.0965 72.169 58.3824 72.7499C58.6774 73.3216 58.8388 73.9624 58.8665 74.6724C58.8941 75.364 58.742 76.1063 58.41 76.8993C58.0781 77.6923 57.5018 78.5176 56.6811 79.3751L58.2026 80.8965L56.3215 82.7776L54.8001 81.2562C53.9333 82.086 53.0988 82.6716 52.2966 83.0127C51.5036 83.3447 50.7567 83.4922 50.0559 83.4553C49.3551 83.4185 48.7235 83.2571 48.161 82.9712C47.5893 82.6762 47.096 82.3212 46.6811 81.9062C46.2016 81.4267 45.8235 80.8919 45.5469 80.3018C45.2703 79.7117 45.132 79.0754 45.132 78.3931C45.132 77.7107 45.3118 76.9869 45.6714 76.2216C46.031 75.4562 46.6027 74.6632 47.3865 73.8426L46.1693 72.6254L48.0504 70.7443ZM49.0186 75.4747C48.4469 76.1017 48.0734 76.6872 47.8982 77.2312C47.723 77.7568 47.7046 78.2455 47.8429 78.6974C47.9904 79.14 48.2532 79.5503 48.6313 79.9283C49.0462 80.3433 49.4934 80.6245 49.9729 80.7721C50.4524 80.9012 50.9596 80.8827 51.4944 80.7167C52.0292 80.5323 52.5917 80.1727 53.1818 79.6379L49.0186 75.4747ZM55.0629 77.7568C55.5977 77.1667 55.9527 76.6088 56.1279 76.0832C56.3031 75.5392 56.3215 75.0321 56.1832 74.5618C56.0449 74.0731 55.7683 73.6213 55.3533 73.2063C54.9753 72.8283 54.5603 72.5701 54.1085 72.4318C53.6659 72.2842 53.1772 72.3027 52.6424 72.4871C52.1076 72.6531 51.5267 73.0219 50.8996 73.5936L55.0629 77.7568ZM70.0056 68.8169L64.3209 74.5016L54.4453 64.626L60.13 58.9414L61.8451 60.6565L58.2489 64.2526L60.4204 66.4241L63.7676 63.0769L65.4827 64.792L62.1355 68.1392L64.6805 70.6842L68.2766 67.088L70.0056 68.8169ZM65.2555 53.8159C66.1315 52.9399 66.9475 52.2898 67.7036 51.8657C68.4597 51.4231 69.1697 51.2387 69.8336 51.3124C70.4975 51.3677 71.1384 51.7043 71.7562 52.3221C72.125 52.6909 72.4017 53.0874 72.5861 53.5116C72.7705 53.9358 72.8443 54.3599 72.8074 54.7841C72.7797 55.199 72.6322 55.5955 72.3648 55.9736L72.4339 56.0427C72.8304 55.7753 73.2454 55.5909 73.6787 55.4895C74.1121 55.3881 74.564 55.4157 75.0342 55.5725C75.5045 55.7292 75.9978 56.0658 76.5142 56.5822C77.1135 57.1815 77.4824 57.8454 77.6207 58.5739C77.759 59.2839 77.6714 60.0262 77.3579 60.8007C77.0351 61.566 76.5003 62.3222 75.7534 63.069L72.0605 66.762L62.1849 56.8864L65.2555 53.8159ZM69.4049 57.495C70.0134 56.8864 70.3362 56.3701 70.3731 55.9459C70.4192 55.5125 70.2578 55.1114 69.889 54.7426C69.5109 54.3645 69.1006 54.2308 68.658 54.3415C68.2154 54.4521 67.6944 54.8071 67.095 55.4065L65.9885 56.513L68.1877 58.7122L69.4049 57.495ZM69.8475 60.3719L72.4201 62.9446L73.7894 61.5753C74.4164 60.9482 74.7345 60.3904 74.7438 59.9017C74.7438 59.4037 74.5409 58.9519 74.1352 58.5462C73.8862 58.2972 73.6142 58.1359 73.3191 58.0621C73.0333 57.9791 72.7106 58.016 72.3509 58.1728C71.9913 58.3295 71.5902 58.6292 71.1476 59.0718L69.8475 60.3719Z" fill="white"/>
<path d="M122.651 27.3228L120.865 33.4068L117.658 34.266L119.927 27.2344C119.517 27.1806 119.089 27.0568 118.641 26.863C118.19 26.6564 117.778 26.3374 117.403 25.9059C117.025 25.4617 116.737 24.8706 116.539 24.1326C116.201 22.8728 116.396 21.791 117.122 20.8873C117.845 19.9708 119.02 19.2943 120.649 18.8579L125.077 17.6713L128.729 31.2997L125.847 32.0719L124.446 26.842L122.651 27.3228ZM121.398 21.194C120.902 21.327 120.491 21.4985 120.165 21.7084C119.852 21.915 119.634 22.1711 119.512 22.4768C119.402 22.779 119.403 23.1401 119.516 23.56C119.676 24.1581 120.001 24.5824 120.491 24.833C120.99 25.0675 121.647 25.0756 122.461 24.8574L123.816 24.4943L122.829 20.8104L121.398 21.194ZM143.332 27.3869L140.449 28.1592L138.874 22.2803L133.473 23.7277L135.048 29.6066L132.166 30.3789L128.514 16.7505L131.396 15.9782L132.828 21.3227L138.23 19.8753L136.798 14.5308L139.68 13.7586L143.332 27.3869ZM147.346 11.7044C148.555 11.3804 149.598 11.2239 150.473 11.2347C151.358 11.2294 152.073 11.4267 152.616 11.8266C153.169 12.2104 153.56 12.8285 153.788 13.6811C153.925 14.1901 153.966 14.6767 153.914 15.141C153.861 15.6052 153.711 16.0136 153.464 16.366C153.231 16.7151 152.901 16.9874 152.476 17.1831L152.502 17.2786C152.984 17.2449 153.44 17.2931 153.87 17.4233C154.301 17.5535 154.682 17.8059 155.014 18.1806C155.347 18.5553 155.608 19.0989 155.799 19.8115C156.021 20.6386 156.008 21.4058 155.761 22.113C155.524 22.804 155.072 23.4092 154.406 23.9285C153.738 24.435 152.888 24.8264 151.857 25.1026L146.761 26.4681L143.109 12.8398L147.346 11.7044ZM149.118 17.0191C149.958 16.7941 150.501 16.5053 150.748 16.1529C151.007 15.797 151.068 15.3646 150.932 14.8556C150.792 14.3339 150.501 14.0096 150.058 13.8829C149.615 13.7561 148.979 13.8035 148.152 14.0252L146.625 14.4343L147.439 17.4692L149.118 17.0191ZM148.052 19.7597L149.004 23.3099L150.893 22.8036C151.758 22.5717 152.319 22.2444 152.574 21.8215C152.825 21.3858 152.876 20.8881 152.726 20.3282C152.634 19.9846 152.477 19.706 152.256 19.4924C152.048 19.2754 151.747 19.1447 151.353 19.1002C150.96 19.0557 150.457 19.1153 149.846 19.2789L148.052 19.7597Z" fill="white"/>
<path d="M210.719 12.0744L207.742 23.184L209.537 23.665L207.846 29.9756L205.088 29.2364L206.141 25.3065L197.695 23.0435L196.642 26.9734L193.883 26.2343L195.574 19.9237L196.614 20.2022C197.155 19.5913 197.694 18.9392 198.231 18.246C198.768 17.5529 199.295 16.7962 199.811 15.9762C200.341 15.1595 200.859 14.2588 201.366 13.2741C201.876 12.2768 202.374 11.1748 202.859 9.96835L210.719 12.0744ZM204.488 12.9565C204.225 13.5879 203.911 14.2532 203.549 14.9525C203.189 15.6392 202.793 16.3363 202.36 17.0439C201.94 17.7549 201.499 18.4465 201.035 19.1188C200.571 19.7911 200.099 20.4205 199.618 21.0071L204.889 22.4196L207.228 13.6906L204.488 12.9565ZM218.737 28.6816L210.971 26.6008L214.586 13.1106L222.351 15.1913L221.724 17.5342L216.811 16.2179L216.016 19.1842L220.589 20.4094L219.961 22.7522L215.389 21.5271L214.457 25.0036L219.37 26.3198L218.737 28.6816ZM232.54 32.3802L229.29 31.5094L226.229 23.3586L224.397 30.1982L221.544 29.4337L225.158 15.9435L228.011 16.7079L226.26 23.2452L232.848 18.004L235.89 18.819L229.241 23.9834L232.54 32.3802Z" fill="white"/>
<path d="M343.036 182.502C343.119 181.948 343.085 181.435 342.932 180.963C342.777 180.505 342.515 180.096 342.147 179.737C341.792 179.38 341.337 179.081 340.78 178.838C340.221 178.609 339.58 178.44 338.858 178.331C337.878 178.183 337.023 178.172 336.291 178.299C335.571 178.441 334.991 178.743 334.552 179.204C334.114 179.665 333.834 180.295 333.713 181.095C333.627 181.662 333.607 182.233 333.652 182.807C333.696 183.394 333.784 184.033 333.917 184.726L331.46 184.355C331.307 183.712 331.217 183.085 331.19 182.475C331.164 181.864 331.206 181.191 331.317 180.456C331.531 179.038 331.998 177.908 332.719 177.067C333.45 176.241 334.378 175.689 335.501 175.41C336.637 175.134 337.915 175.102 339.333 175.316C340.378 175.474 341.31 175.76 342.131 176.174C342.965 176.59 343.657 177.116 344.207 177.753C344.756 178.403 345.143 179.154 345.371 180.006C345.596 180.871 345.63 181.826 345.473 182.87C345.369 183.554 345.176 184.223 344.892 184.879C344.62 185.55 344.287 186.179 343.895 186.766L341.659 185.46C341.982 184.981 342.274 184.491 342.534 183.989C342.792 183.501 342.96 183.005 343.036 182.502ZM329.295 195.16L330.495 187.211L344.305 189.296L343.105 197.245L340.706 196.883L341.465 191.854L338.429 191.396L337.722 196.076L335.324 195.714L336.031 191.033L332.472 190.496L331.713 195.525L329.295 195.16ZM327.153 209.348L327.594 206.428L333.551 207.327L334.377 201.853L328.42 200.954L328.861 198.033L342.671 200.118L342.23 203.039L336.814 202.221L335.988 207.695L341.403 208.512L340.963 211.433L327.153 209.348ZM325.825 218.142L326.266 215.221L337.639 216.938L338.205 213.186L340.642 213.554L339.069 223.979L336.632 223.611L337.198 219.859L325.825 218.142Z" fill="white"/>
<path d="M299.801 270.628L302.872 272.26L306.468 268.664L304.836 265.593L307.09 263.339L313.522 276.741L310.963 279.3L297.546 272.882L299.801 270.628ZM308.141 275.095C308.344 275.206 308.602 275.344 308.916 275.51C309.229 275.676 309.547 275.847 309.87 276.022C310.193 276.197 310.47 276.354 310.7 276.492C310.562 276.262 310.396 275.967 310.202 275.607C310.009 275.266 309.824 274.934 309.649 274.611C309.474 274.307 309.354 274.086 309.289 273.947L307.699 270.946L305.126 273.518L308.141 275.095ZM303.101 287.079C302.225 287.955 301.409 288.605 300.653 289.029C299.896 289.472 299.186 289.656 298.523 289.583C297.859 289.527 297.218 289.191 296.6 288.573C296.231 288.204 295.955 287.808 295.77 287.383C295.586 286.959 295.512 286.535 295.549 286.111C295.576 285.696 295.724 285.299 295.991 284.921L295.922 284.852C295.526 285.12 295.111 285.304 294.677 285.406C294.244 285.507 293.792 285.479 293.322 285.323C292.852 285.166 292.358 284.829 291.842 284.313C291.243 283.714 290.874 283.05 290.736 282.321C290.597 281.611 290.685 280.869 290.998 280.094C291.321 279.329 291.856 278.573 292.603 277.826L296.296 274.133L306.171 284.009L303.101 287.079ZM298.951 283.4C298.343 284.009 298.02 284.525 297.983 284.949C297.937 285.382 298.098 285.784 298.467 286.152C298.845 286.53 299.256 286.664 299.698 286.554C300.141 286.443 300.662 286.088 301.261 285.489L302.368 284.382L300.168 282.183L298.951 283.4ZM298.509 280.523L295.936 277.95L294.567 279.32C293.94 279.947 293.622 280.505 293.612 280.993C293.612 281.491 293.815 281.943 294.221 282.349C294.47 282.598 294.742 282.759 295.037 282.833C295.323 282.916 295.646 282.879 296.005 282.722C296.365 282.566 296.766 282.266 297.209 281.823L298.509 280.523ZM290.64 299.539L288.912 297.811L293.061 293.661L284.914 285.514L287.003 283.426L296.878 293.301L290.64 299.539Z" fill="white"/>
<path d="M254.159 328.903L251.59 329.592L249.843 323.073C249.759 322.758 249.671 322.404 249.579 322.01C249.487 321.616 249.396 321.229 249.308 320.848C249.222 320.479 249.149 320.154 249.087 319.874C249.029 319.606 248.993 319.42 248.978 319.316L248.921 319.331L245.43 331.242L242.011 332.158L238.396 318.668L240.947 317.985L242.683 324.465C242.774 324.805 242.867 325.179 242.963 325.585C243.062 326.004 243.155 326.404 243.244 326.786C243.32 327.17 243.389 327.503 243.451 327.783C243.503 328.08 243.535 328.274 243.546 328.365L243.621 328.345L247.106 316.334L250.545 315.413L254.159 328.903ZM219.383 331.012C219.102 329.967 218.967 328.984 218.977 328.063C218.99 327.155 219.166 326.325 219.505 325.573C219.83 324.824 220.327 324.185 220.995 323.655C221.663 323.125 222.508 322.723 223.528 322.45C224.787 322.112 225.911 322.074 226.899 322.336C227.878 322.614 228.721 323.137 229.426 323.907C230.123 324.692 230.683 325.676 231.108 326.858L233.697 326.164L232.137 320.345L234.99 319.581L238.605 333.071L235.752 333.835L234.335 328.545L231.689 329.254C231.851 330.412 231.809 331.463 231.562 332.407C231.306 333.366 230.822 334.178 230.109 334.841C229.399 335.518 228.439 336.018 227.23 336.342C225.87 336.706 224.671 336.717 223.634 336.374C222.588 336.047 221.71 335.418 221.002 334.487C220.297 333.569 219.757 332.411 219.383 331.012ZM228.433 328.587C228.18 327.643 227.855 326.859 227.459 326.236C227.062 325.613 226.588 325.18 226.037 324.936C225.486 324.693 224.864 324.663 224.171 324.849C223.453 325.041 222.916 325.381 222.56 325.868C222.205 326.355 222.017 326.965 221.998 327.699C221.966 328.437 222.077 329.278 222.33 330.223C222.583 331.167 222.908 331.951 223.304 332.574C223.688 333.2 224.156 333.635 224.707 333.879C225.246 334.126 225.868 334.155 226.573 333.966C227.279 333.777 227.815 333.438 228.183 332.947C228.539 332.461 228.733 331.848 228.765 331.111C228.797 330.373 228.686 329.532 228.433 328.587ZM204.462 327.761L207.315 326.996L210.292 338.106L213.598 337.22C213.518 336.62 213.432 335.969 213.338 335.265C213.231 334.564 213.133 333.848 213.045 333.116C212.948 332.399 212.865 331.713 212.797 331.056C212.732 330.412 212.686 329.837 212.659 329.331C212.613 328.506 212.655 327.78 212.783 327.151C212.899 326.526 213.158 326.004 213.559 325.586C213.947 325.172 214.52 324.863 215.275 324.661C215.527 324.593 215.772 324.548 216.008 324.525C216.245 324.502 216.473 324.495 216.691 324.504L217.319 326.847C217.142 326.84 216.973 326.839 216.811 326.841C216.637 326.847 216.456 326.876 216.267 326.926C216.015 326.994 215.829 327.131 215.709 327.339C215.59 327.547 215.519 327.863 215.498 328.287C215.48 328.724 215.502 329.312 215.565 330.051C215.583 330.37 215.622 330.818 215.683 331.396C215.746 331.987 215.823 332.675 215.912 333.461C215.992 334.263 216.089 335.128 216.202 336.056C216.319 336.997 216.451 337.968 216.598 338.968L208.077 341.251L204.462 327.761ZM201.059 328.673L204.673 342.163L201.821 342.927L200.433 337.75L199.3 338.054C198.028 338.395 196.941 338.497 196.04 338.36C195.127 338.227 194.393 337.904 193.837 337.392C193.281 336.879 192.897 336.226 192.684 335.432C192.448 334.551 192.441 333.743 192.662 333.008C192.884 332.274 193.359 331.627 194.086 331.067C194.817 330.521 195.831 330.073 197.129 329.726L201.059 328.673ZM197.87 332.038C197.001 332.271 196.358 332.592 195.941 333.001C195.511 333.413 195.389 333.965 195.575 334.658C195.703 335.137 195.927 335.468 196.246 335.652C196.553 335.84 196.945 335.918 197.422 335.884C197.89 335.867 198.439 335.774 199.069 335.605L199.806 335.408L198.834 331.78L197.87 332.038Z" fill="white"/>
<path d="M153.272 344.647L150.725 343.878L152.675 337.418C152.769 337.105 152.881 336.758 153.01 336.375C153.14 335.991 153.267 335.614 153.393 335.244C153.514 334.885 153.623 334.571 153.718 334.3C153.81 334.041 153.877 333.864 153.92 333.768L153.864 333.751L144.621 342.035L141.231 341.012L145.267 327.642L147.795 328.405L145.856 334.828C145.754 335.165 145.637 335.532 145.504 335.927C145.367 336.336 145.236 336.725 145.11 337.096C144.972 337.463 144.856 337.782 144.76 338.053C144.649 338.332 144.573 338.514 144.535 338.597L144.609 338.62L153.899 330.248L157.308 331.276L153.272 344.647ZM122.603 328.116C122.915 327.08 123.318 326.173 123.812 325.396C124.302 324.631 124.888 324.018 125.572 323.557C126.244 323.092 127.003 322.811 127.85 322.712C128.697 322.614 129.626 322.717 130.638 323.022C131.886 323.399 132.861 323.959 133.563 324.702C134.249 325.454 134.689 326.343 134.883 327.368C135.061 328.403 135.019 329.535 134.758 330.763L137.323 331.537L139.064 325.77L141.892 326.623L137.856 339.994L135.028 339.14L136.611 333.897L133.989 333.106C133.517 334.175 132.927 335.046 132.22 335.718C131.497 336.399 130.657 336.833 129.702 337.022C128.742 337.222 127.663 337.142 126.464 336.78C125.116 336.373 124.092 335.751 123.391 334.913C122.674 334.083 122.26 333.087 122.148 331.922C122.033 330.77 122.184 329.502 122.603 328.116ZM131.572 330.823C131.855 329.887 131.992 329.05 131.983 328.312C131.974 327.573 131.8 326.955 131.46 326.458C131.12 325.96 130.606 325.608 129.92 325.4C129.208 325.186 128.573 325.191 128.014 325.418C127.456 325.644 126.975 326.064 126.571 326.678C126.156 327.288 125.807 328.061 125.524 328.998C125.241 329.934 125.104 330.771 125.113 331.509C125.109 332.244 125.278 332.86 125.618 333.358C125.945 333.852 126.459 334.204 127.158 334.415C127.857 334.626 128.492 334.62 129.063 334.398C129.622 334.171 130.109 333.753 130.525 333.143C130.941 332.533 131.29 331.76 131.572 330.823ZM111.634 317.491L114.462 318.344L111.139 329.355L114.416 330.344C114.664 329.793 114.933 329.193 115.224 328.545C115.503 327.894 115.797 327.233 116.108 326.564C116.403 325.904 116.694 325.277 116.982 324.683C117.267 324.101 117.531 323.588 117.774 323.144C118.17 322.419 118.588 321.823 119.028 321.357C119.456 320.887 119.951 320.58 120.512 320.436C121.06 320.288 121.709 320.327 122.458 320.553C122.708 320.629 122.94 320.719 123.153 320.824C123.366 320.93 123.564 321.044 123.744 321.166L123.044 323.488C122.896 323.389 122.753 323.299 122.615 323.216C122.464 323.13 122.295 323.058 122.108 323.002C121.858 322.926 121.627 322.945 121.416 323.058C121.205 323.172 120.978 323.403 120.737 323.752C120.491 324.114 120.201 324.626 119.865 325.287C119.712 325.568 119.509 325.97 119.256 326.493C118.999 327.028 118.701 327.654 118.363 328.369C118.008 329.092 117.634 329.879 117.242 330.727C116.846 331.589 116.447 332.483 116.044 333.41L107.599 330.861L111.634 317.491ZM108.261 316.473L104.226 329.843L101.398 328.99L102.947 323.859L101.823 323.52C100.562 323.139 99.5853 322.653 98.8918 322.063C98.1858 321.468 97.7317 320.807 97.5293 320.078C97.3269 319.35 97.3444 318.592 97.5818 317.806C97.8456 316.932 98.2652 316.241 98.8406 315.734C99.416 315.226 100.16 314.927 101.073 314.834C101.983 314.755 103.081 314.909 104.366 315.297L108.261 316.473ZM103.778 317.653C102.917 317.393 102.201 317.327 101.631 317.455C101.049 317.578 100.654 317.984 100.447 318.67C100.304 319.145 100.319 319.544 100.494 319.869C100.655 320.191 100.948 320.463 101.371 320.686C101.778 320.918 102.293 321.128 102.917 321.316L103.648 321.537L104.733 317.941L103.778 317.653Z" fill="white"/>
<path d="M71.1577 288.75L65.4293 298.674L65.4826 298.731C65.6647 298.544 65.9378 298.263 66.3019 297.889C66.666 297.514 67.0588 297.113 67.4803 296.686C67.8921 296.267 68.2747 295.893 68.628 295.565L73.3827 291.141L75.1813 293.075L64.9558 302.587L62.2112 299.637L67.7791 289.942L67.7392 289.9L57.5348 294.61L54.7902 291.66L65.0158 282.147L66.8943 284.167L62.0537 288.67C61.729 288.972 61.3522 289.314 60.9233 289.695C60.4854 290.067 60.0759 290.421 59.6946 290.758C59.2949 291.094 58.9952 291.346 58.7954 291.514L58.8487 291.571L69.3058 286.759L71.1577 288.75ZM56.7906 273.306L55.0487 276.316L58.5128 280.039L61.6402 278.519L63.8119 280.853L50.186 286.797L47.7212 284.148L54.6189 270.972L56.7906 273.306ZM52.025 281.48C51.9071 281.678 51.7595 281.931 51.5824 282.239C51.4052 282.546 51.2232 282.858 51.0365 283.174C50.8498 283.49 50.6831 283.761 50.5366 283.986C50.772 283.856 51.0728 283.701 51.4392 283.521C51.7871 283.339 52.1255 283.167 52.4544 283.004C52.7648 282.84 52.9903 282.728 53.1308 282.668L56.1877 281.187L53.7095 278.523L52.025 281.48ZM32.1622 274.085C32.7031 273.671 33.2711 273.401 33.8662 273.275C34.4517 273.158 35.076 273.245 35.739 273.536C36.402 273.828 37.1155 274.384 37.8794 275.205C38.661 276.045 39.1736 276.797 39.4172 277.461C39.6424 278.125 39.662 278.73 39.4762 279.277C39.2904 279.823 38.9574 280.356 38.4774 280.874L36.7054 278.969C37.1861 278.433 37.4103 277.975 37.3778 277.595C37.3454 277.216 37.0982 276.778 36.6364 276.281C36.2544 275.871 35.8529 275.621 35.4316 275.532C34.992 275.442 34.5017 275.605 33.9608 276.019L32.1622 274.085ZM43.1886 279.189L41.3766 277.241L46.3175 272.645C46.5562 272.423 46.828 272.179 47.1329 271.913C47.4377 271.647 47.7378 271.386 48.0331 271.129C48.3189 270.881 48.5712 270.664 48.7902 270.478C48.9995 270.301 49.1469 270.182 49.2321 270.121L49.1922 270.078L37.0333 272.573L34.6218 269.98L44.8473 260.468L46.6459 262.401L41.7337 266.971C41.4759 267.211 41.1898 267.468 40.8754 267.743C40.5514 268.026 40.2418 268.297 39.9465 268.553C39.6423 268.801 39.3807 269.017 39.1618 269.203C38.9244 269.388 38.7679 269.507 38.6922 269.56L38.7455 269.617L50.9893 267.07L53.4141 269.676L43.1886 279.189Z" fill="white"/>
</g>
</svg>
