<svg width="497" height="497" viewBox="0 0 497 497" fill="none" xmlns="http://www.w3.org/2000/svg">
<circle cx="248.5" cy="248.5" r="248.5" fill="white"/>
<circle cx="248.5" cy="248.5" r="224" fill="black" stroke="white"/>
<circle cx="247.5" cy="248.5" r="217.016" fill="black" stroke="white" stroke-width="0.96882"/>
<circle cx="247.5" cy="251.5" r="214" fill="black" stroke="white"/>
<circle cx="247.5" cy="248.5" r="211.029" fill="black" stroke="white" stroke-width="0.942094"/>
<circle cx="247.5" cy="251.5" r="208" fill="black" stroke="white"/>
<circle cx="247.5" cy="248.5" r="205.042" fill="black" stroke="white" stroke-width="0.915367"/>
<circle cx="247.5" cy="251.5" r="202" fill="black" stroke="white"/>
<circle cx="247.5" cy="248.5" r="199.056" fill="black" stroke="white" stroke-width="0.888641"/>
<circle cx="247.5" cy="251.5" r="196" fill="black" stroke="white"/>
<circle cx="247.5" cy="248.5" r="193.069" fill="black" stroke="white" stroke-width="0.861915"/>
<circle cx="247.5" cy="251.5" r="190" fill="black" stroke="white"/>
<circle cx="247.5" cy="248.5" r="187.082" fill="black" stroke="white" stroke-width="0.835189"/>
<circle cx="247.5" cy="251.5" r="184" fill="black" stroke="white"/>
<circle cx="247.5" cy="248.5" r="181.096" fill="black" stroke="white" stroke-width="0.808463"/>
<circle cx="247.5" cy="251.5" r="178" fill="black" stroke="white"/>
<circle cx="247.5" cy="248.5" r="175.109" fill="black" stroke="white" stroke-width="0.781737"/>
<circle cx="247.5" cy="251.5" r="172" fill="black" stroke="white"/>
<circle cx="247.5" cy="248.5" r="169.122" fill="black" stroke="white" stroke-width="0.755011"/>
<circle cx="247.5" cy="251.5" r="166" fill="black" stroke="white"/>
<circle cx="247.5" cy="248.5" r="163.009" fill="black" stroke="white" stroke-width="0.981982"/>
<circle cx="247.5" cy="251.5" r="160.018" fill="black" stroke="white" stroke-width="0.963964"/>
<circle cx="247.5" cy="248.5" r="157.027" fill="black" stroke="white" stroke-width="0.945946"/>
<circle cx="247.5" cy="251.5" r="154.036" fill="black" stroke="white" stroke-width="0.927928"/>
<circle cx="247.5" cy="248.5" r="151.045" fill="black" stroke="white" stroke-width="0.90991"/>
<circle cx="247.5" cy="251.5" r="148.054" fill="black" stroke="white" stroke-width="0.891892"/>
<circle cx="247.5" cy="248.5" r="145.063" fill="black" stroke="white" stroke-width="0.873874"/>
<circle cx="247.5" cy="251.5" r="142.072" fill="black" stroke="white" stroke-width="0.855856"/>
<path d="M386.581 251.5C386.581 326.647 324.321 387.581 247.5 387.581C170.679 387.581 108.419 326.647 108.419 251.5C108.419 176.353 170.679 115.419 247.5 115.419C324.321 115.419 386.581 176.353 386.581 251.5Z" fill="black" stroke="white" stroke-width="0.837838"/>
<path d="M384.458 248.5C384.458 321.995 323.567 381.59 248.434 381.59C173.301 381.59 112.41 321.995 112.41 248.5C112.41 175.005 173.301 115.41 248.434 115.41C323.567 115.41 384.458 175.005 384.458 248.5Z" fill="black" stroke="white" stroke-width="0.819424"/>
<path d="M381.336 251.5C381.336 323.344 321.812 381.599 248.368 381.599C174.924 381.599 115.401 323.344 115.401 251.5C115.401 179.656 174.924 121.401 248.368 121.401C321.812 121.401 381.336 179.656 381.336 251.5Z" fill="black" stroke="white" stroke-width="0.80101"/>
<path d="M378.213 248.5C378.213 318.692 320.058 375.609 248.302 375.609C176.546 375.609 118.391 318.692 118.391 248.5C118.391 178.308 176.546 121.391 248.302 121.391C320.058 121.391 378.213 178.308 378.213 248.5Z" fill="black" stroke="white" stroke-width="0.782596"/>
<path d="M375.09 251.5C375.09 320.041 318.304 375.618 248.236 375.618C178.169 375.618 121.382 320.041 121.382 251.5C121.382 182.959 178.169 127.382 248.236 127.382C318.304 127.382 375.09 182.959 375.09 251.5Z" fill="black" stroke="white" stroke-width="0.764182"/>
<path d="M371.968 248.5C371.968 315.389 316.549 369.627 248.17 369.627C179.791 369.627 124.373 315.389 124.373 248.5C124.373 181.611 179.791 127.373 248.17 127.373C316.549 127.373 371.968 181.611 371.968 248.5Z" fill="black" stroke="white" stroke-width="0.745768"/>
<path d="M368.845 251.5C368.845 316.737 314.795 369.636 248.104 369.636C181.414 369.636 127.364 316.737 127.364 251.5C127.364 186.263 181.414 133.364 248.104 133.364C314.795 133.364 368.845 186.263 368.845 251.5Z" fill="black" stroke="white" stroke-width="0.727354"/>
<path d="M365.722 248.5C365.722 312.086 313.041 363.646 248.038 363.646C183.036 363.646 130.354 312.086 130.354 248.5C130.354 184.914 183.036 133.354 248.038 133.354C313.041 133.354 365.722 184.914 365.722 248.5Z" fill="black" stroke="white" stroke-width="0.70894"/>
<path d="M362.6 251.5C362.6 313.434 311.287 363.655 247.973 363.655C184.659 363.655 133.345 313.434 133.345 251.5C133.345 189.566 184.659 139.345 247.973 139.345C311.287 139.345 362.6 189.566 362.6 251.5Z" fill="black" stroke="white" stroke-width="0.690526"/>
<path d="M359.477 248.5C359.477 308.783 309.532 357.664 247.907 357.664C186.281 357.664 136.336 308.783 136.336 248.5C136.336 188.217 186.281 139.336 247.907 139.336C309.532 139.336 359.477 188.217 359.477 248.5Z" fill="black" stroke="white" stroke-width="0.672112"/>
<path d="M356.354 251.5C356.354 310.131 307.778 357.673 247.841 357.673C187.903 357.673 139.327 310.131 139.327 251.5C139.327 192.869 187.903 145.327 247.841 145.327C307.778 145.327 356.354 192.869 356.354 251.5Z" fill="black" stroke="white" stroke-width="0.653698"/>
<path d="M353.232 248.5C353.232 305.48 306.024 351.682 247.775 351.682C189.526 351.682 142.318 305.48 142.318 248.5C142.318 191.52 189.526 145.318 247.775 145.318C306.024 145.318 353.232 191.52 353.232 248.5Z" fill="black" stroke="white" stroke-width="0.635284"/>
<path d="M350.109 251.5C350.109 306.828 304.269 351.692 247.709 351.692C191.148 351.692 145.308 306.828 145.308 251.5C145.308 196.172 191.148 151.308 247.709 151.308C304.269 151.308 350.109 196.172 350.109 251.5Z" fill="black" stroke="white" stroke-width="0.61687"/>
<path d="M346.987 248.5C346.987 302.176 302.515 345.701 247.643 345.701C192.771 345.701 148.299 302.176 148.299 248.5C148.299 194.824 192.771 151.299 247.643 151.299C302.515 151.299 346.987 194.824 346.987 248.5Z" fill="black" stroke="white" stroke-width="0.598456"/>
<path d="M343.864 251.5C343.864 303.525 300.761 345.71 247.577 345.71C194.393 345.71 151.29 303.525 151.29 251.5C151.29 199.475 194.393 157.29 247.577 157.29C300.761 157.29 343.864 199.475 343.864 251.5Z" fill="black" stroke="white" stroke-width="0.580042"/>
<path d="M340.741 248.5C340.741 298.873 299.006 339.719 247.511 339.719C196.016 339.719 154.281 298.873 154.281 248.5C154.281 198.127 196.016 157.281 247.511 157.281C299.006 157.281 340.741 198.127 340.741 248.5Z" fill="black" stroke="white" stroke-width="0.561628"/>
<path d="M338.619 251.5C338.619 300.222 298.252 339.728 248.445 339.728C198.638 339.728 158.272 300.222 158.272 251.5C158.272 202.778 198.638 163.272 248.445 163.272C298.252 163.272 338.619 202.778 338.619 251.5Z" fill="black" stroke="white" stroke-width="0.543214"/>
<path d="M335.496 248.5C335.496 295.57 296.498 333.738 248.379 333.738C200.26 333.738 161.262 295.57 161.262 248.5C161.262 201.43 200.26 163.262 248.379 163.262C296.498 163.262 335.496 201.43 335.496 248.5Z" fill="black" stroke="white" stroke-width="0.5248"/>
<path d="M332.373 251.5C332.373 296.918 294.743 333.747 248.313 333.747C201.883 333.747 164.253 296.918 164.253 251.5C164.253 206.082 201.883 169.253 248.313 169.253C294.743 169.253 332.373 206.082 332.373 251.5Z" fill="black" stroke="white" stroke-width="0.506386"/>
<path d="M329.251 248.5C329.251 292.267 292.989 327.756 248.247 327.756C203.505 327.756 167.244 292.267 167.244 248.5C167.244 204.733 203.505 169.244 248.247 169.244C292.989 169.244 329.251 204.733 329.251 248.5Z" fill="black" stroke="white" stroke-width="0.487972"/>
<path d="M326.128 251.5C326.128 293.615 291.235 327.765 248.181 327.765C205.128 327.765 170.235 293.615 170.235 251.5C170.235 209.385 205.128 175.235 248.181 175.235C291.235 175.235 326.128 209.385 326.128 251.5Z" fill="black" stroke="white" stroke-width="0.469558"/>
<path d="M323.005 248.5C323.005 288.964 289.481 321.774 248.115 321.774C206.75 321.774 173.226 288.964 173.226 248.5C173.226 208.036 206.75 175.226 248.115 175.226C289.481 175.226 323.005 208.036 323.005 248.5Z" fill="black" stroke="white" stroke-width="0.451144"/>
<path d="M319.883 251.5C319.883 290.312 287.726 321.784 248.049 321.784C208.373 321.784 176.216 290.312 176.216 251.5C176.216 212.688 208.373 181.216 248.049 181.216C287.726 181.216 319.883 212.688 319.883 251.5Z" fill="black" stroke="white" stroke-width="0.43273"/>
<path d="M316.76 248.5C316.76 285.661 285.972 315.793 247.984 315.793C209.995 315.793 179.207 285.661 179.207 248.5C179.207 211.339 209.995 181.207 247.984 181.207C285.972 181.207 316.76 211.339 316.76 248.5Z" fill="black" stroke="white" stroke-width="0.414316"/>
<path d="M313.637 251.5C313.637 287.009 284.218 315.802 247.918 315.802C211.618 315.802 182.198 287.009 182.198 251.5C182.198 215.991 211.618 187.198 247.918 187.198C284.218 187.198 313.637 215.991 313.637 251.5Z" fill="black" stroke="white" stroke-width="0.395902"/>
<path d="M310.515 248.5C310.515 282.357 282.463 309.811 247.852 309.811C213.24 309.811 185.189 282.357 185.189 248.5C185.189 214.643 213.24 187.189 247.852 187.189C282.463 187.189 310.515 214.643 310.515 248.5Z" fill="black" stroke="white" stroke-width="0.377488"/>
<path d="M307.392 251.5C307.392 283.706 280.709 309.82 247.786 309.82C214.862 309.82 188.18 283.706 188.18 251.5C188.18 219.294 214.862 193.18 247.786 193.18C280.709 193.18 307.392 219.294 307.392 251.5Z" fill="black" stroke="white" stroke-width="0.359073"/>
<path d="M304.269 248.5C304.269 279.054 278.955 303.83 247.72 303.83C216.485 303.83 191.17 279.054 191.17 248.5C191.17 217.946 216.485 193.17 247.72 193.17C278.955 193.17 304.269 217.946 304.269 248.5Z" fill="black" stroke="white" stroke-width="0.340659"/>
<path d="M301.147 251.5C301.147 280.403 277.2 303.839 247.654 303.839C218.107 303.839 194.161 280.403 194.161 251.5C194.161 222.597 218.107 199.161 247.654 199.161C277.2 199.161 301.147 222.597 301.147 251.5Z" fill="black" stroke="white" stroke-width="0.322245"/>
<path d="M298.024 248.5C298.024 275.751 275.446 297.848 247.588 297.848C219.73 297.848 197.152 275.751 197.152 248.5C197.152 221.249 219.73 199.152 247.588 199.152C275.446 199.152 298.024 221.249 298.024 248.5Z" fill="black" stroke="white" stroke-width="0.303831"/>
<path d="M294.901 251.5C294.901 277.1 273.692 297.857 247.522 297.857C221.352 297.857 200.143 277.1 200.143 251.5C200.143 225.9 221.352 205.143 247.522 205.143C273.692 205.143 294.901 225.9 294.901 251.5Z" fill="black" stroke="white" stroke-width="0.285417"/>
<path d="M292.779 248.5C292.779 272.448 272.937 291.867 248.456 291.867C223.975 291.867 204.134 272.448 204.134 248.5C204.134 224.552 223.975 205.134 248.456 205.134C272.937 205.134 292.779 224.552 292.779 248.5Z" fill="black" stroke="white" stroke-width="0.267003"/>
<path d="M289.656 251.5C289.656 273.796 271.183 291.876 248.39 291.876C225.597 291.876 207.124 273.796 207.124 251.5C207.124 229.204 225.597 211.124 248.39 211.124C271.183 211.124 289.656 229.204 289.656 251.5Z" fill="black" stroke="white" stroke-width="0.248589"/>
<path d="M286.533 248.5C286.533 269.145 269.429 285.885 248.324 285.885C227.22 285.885 210.115 269.145 210.115 248.5C210.115 227.855 227.22 211.115 248.324 211.115C269.429 211.115 286.533 227.855 286.533 248.5Z" fill="black" stroke="white" stroke-width="0.230175"/>
<path d="M283.411 251.5C283.411 270.493 267.675 285.894 248.258 285.894C228.842 285.894 213.106 270.493 213.106 251.5C213.106 232.507 228.842 217.106 248.258 217.106C267.675 217.106 283.411 232.507 283.411 251.5Z" fill="black" stroke="white" stroke-width="0.211761"/>
<circle cx="248.711" cy="250.711" r="28.7112" fill="white"/>
<circle cx="248.751" cy="250.751" r="24.751" fill="black"/>
<path d="M244.586 7.45056C244.831 6.59196 245.616 6 246.509 6H256.349C257.677 6 258.637 7.27181 258.272 8.54944L255.414 18.5494C255.169 19.408 254.384 20 253.491 20H243.651C242.323 20 241.363 18.7282 241.728 17.4506L244.586 7.45056Z" fill="black"/>
<path d="M7.45056 253.414C6.59196 253.169 6 252.384 6 251.491L6 241.651C6 240.323 7.27181 239.363 8.54944 239.728L18.5494 242.586C19.408 242.831 20 243.616 20 244.509L20 254.349C20 255.677 18.7282 256.637 17.4506 256.272L7.45056 253.414Z" fill="black"/>
<path d="M190.747 483.462C190.287 484.228 189.376 484.596 188.514 484.365L179.009 481.819C177.725 481.475 177.128 479.998 177.811 478.858L183.159 469.938C183.618 469.173 184.53 468.804 185.392 469.035L194.897 471.582C196.18 471.926 196.778 473.402 196.095 474.542L190.747 483.462Z" fill="black"/>
<path d="M131.601 460.186C130.959 460.807 129.983 460.928 129.21 460.481L120.688 455.561C119.538 454.897 119.343 453.316 120.298 452.392L127.772 445.16C128.414 444.539 129.389 444.419 130.163 444.865L138.684 449.785C139.835 450.45 140.03 452.031 139.075 452.955L131.601 460.186Z" fill="black"/>
<path d="M80.4806 422.368C79.7 422.801 78.7265 422.665 78.0951 422.034L71.1372 415.076C70.1976 414.136 70.4186 412.558 71.5801 411.913L80.6715 406.862C81.4521 406.429 82.4256 406.565 83.057 407.196L90.0149 414.154C90.9544 415.094 90.7335 416.672 89.5719 417.317L80.4806 422.368Z" fill="black"/>
<path d="M40.9171 373.083C40.0508 373.299 39.1458 372.916 38.6993 372.142L33.7793 363.621C33.115 362.47 33.7367 361.003 35.0257 360.681L45.1145 358.155C45.9808 357.938 46.8858 358.322 47.3323 359.095L52.2522 367.617C52.9166 368.768 52.2949 370.234 51.0059 370.557L40.9171 373.083Z" fill="black"/>
<path d="M15.2676 315.211C14.3747 315.196 13.5998 314.591 13.3687 313.729L10.8219 304.224C10.478 302.941 11.4582 301.685 12.7868 301.707L23.1855 301.878C24.0784 301.893 24.8533 302.498 25.0844 303.361L27.6311 312.865C27.9751 314.149 26.9949 315.405 25.6663 315.383L15.2676 315.211Z" fill="black"/>
<path d="M12.8462 190.368C12.0804 189.909 11.7117 188.998 11.9428 188.135L14.4896 178.631C14.8335 177.347 16.3103 176.75 17.4499 177.433L26.3697 182.781C27.1355 183.24 27.5042 184.151 27.2731 185.014L24.7263 194.518C24.3824 195.802 22.9056 196.399 21.766 195.716L12.8462 190.368Z" fill="black"/>
<path d="M36.3952 131.601C35.7743 130.959 35.654 129.983 36.1005 129.21L41.0205 120.688C41.6848 119.538 43.2659 119.343 44.1899 120.298L51.4215 127.772C52.0425 128.414 52.1627 129.389 51.7162 130.163L46.7963 138.684C46.1319 139.835 44.5508 140.03 43.6269 139.075L36.3952 131.601Z" fill="black"/>
<path d="M73.5215 80.4801C73.0879 79.6995 73.2242 78.726 73.8556 78.0946L80.8135 71.1367C81.7531 70.1971 83.3307 70.4181 83.976 71.5796L89.0268 80.671C89.4605 81.4516 89.3241 82.4251 88.6927 83.0565L81.7348 90.0144C80.7952 90.954 79.2176 90.733 78.5723 89.5714L73.5215 80.4801Z" fill="black"/>
<path d="M122.886 40.9171C122.669 40.0508 123.053 39.1458 123.826 38.6993L132.348 33.7793C133.499 33.115 134.965 33.7367 135.288 35.0257L137.814 45.1145C138.031 45.9808 137.647 46.8858 136.874 47.3323L128.352 52.2522C127.201 52.9166 125.734 52.2949 125.412 51.0059L122.886 40.9171Z" fill="black"/>
<path d="M180.646 15.2676C180.661 14.3747 181.266 13.5998 182.129 13.3687L191.633 10.8219C192.917 10.478 194.172 11.4582 194.151 12.7868L193.979 23.1855C193.964 24.0784 193.359 24.8533 192.497 25.0844L182.992 27.6311C181.709 27.9751 180.453 26.9949 180.475 25.6663L180.646 15.2676Z" fill="black"/>
<path d="M242.586 479.451C242.831 478.592 243.616 478 244.509 478H254.349C255.677 478 256.637 479.272 256.272 480.549L253.414 490.549C253.169 491.408 252.384 492 251.491 492H241.651C240.323 492 239.363 490.728 239.728 489.451L242.586 479.451Z" fill="black"/>
<path d="M479.451 255.414C478.592 255.169 478 254.384 478 253.491L478 243.651C478 242.323 479.272 241.363 480.549 241.728L490.549 244.586C491.408 244.831 492 245.616 492 246.509L492 256.349C492 257.677 490.728 258.637 489.451 258.272L479.451 255.414Z" fill="black"/>
<path d="M314.841 28.062C314.382 28.8278 313.47 29.1965 312.608 28.9654L303.103 26.4186C301.82 26.0747 301.222 24.5979 301.905 23.4583L307.253 14.5386C307.713 13.7727 308.624 13.404 309.486 13.6351L318.991 16.1819C320.275 16.5258 320.872 18.0026 320.189 19.1422L314.841 28.062Z" fill="black"/>
<path d="M369.333 52.4217C368.691 53.0426 367.715 53.1629 366.942 52.7164L358.42 47.7964C357.269 47.1321 357.075 45.551 358.029 44.627L365.504 37.3953C366.146 36.7744 367.121 36.6542 367.895 37.1006L376.416 42.0206C377.567 42.685 377.762 44.2661 376.807 45.19L369.333 52.4217Z" fill="black"/>
<path d="M415.649 90.0268C414.868 90.4605 413.895 90.3241 413.264 89.6927L406.306 82.7348C405.366 81.7953 405.587 80.2176 406.749 79.5723L415.84 74.5215C416.621 74.0879 417.594 74.2242 418.225 74.8556L425.183 81.8135C426.123 82.7531 425.902 84.3308 424.74 84.9761L415.649 90.0268Z" fill="black"/>
<path d="M450.681 138.814C449.815 139.03 448.91 138.647 448.463 137.873L443.544 129.352C442.879 128.201 443.501 126.734 444.79 126.412L454.879 123.886C455.745 123.669 456.65 124.053 457.096 124.826L462.016 133.348C462.681 134.499 462.059 135.965 460.77 136.288L450.681 138.814Z" fill="black"/>
<path d="M471.703 194.979C470.81 194.964 470.035 194.36 469.804 193.497L467.257 183.992C466.913 182.709 467.893 181.453 469.222 181.475L479.621 181.647C480.513 181.661 481.288 182.266 481.519 183.129L484.066 192.633C484.41 193.917 483.43 195.173 482.101 195.151L471.703 194.979Z" fill="black"/>
<path d="M468.247 314.462C467.481 314.003 467.112 313.091 467.343 312.229L469.89 302.724C470.234 301.441 471.711 300.843 472.85 301.527L481.77 306.875C482.536 307.334 482.905 308.245 482.673 309.108L480.127 318.612C479.783 319.896 478.306 320.493 477.166 319.81L468.247 314.462Z" fill="black"/>
<path d="M444.16 369.332C443.539 368.69 443.419 367.715 443.866 366.941L448.786 358.42C449.45 357.269 451.031 357.074 451.955 358.029L459.187 365.503C459.808 366.145 459.928 367.121 459.481 367.894L454.561 376.416C453.897 377.566 452.316 377.761 451.392 376.806L444.16 369.332Z" fill="black"/>
<path d="M405.863 415.649C405.429 414.868 405.566 413.894 406.197 413.263L413.155 406.305C414.094 405.366 415.672 405.587 416.317 406.748L421.368 415.839C421.802 416.62 421.665 417.594 421.034 418.225L414.076 425.183C413.137 426.122 411.559 425.901 410.914 424.74L405.863 415.649Z" fill="black"/>
<path d="M357.155 450.681C356.938 449.815 357.322 448.91 358.095 448.463L366.617 443.544C367.768 442.879 369.234 443.501 369.557 444.79L372.083 454.879C372.3 455.745 371.916 456.65 371.143 457.096L362.621 462.016C361.47 462.681 360.003 462.059 359.681 460.77L357.155 450.681Z" fill="black"/>
<path d="M300.878 471.703C300.893 470.81 301.498 470.035 302.36 469.804L311.865 467.257C313.149 466.913 314.404 467.893 314.382 469.222L314.211 479.621C314.196 480.513 313.591 481.288 312.729 481.519L303.224 484.066C301.941 484.41 300.685 483.43 300.707 482.101L300.878 471.703Z" fill="black"/>
</svg>
