<svg width="1702" height="226" viewBox="0 0 1702 226" fill="none" xmlns="http://www.w3.org/2000/svg">
<g clip-path="url(#clip0_780_17302)">
<g clip-path="url(#clip1_780_17302)">
<path d="M297.007 8.48C301.007 8.48 303.127 11.64 303.127 16.9C303.127 22.26 301.007 25.32 297.007 25.32C293.047 25.32 290.887 22.26 290.887 16.9C290.887 11.72 293.027 8.48 297.007 8.48ZM297.007 23.68C299.567 23.68 301.487 21.98 301.487 16.9C301.487 11.9 299.567 10.12 297.007 10.12C294.507 10.12 292.527 11.94 292.527 16.9C292.527 22 294.507 23.68 297.007 23.68ZM313.787 25L303.927 25L303.927 23.36L308.467 23.38L308.467 10.7L304.187 13.48L304.207 11.6L308.507 8.82L310.167 8.82L310.167 23.36L313.787 23.36L313.787 25Z" fill="white"/>
<path d="M296.117 55.48C300.117 55.48 302.237 58.64 302.237 63.9C302.237 69.26 300.117 72.32 296.117 72.32C292.157 72.32 289.997 69.26 289.997 63.9C289.997 58.72 292.137 55.48 296.117 55.48ZM296.117 70.68C298.677 70.68 300.597 68.98 300.597 63.9C300.597 58.9 298.677 57.12 296.117 57.12C293.617 57.12 291.637 58.94 291.637 63.9C291.637 69 293.617 70.68 296.117 70.68ZM308.597 55.48C312.217 55.48 313.837 57.58 313.837 60.38C313.837 62.92 312.397 64.52 309.417 65.2C306.617 65.86 305.337 65.48 305.337 70.38L314.057 70.38L314.057 72L303.697 72C303.697 71.18 303.677 71.3 303.677 70.38C303.677 65.08 305.157 64.48 308.817 63.66C311.777 63 312.177 61.7 312.177 60.06C312.177 58.54 311.057 57.12 308.977 57.12C307.077 57.12 305.057 57.82 304.857 59.94L303.237 59.94C303.377 57.46 305.297 55.48 308.597 55.48Z" fill="white"/>
<path d="M296.283 102.48C300.283 102.48 302.403 105.64 302.403 110.9C302.403 116.26 300.283 119.32 296.283 119.32C292.323 119.32 290.163 116.26 290.163 110.9C290.163 105.72 292.303 102.48 296.283 102.48ZM296.283 117.68C298.843 117.68 300.763 115.98 300.763 110.9C300.763 105.9 298.843 104.12 296.283 104.12C293.783 104.12 291.803 105.94 291.803 110.9C291.803 116 293.783 117.68 296.283 117.68ZM310.558 109.96C310.558 109.96 313.858 110.3 313.858 114.24C313.858 117.64 311.858 119.32 308.538 119.32C305.518 119.32 303.538 117.62 303.378 114.78L304.978 114.78C305.518 116.98 306.498 117.72 308.978 117.72C311.158 117.72 312.218 116.14 312.218 113.98C312.218 112.6 311.158 111 308.598 110.72L308.598 109.28C310.398 109.02 311.238 108.12 311.238 106.94C311.238 104.94 310.158 104.12 308.398 104.12C306.918 104.12 306.158 104.82 305.798 106.16L304.178 106.16C304.338 104.04 305.838 102.48 308.398 102.48C311.498 102.48 312.898 104.52 312.898 106.54C312.898 109.7 310.558 109.96 310.558 109.96Z" fill="white"/>
<path d="M296.129 148.48C300.129 148.48 302.249 151.64 302.249 156.9C302.249 162.26 300.129 165.32 296.129 165.32C292.169 165.32 290.009 162.26 290.009 156.9C290.009 151.72 292.149 148.48 296.129 148.48ZM296.129 163.68C298.689 163.68 300.609 161.98 300.609 156.9C300.609 151.9 298.689 150.12 296.129 150.12C293.629 150.12 291.649 151.94 291.649 156.9C291.649 162 293.629 163.68 296.129 163.68ZM315.467 160.32L313.167 160.32L313.167 165L311.527 165L311.527 160.32L303.687 160.32L303.687 158.36L310.907 148.82L313.167 148.82L313.167 158.68L315.467 158.68L315.467 160.32ZM311.527 158.68L311.527 150.1L305.007 158.68L311.527 158.68Z" fill="white"/>
<path d="M296.312 196.48C300.312 196.48 302.432 199.64 302.432 204.9C302.432 210.26 300.312 213.32 296.312 213.32C292.352 213.32 290.192 210.26 290.192 204.9C290.192 199.72 292.332 196.48 296.312 196.48ZM296.312 211.68C298.872 211.68 300.792 209.98 300.792 204.9C300.792 199.9 298.872 198.12 296.312 198.12C293.812 198.12 291.832 199.94 291.832 204.9C291.832 210 293.812 211.68 296.312 211.68ZM308.986 213.32C306.486 213.5 303.826 211.94 303.826 209.38L305.546 209.38C305.546 210.26 306.486 211.74 308.786 211.66C311.086 211.6 312.246 210.02 312.246 207.56C312.246 205.58 311.066 204.2 308.906 204.18C306.766 204.16 306.006 205.06 305.826 205.94L304.266 205.94L304.266 196.8L313.246 196.8L313.246 198.44L305.806 198.44L305.806 203.88C305.806 203.88 306.486 202.66 309.066 202.66C311.966 202.66 313.786 204.76 313.786 207.56C313.786 211.8 311.366 213.14 308.986 213.32Z" fill="white"/>
<rect x="238" y="1" width="35" height="35" rx="0.875" fill="white"/>
<rect x="239.75" y="2.75" width="31.5" height="31.5" rx="0.875" fill="white"/>
<rect x="238" y="48" width="35" height="35" rx="0.875" fill="white"/>
<rect x="239.75" y="49.75" width="31.5" height="31.5" rx="0.875" fill="black"/>
<rect x="238" y="95" width="35" height="35" rx="0.875" fill="white"/>
<rect x="239.75" y="96.75" width="31.5" height="31.5" rx="0.875" fill="black"/>
<rect x="238" y="142" width="35" height="35" rx="0.875" fill="white"/>
<rect x="239.75" y="143.75" width="31.5" height="31.5" rx="0.875" fill="black"/>
<rect x="238" y="189" width="35" height="35" rx="0.875" fill="white"/>
<rect x="239.75" y="190.75" width="31.5" height="31.5" rx="0.875" fill="black"/>
<rect x="0.5" y="1.5" width="97" height="224" stroke="white"/>
<rect x="122.5" y="1.5" width="97" height="224" stroke="white"/>
<rect x="4" y="20" width="43" height="8" fill="#48E2DC"/>
<rect x="126" y="20" width="43" height="8" fill="white"/>
<rect x="4" y="68" width="43" height="8" fill="white"/>
<rect x="126" y="68" width="43" height="8" fill="#48E2DC"/>
<rect x="4" y="116" width="43" height="8" fill="#FD4B28"/>
<rect x="126.5" y="116.5" width="42" height="7" stroke="white"/>
<rect x="4.5" y="164.5" width="42" height="7" stroke="white"/>
<rect x="126" y="164" width="43" height="8" fill="#FD4B28"/>
<rect x="4" y="44" width="43" height="8" fill="#48E2DC"/>
<rect x="126" y="44" width="43" height="8" fill="white"/>
<rect x="4" y="92" width="43" height="8" fill="white"/>
<rect x="126" y="92" width="43" height="8" fill="#48E2DC"/>
<rect x="4" y="140" width="43" height="8" fill="#FD4B28"/>
<rect x="126.5" y="140.5" width="42" height="7" stroke="white"/>
<rect x="4.5" y="188.5" width="42" height="7" stroke="white"/>
<rect x="126" y="188" width="43" height="8" fill="#FD4B28"/>
<rect x="4" y="32" width="43" height="8" fill="#48E2DC"/>
<rect x="126" y="32" width="43" height="8" fill="white"/>
<rect x="4" y="80" width="43" height="8" fill="white"/>
<rect x="126" y="80" width="43" height="8" fill="#48E2DC"/>
<rect x="4" y="128" width="43" height="8" fill="#FD4B28"/>
<rect x="126.5" y="128.5" width="42" height="7" stroke="white"/>
<rect x="4.5" y="176.5" width="42" height="7" stroke="white"/>
<rect x="126" y="176" width="43" height="8" fill="#FD4B28"/>
<rect x="4" y="56" width="43" height="8" fill="#48E2DC"/>
<rect x="126" y="56" width="43" height="8" fill="white"/>
<rect x="4" y="104" width="43" height="8" fill="white"/>
<rect x="126" y="104" width="43" height="8" fill="#48E2DC"/>
<rect x="4" y="152" width="43" height="8" fill="#FD4B28"/>
<rect x="126.5" y="152.5" width="42" height="7" stroke="white"/>
<rect x="4.5" y="200.5" width="42" height="7" stroke="white"/>
<rect x="126" y="200" width="43" height="8" fill="#FD4B28"/>
<rect x="51.5" y="20.5" width="42" height="7" stroke="white"/>
<rect x="173" y="20" width="43" height="8" fill="#FD4B28"/>
<rect x="51" y="68" width="43" height="8" fill="#FD4B28"/>
<rect x="173.5" y="68.5" width="42" height="7" stroke="white"/>
<rect x="51" y="116" width="43" height="8" fill="white"/>
<rect x="173" y="116" width="43" height="8" fill="#48E2DC"/>
<rect x="51" y="164" width="43" height="8" fill="#48E2DC"/>
<rect x="173" y="164" width="43" height="8" fill="white"/>
<rect x="51.5" y="44.5" width="42" height="7" stroke="white"/>
<rect x="173" y="44" width="43" height="8" fill="#FD4B28"/>
<rect x="51" y="92" width="43" height="8" fill="#FD4B28"/>
<rect x="173.5" y="92.5" width="42" height="7" stroke="white"/>
<rect x="51" y="140" width="43" height="8" fill="white"/>
<rect x="173" y="140" width="43" height="8" fill="#48E2DC"/>
<rect x="51" y="188" width="43" height="8" fill="#48E2DC"/>
<rect x="173" y="188" width="43" height="8" fill="white"/>
<rect x="51.5" y="32.5" width="42" height="7" stroke="white"/>
<rect x="173" y="32" width="43" height="8" fill="#FD4B28"/>
<rect x="51" y="80" width="43" height="8" fill="#FD4B28"/>
<rect x="173.5" y="80.5" width="42" height="7" stroke="white"/>
<rect x="51" y="128" width="43" height="8" fill="white"/>
<rect x="173" y="128" width="43" height="8" fill="#48E2DC"/>
<rect x="51" y="176" width="43" height="8" fill="#48E2DC"/>
<rect x="173" y="176" width="43" height="8" fill="white"/>
<rect x="51.5" y="56.5" width="42" height="7" stroke="white"/>
<rect x="173" y="56" width="43" height="8" fill="#FD4B28"/>
<rect x="51" y="104" width="43" height="8" fill="#FD4B28"/>
<rect x="173.5" y="104.5" width="42" height="7" stroke="white"/>
<rect x="51" y="152" width="43" height="8" fill="white"/>
<rect x="173" y="152" width="43" height="8" fill="#48E2DC"/>
<rect x="51" y="200" width="43" height="8" fill="#48E2DC"/>
<rect x="173" y="200" width="43" height="8" fill="white"/>
</g>
<g clip-path="url(#clip2_780_17302)">
<path d="M635.007 8.48C639.007 8.48 641.127 11.64 641.127 16.9C641.127 22.26 639.007 25.32 635.007 25.32C631.047 25.32 628.887 22.26 628.887 16.9C628.887 11.72 631.027 8.48 635.007 8.48ZM635.007 23.68C637.567 23.68 639.487 21.98 639.487 16.9C639.487 11.9 637.567 10.12 635.007 10.12C632.507 10.12 630.527 11.94 630.527 16.9C630.527 22 632.507 23.68 635.007 23.68ZM651.787 25L641.927 25L641.927 23.36L646.467 23.38L646.467 10.7L642.187 13.48L642.207 11.6L646.507 8.82L648.167 8.82L648.167 23.36L651.787 23.36L651.787 25Z" fill="white"/>
<path d="M634.117 55.48C638.117 55.48 640.237 58.64 640.237 63.9C640.237 69.26 638.117 72.32 634.117 72.32C630.157 72.32 627.997 69.26 627.997 63.9C627.997 58.72 630.137 55.48 634.117 55.48ZM634.117 70.68C636.677 70.68 638.597 68.98 638.597 63.9C638.597 58.9 636.677 57.12 634.117 57.12C631.617 57.12 629.637 58.94 629.637 63.9C629.637 69 631.617 70.68 634.117 70.68ZM646.597 55.48C650.217 55.48 651.837 57.58 651.837 60.38C651.837 62.92 650.397 64.52 647.417 65.2C644.617 65.86 643.337 65.48 643.337 70.38L652.057 70.38L652.057 72L641.697 72C641.697 71.18 641.677 71.3 641.677 70.38C641.677 65.08 643.157 64.48 646.817 63.66C649.777 63 650.177 61.7 650.177 60.06C650.177 58.54 649.057 57.12 646.977 57.12C645.077 57.12 643.057 57.82 642.857 59.94L641.237 59.94C641.377 57.46 643.297 55.48 646.597 55.48Z" fill="white"/>
<path d="M634.283 102.48C638.283 102.48 640.403 105.64 640.403 110.9C640.403 116.26 638.283 119.32 634.283 119.32C630.323 119.32 628.163 116.26 628.163 110.9C628.163 105.72 630.303 102.48 634.283 102.48ZM634.283 117.68C636.843 117.68 638.763 115.98 638.763 110.9C638.763 105.9 636.843 104.12 634.283 104.12C631.783 104.12 629.803 105.94 629.803 110.9C629.803 116 631.783 117.68 634.283 117.68ZM648.558 109.96C648.558 109.96 651.858 110.3 651.858 114.24C651.858 117.64 649.858 119.32 646.538 119.32C643.518 119.32 641.538 117.62 641.378 114.78L642.978 114.78C643.518 116.98 644.498 117.72 646.978 117.72C649.158 117.72 650.218 116.14 650.218 113.98C650.218 112.6 649.158 111 646.598 110.72L646.598 109.28C648.398 109.02 649.238 108.12 649.238 106.94C649.238 104.94 648.158 104.12 646.398 104.12C644.918 104.12 644.158 104.82 643.798 106.16L642.178 106.16C642.338 104.04 643.838 102.48 646.398 102.48C649.498 102.48 650.898 104.52 650.898 106.54C650.898 109.7 648.558 109.96 648.558 109.96Z" fill="white"/>
<path d="M634.312 196.48C638.312 196.48 640.432 199.64 640.432 204.9C640.432 210.26 638.312 213.32 634.312 213.32C630.352 213.32 628.192 210.26 628.192 204.9C628.192 199.72 630.332 196.48 634.312 196.48ZM634.312 211.68C636.872 211.68 638.792 209.98 638.792 204.9C638.792 199.9 636.872 198.12 634.312 198.12C631.812 198.12 629.832 199.94 629.832 204.9C629.832 210 631.812 211.68 634.312 211.68ZM646.986 213.32C644.486 213.5 641.826 211.94 641.826 209.38L643.546 209.38C643.546 210.26 644.486 211.74 646.786 211.66C649.086 211.6 650.246 210.02 650.246 207.56C650.246 205.58 649.066 204.2 646.906 204.18C644.766 204.16 644.006 205.06 643.826 205.94L642.266 205.94L642.266 196.8L651.246 196.8L651.246 198.44L643.806 198.44L643.806 203.88C643.806 203.88 644.486 202.66 647.066 202.66C649.966 202.66 651.786 204.76 651.786 207.56C651.786 211.8 649.366 213.14 646.986 213.32Z" fill="white"/>
<rect x="576" y="1" width="35" height="35" rx="0.875" fill="white"/>
<rect x="577.75" y="2.75" width="31.5" height="31.5" rx="0.875" fill="black"/>
<rect x="576" y="48" width="35" height="35" rx="0.875" fill="white"/>
<rect x="577.75" y="49.75" width="31.5" height="31.5" rx="0.875" fill="white"/>
<rect x="576" y="95" width="35" height="35" rx="0.875" fill="white"/>
<rect x="577.75" y="96.75" width="31.5" height="31.5" rx="0.875" fill="black"/>
<rect x="576" y="142" width="35" height="35" rx="0.875" fill="white"/>
<rect x="577.75" y="143.75" width="31.5" height="31.5" rx="0.875" fill="black"/>
<rect x="576" y="189" width="35" height="35" rx="0.875" fill="white"/>
<rect x="577.75" y="190.75" width="31.5" height="31.5" rx="0.875" fill="black"/>
<rect x="338.5" y="1.5" width="97" height="224" stroke="white"/>
<rect x="460.5" y="1.5" width="97" height="224" stroke="white"/>
<rect x="342.5" y="20.5" width="42" height="7" stroke="white"/>
<rect x="464" y="20" width="43" height="8" fill="#FD4B28"/>
<rect x="342" y="68" width="43" height="8" fill="#48E2DC"/>
<rect x="464" y="68" width="43" height="8" fill="white"/>
<rect x="342" y="116" width="43" height="8" fill="white"/>
<rect x="464" y="116" width="43" height="8" fill="#48E2DC"/>
<rect x="342" y="164" width="43" height="8" fill="#FD4B28"/>
<rect x="464.5" y="164.5" width="42" height="7" stroke="white"/>
<rect x="342.5" y="44.5" width="42" height="7" stroke="white"/>
<rect x="464" y="44" width="43" height="8" fill="#FD4B28"/>
<rect x="342" y="92" width="43" height="8" fill="#48E2DC"/>
<rect x="464" y="92" width="43" height="8" fill="white"/>
<rect x="342" y="140" width="43" height="8" fill="white"/>
<rect x="464" y="140" width="43" height="8" fill="#48E2DC"/>
<rect x="342" y="188" width="43" height="8" fill="#FD4B28"/>
<rect x="464.5" y="188.5" width="42" height="7" stroke="white"/>
<rect x="342.5" y="32.5" width="42" height="7" stroke="white"/>
<rect x="464" y="32" width="43" height="8" fill="#FD4B28"/>
<rect x="342" y="80" width="43" height="8" fill="#48E2DC"/>
<rect x="464" y="80" width="43" height="8" fill="white"/>
<rect x="342" y="128" width="43" height="8" fill="white"/>
<rect x="464" y="128" width="43" height="8" fill="#48E2DC"/>
<rect x="342" y="176" width="43" height="8" fill="#FD4B28"/>
<rect x="464.5" y="176.5" width="42" height="7" stroke="white"/>
<rect x="342.5" y="56.5" width="42" height="7" stroke="white"/>
<rect x="464" y="56" width="43" height="8" fill="#FD4B28"/>
<rect x="342" y="104" width="43" height="8" fill="#48E2DC"/>
<rect x="464" y="104" width="43" height="8" fill="white"/>
<rect x="342" y="152" width="43" height="8" fill="white"/>
<rect x="464" y="152" width="43" height="8" fill="#48E2DC"/>
<rect x="342" y="200" width="43" height="8" fill="#FD4B28"/>
<rect x="464.5" y="200.5" width="42" height="7" stroke="white"/>
<rect x="389" y="20" width="43" height="8" fill="#FD4B28"/>
<rect x="511.5" y="20.5" width="42" height="7" stroke="white"/>
<rect x="389" y="68" width="43" height="8" fill="white"/>
<rect x="511" y="68" width="43" height="8" fill="#48E2DC"/>
<rect x="389" y="116" width="43" height="8" fill="#48E2DC"/>
<rect x="511" y="116" width="43" height="8" fill="white"/>
<rect x="389.5" y="164.5" width="42" height="7" stroke="white"/>
<rect x="511" y="164" width="43" height="8" fill="#FD4B28"/>
<rect x="389" y="44" width="43" height="8" fill="#FD4B28"/>
<rect x="511.5" y="44.5" width="42" height="7" stroke="white"/>
<rect x="389" y="92" width="43" height="8" fill="white"/>
<rect x="511" y="92" width="43" height="8" fill="#48E2DC"/>
<rect x="389" y="140" width="43" height="8" fill="#48E2DC"/>
<rect x="511" y="140" width="43" height="8" fill="white"/>
<rect x="389.5" y="188.5" width="42" height="7" stroke="white"/>
<rect x="511" y="188" width="43" height="8" fill="#FD4B28"/>
<rect x="389" y="32" width="43" height="8" fill="#FD4B28"/>
<rect x="511.5" y="32.5" width="42" height="7" stroke="white"/>
<rect x="389" y="80" width="43" height="8" fill="white"/>
<rect x="511" y="80" width="43" height="8" fill="#48E2DC"/>
<rect x="389" y="128" width="43" height="8" fill="#48E2DC"/>
<rect x="511" y="128" width="43" height="8" fill="white"/>
<rect x="389.5" y="176.5" width="42" height="7" stroke="white"/>
<rect x="511" y="176" width="43" height="8" fill="#FD4B28"/>
<rect x="389" y="56" width="43" height="8" fill="#FD4B28"/>
<rect x="511.5" y="56.5" width="42" height="7" stroke="white"/>
<rect x="389" y="104" width="43" height="8" fill="white"/>
<rect x="511" y="104" width="43" height="8" fill="#48E2DC"/>
<rect x="389" y="152" width="43" height="8" fill="#48E2DC"/>
<rect x="511" y="152" width="43" height="8" fill="white"/>
<rect x="389.5" y="200.5" width="42" height="7" stroke="white"/>
<rect x="511" y="200" width="43" height="8" fill="#FD4B28"/>
<path d="M634.129 148.48C638.129 148.48 640.249 151.64 640.249 156.9C640.249 162.26 638.129 165.32 634.129 165.32C630.169 165.32 628.009 162.26 628.009 156.9C628.009 151.72 630.149 148.48 634.129 148.48ZM634.129 163.68C636.689 163.68 638.609 161.98 638.609 156.9C638.609 151.9 636.689 150.12 634.129 150.12C631.629 150.12 629.649 151.94 629.649 156.9C629.649 162 631.629 163.68 634.129 163.68ZM653.467 160.32L651.167 160.32L651.167 165L649.527 165L649.527 160.32L641.687 160.32L641.687 158.36L648.907 148.82L651.167 148.82L651.167 158.68L653.467 158.68L653.467 160.32ZM649.527 158.68L649.527 150.1L643.007 158.68L649.527 158.68Z" fill="white"/>
</g>
<g clip-path="url(#clip3_780_17302)">
<path d="M973.007 8.48C977.007 8.48 979.127 11.64 979.127 16.9C979.127 22.26 977.007 25.32 973.007 25.32C969.047 25.32 966.887 22.26 966.887 16.9C966.887 11.72 969.027 8.48 973.007 8.48ZM973.007 23.68C975.567 23.68 977.487 21.98 977.487 16.9C977.487 11.9 975.567 10.12 973.007 10.12C970.507 10.12 968.527 11.94 968.527 16.9C968.527 22 970.507 23.68 973.007 23.68ZM989.787 25L979.927 25L979.927 23.36L984.467 23.38L984.467 10.7L980.187 13.48L980.207 11.6L984.507 8.82L986.167 8.82L986.167 23.36L989.787 23.36L989.787 25Z" fill="white"/>
<path d="M972.117 55.48C976.117 55.48 978.237 58.64 978.237 63.9C978.237 69.26 976.117 72.32 972.117 72.32C968.157 72.32 965.997 69.26 965.997 63.9C965.997 58.72 968.137 55.48 972.117 55.48ZM972.117 70.68C974.677 70.68 976.597 68.98 976.597 63.9C976.597 58.9 974.677 57.12 972.117 57.12C969.617 57.12 967.637 58.94 967.637 63.9C967.637 69 969.617 70.68 972.117 70.68ZM984.597 55.48C988.217 55.48 989.837 57.58 989.837 60.38C989.837 62.92 988.397 64.52 985.417 65.2C982.617 65.86 981.337 65.48 981.337 70.38L990.057 70.38L990.057 72L979.697 72C979.697 71.18 979.677 71.3 979.677 70.38C979.677 65.08 981.157 64.48 984.817 63.66C987.777 63 988.177 61.7 988.177 60.06C988.177 58.54 987.057 57.12 984.977 57.12C983.077 57.12 981.057 57.82 980.857 59.94L979.237 59.94C979.377 57.46 981.297 55.48 984.597 55.48Z" fill="white"/>
<path d="M972.283 102.48C976.283 102.48 978.403 105.64 978.403 110.9C978.403 116.26 976.283 119.32 972.283 119.32C968.323 119.32 966.163 116.26 966.163 110.9C966.163 105.72 968.303 102.48 972.283 102.48ZM972.283 117.68C974.843 117.68 976.763 115.98 976.763 110.9C976.763 105.9 974.843 104.12 972.283 104.12C969.783 104.12 967.803 105.94 967.803 110.9C967.803 116 969.783 117.68 972.283 117.68ZM986.558 109.96C986.558 109.96 989.858 110.3 989.858 114.24C989.858 117.64 987.858 119.32 984.538 119.32C981.518 119.32 979.538 117.62 979.378 114.78L980.978 114.78C981.518 116.98 982.498 117.72 984.978 117.72C987.158 117.72 988.218 116.14 988.218 113.98C988.218 112.6 987.158 111 984.598 110.72L984.598 109.28C986.398 109.02 987.238 108.12 987.238 106.94C987.238 104.94 986.158 104.12 984.398 104.12C982.918 104.12 982.158 104.82 981.798 106.16L980.178 106.16C980.338 104.04 981.838 102.48 984.398 102.48C987.498 102.48 988.898 104.52 988.898 106.54C988.898 109.7 986.558 109.96 986.558 109.96Z" fill="white"/>
<path d="M972.129 148.48C976.129 148.48 978.249 151.64 978.249 156.9C978.249 162.26 976.129 165.32 972.129 165.32C968.169 165.32 966.009 162.26 966.009 156.9C966.009 151.72 968.149 148.48 972.129 148.48ZM972.129 163.68C974.689 163.68 976.609 161.98 976.609 156.9C976.609 151.9 974.689 150.12 972.129 150.12C969.629 150.12 967.649 151.94 967.649 156.9C967.649 162 969.629 163.68 972.129 163.68ZM991.467 160.32L989.167 160.32L989.167 165L987.527 165L987.527 160.32L979.687 160.32L979.687 158.36L986.907 148.82L989.167 148.82L989.167 158.68L991.467 158.68L991.467 160.32ZM987.527 158.68L987.527 150.1L981.007 158.68L987.527 158.68Z" fill="white"/>
<path d="M972.312 196.48C976.312 196.48 978.432 199.64 978.432 204.9C978.432 210.26 976.312 213.32 972.312 213.32C968.352 213.32 966.192 210.26 966.192 204.9C966.192 199.72 968.332 196.48 972.312 196.48ZM972.312 211.68C974.872 211.68 976.792 209.98 976.792 204.9C976.792 199.9 974.872 198.12 972.312 198.12C969.812 198.12 967.832 199.94 967.832 204.9C967.832 210 969.812 211.68 972.312 211.68ZM984.986 213.32C982.486 213.5 979.826 211.94 979.826 209.38L981.546 209.38C981.546 210.26 982.486 211.74 984.786 211.66C987.086 211.6 988.246 210.02 988.246 207.56C988.246 205.58 987.066 204.2 984.906 204.18C982.766 204.16 982.006 205.06 981.826 205.94L980.266 205.94L980.266 196.8L989.246 196.8L989.246 198.44L981.806 198.44L981.806 203.88C981.806 203.88 982.486 202.66 985.066 202.66C987.966 202.66 989.786 204.76 989.786 207.56C989.786 211.8 987.366 213.14 984.986 213.32Z" fill="white"/>
<rect x="914" y="1" width="35" height="35" rx="0.875" fill="white"/>
<rect x="915.75" y="2.75" width="31.5" height="31.5" rx="0.875" fill="black"/>
<rect x="914" y="48" width="35" height="35" rx="0.875" fill="white"/>
<rect x="915.75" y="49.75" width="31.5" height="31.5" rx="0.875" fill="black"/>
<rect x="914" y="95" width="35" height="35" rx="0.875" fill="white"/>
<rect x="915.75" y="96.75" width="31.5" height="31.5" rx="0.875" fill="white"/>
<rect x="914" y="142" width="35" height="35" rx="0.875" fill="white"/>
<rect x="915.75" y="143.75" width="31.5" height="31.5" rx="0.875" fill="black"/>
<rect x="914" y="189" width="35" height="35" rx="0.875" fill="white"/>
<rect x="915.75" y="190.75" width="31.5" height="31.5" rx="0.875" fill="black"/>
<rect x="676.5" y="1.5" width="97" height="224" stroke="white"/>
<rect x="798.5" y="1.5" width="97" height="224" stroke="white"/>
<rect x="680" y="20" width="43" height="8" fill="#FD4B28"/>
<rect x="802.5" y="20.5" width="42" height="7" stroke="white"/>
<rect x="680.5" y="68.5" width="42" height="7" stroke="white"/>
<rect x="802" y="68" width="43" height="8" fill="#FD4B28"/>
<rect x="680" y="116" width="43" height="8" fill="#48E2DC"/>
<rect x="802" y="116" width="43" height="8" fill="white"/>
<rect x="680" y="164" width="43" height="8" fill="white"/>
<rect x="802" y="164" width="43" height="8" fill="#48E2DC"/>
<rect x="680" y="44" width="43" height="8" fill="#FD4B28"/>
<rect x="802.5" y="44.5" width="42" height="7" stroke="white"/>
<rect x="680.5" y="92.5" width="42" height="7" stroke="white"/>
<rect x="802" y="92" width="43" height="8" fill="#FD4B28"/>
<rect x="680" y="140" width="43" height="8" fill="#48E2DC"/>
<rect x="802" y="140" width="43" height="8" fill="white"/>
<rect x="680" y="188" width="43" height="8" fill="white"/>
<rect x="802" y="188" width="43" height="8" fill="#48E2DC"/>
<rect x="680" y="32" width="43" height="8" fill="#FD4B28"/>
<rect x="802.5" y="32.5" width="42" height="7" stroke="white"/>
<rect x="680.5" y="80.5" width="42" height="7" stroke="white"/>
<rect x="802" y="80" width="43" height="8" fill="#FD4B28"/>
<rect x="680" y="128" width="43" height="8" fill="#48E2DC"/>
<rect x="802" y="128" width="43" height="8" fill="white"/>
<rect x="680" y="176" width="43" height="8" fill="white"/>
<rect x="802" y="176" width="43" height="8" fill="#48E2DC"/>
<rect x="680" y="56" width="43" height="8" fill="#FD4B28"/>
<rect x="802.5" y="56.5" width="42" height="7" stroke="white"/>
<rect x="680.5" y="104.5" width="42" height="7" stroke="white"/>
<rect x="802" y="104" width="43" height="8" fill="#FD4B28"/>
<rect x="680" y="152" width="43" height="8" fill="#48E2DC"/>
<rect x="802" y="152" width="43" height="8" fill="white"/>
<rect x="680" y="200" width="43" height="8" fill="white"/>
<rect x="802" y="200" width="43" height="8" fill="#48E2DC"/>
<rect x="727" y="20" width="43" height="8" fill="white"/>
<rect x="849" y="20" width="43" height="8" fill="#48E2DC"/>
<rect x="727" y="68" width="43" height="8" fill="#48E2DC"/>
<rect x="849" y="68" width="43" height="8" fill="white"/>
<rect x="727.5" y="116.5" width="42" height="7" stroke="white"/>
<rect x="849" y="116" width="43" height="8" fill="#FD4B28"/>
<rect x="727" y="164" width="43" height="8" fill="#FD4B28"/>
<rect x="849.5" y="164.5" width="42" height="7" stroke="white"/>
<rect x="727" y="44" width="43" height="8" fill="white"/>
<rect x="849" y="44" width="43" height="8" fill="#48E2DC"/>
<rect x="727" y="92" width="43" height="8" fill="#48E2DC"/>
<rect x="849" y="92" width="43" height="8" fill="white"/>
<rect x="727.5" y="140.5" width="42" height="7" stroke="white"/>
<rect x="849" y="140" width="43" height="8" fill="#FD4B28"/>
<rect x="727" y="188" width="43" height="8" fill="#FD4B28"/>
<rect x="849.5" y="188.5" width="42" height="7" stroke="white"/>
<rect x="727" y="32" width="43" height="8" fill="white"/>
<rect x="849" y="32" width="43" height="8" fill="#48E2DC"/>
<rect x="727" y="80" width="43" height="8" fill="#48E2DC"/>
<rect x="849" y="80" width="43" height="8" fill="white"/>
<rect x="727.5" y="128.5" width="42" height="7" stroke="white"/>
<rect x="849" y="128" width="43" height="8" fill="#FD4B28"/>
<rect x="727" y="176" width="43" height="8" fill="#FD4B28"/>
<rect x="849.5" y="176.5" width="42" height="7" stroke="white"/>
<rect x="727" y="56" width="43" height="8" fill="white"/>
<rect x="849" y="56" width="43" height="8" fill="#48E2DC"/>
<rect x="727" y="104" width="43" height="8" fill="#48E2DC"/>
<rect x="849" y="104" width="43" height="8" fill="white"/>
<rect x="727.5" y="152.5" width="42" height="7" stroke="white"/>
<rect x="849" y="152" width="43" height="8" fill="#FD4B28"/>
<rect x="727" y="200" width="43" height="8" fill="#FD4B28"/>
<rect x="849.5" y="200.5" width="42" height="7" stroke="white"/>
</g>
<g clip-path="url(#clip4_780_17302)">
<path d="M1331.01 8.48C1335.01 8.48 1337.13 11.64 1337.13 16.9C1337.13 22.26 1335.01 25.32 1331.01 25.32C1327.05 25.32 1324.89 22.26 1324.89 16.9C1324.89 11.72 1327.03 8.48 1331.01 8.48ZM1331.01 23.68C1333.57 23.68 1335.49 21.98 1335.49 16.9C1335.49 11.9 1333.57 10.12 1331.01 10.12C1328.51 10.12 1326.53 11.94 1326.53 16.9C1326.53 22 1328.51 23.68 1331.01 23.68ZM1347.79 25L1337.93 25L1337.93 23.36L1342.47 23.38L1342.47 10.7L1338.19 13.48L1338.21 11.6L1342.51 8.82L1344.17 8.82L1344.17 23.36L1347.79 23.36L1347.79 25Z" fill="white"/>
<path d="M1330.12 55.48C1334.12 55.48 1336.24 58.64 1336.24 63.9C1336.24 69.26 1334.12 72.32 1330.12 72.32C1326.16 72.32 1324 69.26 1324 63.9C1324 58.72 1326.14 55.48 1330.12 55.48ZM1330.12 70.68C1332.68 70.68 1334.6 68.98 1334.6 63.9C1334.6 58.9 1332.68 57.12 1330.12 57.12C1327.62 57.12 1325.64 58.94 1325.64 63.9C1325.64 69 1327.62 70.68 1330.12 70.68ZM1342.6 55.48C1346.22 55.48 1347.84 57.58 1347.84 60.38C1347.84 62.92 1346.4 64.52 1343.42 65.2C1340.62 65.86 1339.34 65.48 1339.34 70.38L1348.06 70.38L1348.06 72L1337.7 72C1337.7 71.18 1337.68 71.3 1337.68 70.38C1337.68 65.08 1339.16 64.48 1342.82 63.66C1345.78 63 1346.18 61.7 1346.18 60.06C1346.18 58.54 1345.06 57.12 1342.98 57.12C1341.08 57.12 1339.06 57.82 1338.86 59.94L1337.24 59.94C1337.38 57.46 1339.3 55.48 1342.6 55.48Z" fill="white"/>
<path d="M1330.28 102.48C1334.28 102.48 1336.4 105.64 1336.4 110.9C1336.4 116.26 1334.28 119.32 1330.28 119.32C1326.32 119.32 1324.16 116.26 1324.16 110.9C1324.16 105.72 1326.3 102.48 1330.28 102.48ZM1330.28 117.68C1332.84 117.68 1334.76 115.98 1334.76 110.9C1334.76 105.9 1332.84 104.12 1330.28 104.12C1327.78 104.12 1325.8 105.94 1325.8 110.9C1325.8 116 1327.78 117.68 1330.28 117.68ZM1344.56 109.96C1344.56 109.96 1347.86 110.3 1347.86 114.24C1347.86 117.64 1345.86 119.32 1342.54 119.32C1339.52 119.32 1337.54 117.62 1337.38 114.78L1338.98 114.78C1339.52 116.98 1340.5 117.72 1342.98 117.72C1345.16 117.72 1346.22 116.14 1346.22 113.98C1346.22 112.6 1345.16 111 1342.6 110.72L1342.6 109.28C1344.4 109.02 1345.24 108.12 1345.24 106.94C1345.24 104.94 1344.16 104.12 1342.4 104.12C1340.92 104.12 1340.16 104.82 1339.8 106.16L1338.18 106.16C1338.34 104.04 1339.84 102.48 1342.4 102.48C1345.5 102.48 1346.9 104.52 1346.9 106.54C1346.9 109.7 1344.56 109.96 1344.56 109.96Z" fill="white"/>
<path d="M1330.13 148.48C1334.13 148.48 1336.25 151.64 1336.25 156.9C1336.25 162.26 1334.13 165.32 1330.13 165.32C1326.17 165.32 1324.01 162.26 1324.01 156.9C1324.01 151.72 1326.15 148.48 1330.13 148.48ZM1330.13 163.68C1332.69 163.68 1334.61 161.98 1334.61 156.9C1334.61 151.9 1332.69 150.12 1330.13 150.12C1327.63 150.12 1325.65 151.94 1325.65 156.9C1325.65 162 1327.63 163.68 1330.13 163.68ZM1349.47 160.32L1347.17 160.32L1347.17 165L1345.53 165L1345.53 160.32L1337.69 160.32L1337.69 158.36L1344.91 148.82L1347.17 148.82L1347.17 158.68L1349.47 158.68L1349.47 160.32ZM1345.53 158.68L1345.53 150.1L1339.01 158.68L1345.53 158.68Z" fill="white"/>
<path d="M1330.31 196.48C1334.31 196.48 1336.43 199.64 1336.43 204.9C1336.43 210.26 1334.31 213.32 1330.31 213.32C1326.35 213.32 1324.19 210.26 1324.19 204.9C1324.19 199.72 1326.33 196.48 1330.31 196.48ZM1330.31 211.68C1332.87 211.68 1334.79 209.98 1334.79 204.9C1334.79 199.9 1332.87 198.12 1330.31 198.12C1327.81 198.12 1325.83 199.94 1325.83 204.9C1325.83 210 1327.81 211.68 1330.31 211.68ZM1342.99 213.32C1340.49 213.5 1337.83 211.94 1337.83 209.38L1339.55 209.38C1339.55 210.26 1340.49 211.74 1342.79 211.66C1345.09 211.6 1346.25 210.02 1346.25 207.56C1346.25 205.58 1345.07 204.2 1342.91 204.18C1340.77 204.16 1340.01 205.06 1339.83 205.94L1338.27 205.94L1338.27 196.8L1347.25 196.8L1347.25 198.44L1339.81 198.44L1339.81 203.88C1339.81 203.88 1340.49 202.66 1343.07 202.66C1345.97 202.66 1347.79 204.76 1347.79 207.56C1347.79 211.8 1345.37 213.14 1342.99 213.32Z" fill="white"/>
<rect x="1272" y="1" width="35" height="35" rx="0.875" fill="white"/>
<rect x="1273.75" y="2.75" width="31.5" height="31.5" rx="0.875" fill="black"/>
<rect x="1272" y="48" width="35" height="35" rx="0.875" fill="white"/>
<rect x="1273.75" y="49.75" width="31.5" height="31.5" rx="0.875" fill="black"/>
<rect x="1272" y="95" width="35" height="35" rx="0.875" fill="white"/>
<rect x="1273.75" y="96.75" width="31.5" height="31.5" rx="0.875" fill="black"/>
<rect x="1272" y="142" width="35" height="35" rx="0.875" fill="white"/>
<rect x="1273.75" y="143.75" width="31.5" height="31.5" rx="0.875" fill="white"/>
<rect x="1272" y="189" width="35" height="35" rx="0.875" fill="white"/>
<rect x="1273.75" y="190.75" width="31.5" height="31.5" rx="0.875" fill="black"/>
<rect x="1034.5" y="1.5" width="97" height="224" stroke="white"/>
<rect x="1156.5" y="1.5" width="97" height="224" stroke="white"/>
<rect x="1038" y="20" width="43" height="8" fill="white"/>
<rect x="1160" y="20" width="43" height="8" fill="#48E2DC"/>
<rect x="1038" y="68" width="43" height="8" fill="#FD4B28"/>
<rect x="1160.5" y="68.5" width="42" height="7" stroke="white"/>
<rect x="1038.5" y="116.5" width="42" height="7" stroke="white"/>
<rect x="1160" y="116" width="43" height="8" fill="#FD4B28"/>
<rect x="1038" y="164" width="43" height="8" fill="#48E2DC"/>
<rect x="1160" y="164" width="43" height="8" fill="white"/>
<rect x="1038" y="44" width="43" height="8" fill="white"/>
<rect x="1160" y="44" width="43" height="8" fill="#48E2DC"/>
<rect x="1038" y="92" width="43" height="8" fill="#FD4B28"/>
<rect x="1160.5" y="92.5" width="42" height="7" stroke="white"/>
<rect x="1038.5" y="140.5" width="42" height="7" stroke="white"/>
<rect x="1160" y="140" width="43" height="8" fill="#FD4B28"/>
<rect x="1038" y="188" width="43" height="8" fill="#48E2DC"/>
<rect x="1160" y="188" width="43" height="8" fill="white"/>
<rect x="1038" y="32" width="43" height="8" fill="white"/>
<rect x="1160" y="32" width="43" height="8" fill="#48E2DC"/>
<rect x="1038" y="80" width="43" height="8" fill="#FD4B28"/>
<rect x="1160.5" y="80.5" width="42" height="7" stroke="white"/>
<rect x="1038.5" y="128.5" width="42" height="7" stroke="white"/>
<rect x="1160" y="128" width="43" height="8" fill="#FD4B28"/>
<rect x="1038" y="176" width="43" height="8" fill="#48E2DC"/>
<rect x="1160" y="176" width="43" height="8" fill="white"/>
<rect x="1038" y="56" width="43" height="8" fill="white"/>
<rect x="1160" y="56" width="43" height="8" fill="#48E2DC"/>
<rect x="1038" y="104" width="43" height="8" fill="#FD4B28"/>
<rect x="1160.5" y="104.5" width="42" height="7" stroke="white"/>
<rect x="1038.5" y="152.5" width="42" height="7" stroke="white"/>
<rect x="1160" y="152" width="43" height="8" fill="#FD4B28"/>
<rect x="1038" y="200" width="43" height="8" fill="#48E2DC"/>
<rect x="1160" y="200" width="43" height="8" fill="white"/>
<rect x="1085" y="20" width="43" height="8" fill="#48E2DC"/>
<rect x="1207" y="20" width="43" height="8" fill="white"/>
<rect x="1085.5" y="68.5" width="42" height="7" stroke="white"/>
<rect x="1207" y="68" width="43" height="8" fill="#FD4B28"/>
<rect x="1085" y="116" width="43" height="8" fill="#FD4B28"/>
<rect x="1207.5" y="116.5" width="42" height="7" stroke="white"/>
<rect x="1085" y="164" width="43" height="8" fill="white"/>
<rect x="1207" y="164" width="43" height="8" fill="#48E2DC"/>
<rect x="1085" y="44" width="43" height="8" fill="#48E2DC"/>
<rect x="1207" y="44" width="43" height="8" fill="white"/>
<rect x="1085.5" y="92.5" width="42" height="7" stroke="white"/>
<rect x="1207" y="92" width="43" height="8" fill="#FD4B28"/>
<rect x="1085" y="140" width="43" height="8" fill="#FD4B28"/>
<rect x="1207.5" y="140.5" width="42" height="7" stroke="white"/>
<rect x="1085" y="188" width="43" height="8" fill="white"/>
<rect x="1207" y="188" width="43" height="8" fill="#48E2DC"/>
<rect x="1085" y="32" width="43" height="8" fill="#48E2DC"/>
<rect x="1207" y="32" width="43" height="8" fill="white"/>
<rect x="1085.5" y="80.5" width="42" height="7" stroke="white"/>
<rect x="1207" y="80" width="43" height="8" fill="#FD4B28"/>
<rect x="1085" y="128" width="43" height="8" fill="#FD4B28"/>
<rect x="1207.5" y="128.5" width="42" height="7" stroke="white"/>
<rect x="1085" y="176" width="43" height="8" fill="white"/>
<rect x="1207" y="176" width="43" height="8" fill="#48E2DC"/>
<rect x="1085" y="56" width="43" height="8" fill="#48E2DC"/>
<rect x="1207" y="56" width="43" height="8" fill="white"/>
<rect x="1085.5" y="104.5" width="42" height="7" stroke="white"/>
<rect x="1207" y="104" width="43" height="8" fill="#FD4B28"/>
<rect x="1085" y="152" width="43" height="8" fill="#FD4B28"/>
<rect x="1207.5" y="152.5" width="42" height="7" stroke="white"/>
<rect x="1085" y="200" width="43" height="8" fill="white"/>
<rect x="1207" y="200" width="43" height="8" fill="#48E2DC"/>
</g>
<g clip-path="url(#clip5_780_17302)">
<path d="M1683.01 7.48C1687.01 7.48 1689.13 10.64 1689.13 15.9C1689.13 21.26 1687.01 24.32 1683.01 24.32C1679.05 24.32 1676.89 21.26 1676.89 15.9C1676.89 10.72 1679.03 7.48 1683.01 7.48ZM1683.01 22.68C1685.57 22.68 1687.49 20.98 1687.49 15.9C1687.49 10.9 1685.57 9.12 1683.01 9.12C1680.51 9.12 1678.53 10.94 1678.53 15.9C1678.53 21 1680.51 22.68 1683.01 22.68ZM1699.79 24L1689.93 24L1689.93 22.36L1694.47 22.38L1694.47 9.7L1690.19 12.48L1690.21 10.6L1694.51 7.82L1696.17 7.82L1696.17 22.36L1699.79 22.36L1699.79 24Z" fill="white"/>
<path d="M1682.12 54.48C1686.12 54.48 1688.24 57.64 1688.24 62.9C1688.24 68.26 1686.12 71.32 1682.12 71.32C1678.16 71.32 1676 68.26 1676 62.9C1676 57.72 1678.14 54.48 1682.12 54.48ZM1682.12 69.68C1684.68 69.68 1686.6 67.98 1686.6 62.9C1686.6 57.9 1684.68 56.12 1682.12 56.12C1679.62 56.12 1677.64 57.94 1677.64 62.9C1677.64 68 1679.62 69.68 1682.12 69.68ZM1694.6 54.48C1698.22 54.48 1699.84 56.58 1699.84 59.38C1699.84 61.92 1698.4 63.52 1695.42 64.2C1692.62 64.86 1691.34 64.48 1691.34 69.38L1700.06 69.38L1700.06 71L1689.7 71C1689.7 70.18 1689.68 70.3 1689.68 69.38C1689.68 64.08 1691.16 63.48 1694.82 62.66C1697.78 62 1698.18 60.7 1698.18 59.06C1698.18 57.54 1697.06 56.12 1694.98 56.12C1693.08 56.12 1691.06 56.82 1690.86 58.94L1689.24 58.94C1689.38 56.46 1691.3 54.48 1694.6 54.48Z" fill="white"/>
<path d="M1682.28 101.48C1686.28 101.48 1688.4 104.64 1688.4 109.9C1688.4 115.26 1686.28 118.32 1682.28 118.32C1678.32 118.32 1676.16 115.26 1676.16 109.9C1676.16 104.72 1678.3 101.48 1682.28 101.48ZM1682.28 116.68C1684.84 116.68 1686.76 114.98 1686.76 109.9C1686.76 104.9 1684.84 103.12 1682.28 103.12C1679.78 103.12 1677.8 104.94 1677.8 109.9C1677.8 115 1679.78 116.68 1682.28 116.68ZM1696.56 108.96C1696.56 108.96 1699.86 109.3 1699.86 113.24C1699.86 116.64 1697.86 118.32 1694.54 118.32C1691.52 118.32 1689.54 116.62 1689.38 113.78L1690.98 113.78C1691.52 115.98 1692.5 116.72 1694.98 116.72C1697.16 116.72 1698.22 115.14 1698.22 112.98C1698.22 111.6 1697.16 110 1694.6 109.72L1694.6 108.28C1696.4 108.02 1697.24 107.12 1697.24 105.94C1697.24 103.94 1696.16 103.12 1694.4 103.12C1692.92 103.12 1692.16 103.82 1691.8 105.16L1690.18 105.16C1690.34 103.04 1691.84 101.48 1694.4 101.48C1697.5 101.48 1698.9 103.52 1698.9 105.54C1698.9 108.7 1696.56 108.96 1696.56 108.96Z" fill="white"/>
<path d="M1682.13 148.48C1686.13 148.48 1688.25 151.64 1688.25 156.9C1688.25 162.26 1686.13 165.32 1682.13 165.32C1678.17 165.32 1676.01 162.26 1676.01 156.9C1676.01 151.72 1678.15 148.48 1682.13 148.48ZM1682.13 163.68C1684.69 163.68 1686.61 161.98 1686.61 156.9C1686.61 151.9 1684.69 150.12 1682.13 150.12C1679.63 150.12 1677.65 151.94 1677.65 156.9C1677.65 162 1679.63 163.68 1682.13 163.68ZM1701.47 160.32L1699.17 160.32L1699.17 165L1697.53 165L1697.53 160.32L1689.69 160.32L1689.69 158.36L1696.91 148.82L1699.17 148.82L1699.17 158.68L1701.47 158.68L1701.47 160.32ZM1697.53 158.68L1697.53 150.1L1691.01 158.68L1697.53 158.68Z" fill="white"/>
<path d="M1682.31 196.48C1686.31 196.48 1688.43 199.64 1688.43 204.9C1688.43 210.26 1686.31 213.32 1682.31 213.32C1678.35 213.32 1676.19 210.26 1676.19 204.9C1676.19 199.72 1678.33 196.48 1682.31 196.48ZM1682.31 211.68C1684.87 211.68 1686.79 209.98 1686.79 204.9C1686.79 199.9 1684.87 198.12 1682.31 198.12C1679.81 198.12 1677.83 199.94 1677.83 204.9C1677.83 210 1679.81 211.68 1682.31 211.68ZM1694.99 213.32C1692.49 213.5 1689.83 211.94 1689.83 209.38L1691.55 209.38C1691.55 210.26 1692.49 211.74 1694.79 211.66C1697.09 211.6 1698.25 210.02 1698.25 207.56C1698.25 205.58 1697.07 204.2 1694.91 204.18C1692.77 204.16 1692.01 205.06 1691.83 205.94L1690.27 205.94L1690.27 196.8L1699.25 196.8L1699.25 198.44L1691.81 198.44L1691.81 203.88C1691.81 203.88 1692.49 202.66 1695.07 202.66C1697.97 202.66 1699.79 204.76 1699.79 207.56C1699.79 211.8 1697.37 213.14 1694.99 213.32Z" fill="white"/>
<rect x="1624" width="35" height="35.1556" rx="0.875" fill="white"/>
<rect x="1625.75" y="1.75781" width="31.5" height="31.64" rx="0.875" fill="black"/>
<rect x="1624" y="47.209" width="35" height="35.1556" rx="0.875" fill="white"/>
<rect x="1625.75" y="48.9668" width="31.5" height="31.64" rx="0.875" fill="black"/>
<rect x="1624" y="94.418" width="35" height="35.1556" rx="0.875" fill="white"/>
<rect x="1625.75" y="96.1758" width="31.5" height="31.64" rx="0.875" fill="black"/>
<rect x="1624" y="141.627" width="35" height="35.1556" rx="0.875" fill="white"/>
<rect x="1625.75" y="143.385" width="31.5" height="31.64" rx="0.875" fill="black"/>
<rect x="1624" y="188.836" width="35" height="35.1556" rx="0.875" fill="white"/>
<rect x="1625.75" y="190.594" width="31.5" height="31.64" rx="0.875" fill="white"/>
<rect x="1386.5" y="0.5" width="97" height="225" stroke="white"/>
<rect x="1508.5" y="0.5" width="97" height="225" stroke="white"/>
<rect x="1390" y="19" width="43" height="8" fill="white"/>
<rect x="1512" y="19" width="43" height="8" fill="white"/>
<rect x="1390" y="67" width="43" height="8" fill="white"/>
<rect x="1512" y="67" width="43" height="8" fill="white"/>
<rect x="1390" y="116" width="43" height="8" fill="white"/>
<rect x="1512.5" y="116.5" width="42" height="7" stroke="white"/>
<rect x="1390.5" y="164.5" width="42" height="7" stroke="white"/>
<rect x="1512" y="164" width="43" height="8" fill="white"/>
<rect x="1390" y="43" width="43" height="8" fill="white"/>
<rect x="1512" y="43" width="43" height="8" fill="white"/>
<rect x="1390" y="91" width="43" height="8" fill="white"/>
<rect x="1512" y="91" width="43" height="8" fill="white"/>
<rect x="1390" y="140" width="43" height="8" fill="white"/>
<rect x="1512.5" y="140.5" width="42" height="7" stroke="white"/>
<rect x="1390.5" y="188.5" width="42" height="7" stroke="white"/>
<rect x="1512" y="188" width="43" height="8" fill="white"/>
<rect x="1390" y="31" width="43" height="8" fill="white"/>
<rect x="1512" y="31" width="43" height="8" fill="white"/>
<rect x="1390" y="79" width="43" height="8" fill="white"/>
<rect x="1512" y="79" width="43" height="8" fill="white"/>
<rect x="1390" y="128" width="43" height="8" fill="white"/>
<rect x="1512.5" y="128.5" width="42" height="7" stroke="white"/>
<rect x="1390.5" y="176.5" width="42" height="7" stroke="white"/>
<rect x="1512" y="176" width="43" height="8" fill="white"/>
<rect x="1390" y="55" width="43" height="8" fill="white"/>
<rect x="1512" y="55" width="43" height="8" fill="white"/>
<rect x="1390" y="103" width="43" height="8" fill="white"/>
<rect x="1512" y="103" width="43" height="8" fill="white"/>
<rect x="1390" y="152" width="43" height="8" fill="white"/>
<rect x="1512.5" y="152.5" width="42" height="7" stroke="white"/>
<rect x="1390.5" y="200.5" width="42" height="7" stroke="white"/>
<rect x="1512" y="200" width="43" height="8" fill="white"/>
<rect x="1437.5" y="19.5" width="42" height="7" stroke="white"/>
<rect x="1559" y="19" width="43" height="8" fill="white"/>
<rect x="1437" y="67" width="43" height="8" fill="white"/>
<rect x="1559.5" y="67.5" width="42" height="7" stroke="white"/>
<rect x="1437" y="116" width="43" height="8" fill="white"/>
<rect x="1559" y="116" width="43" height="8" fill="white"/>
<rect x="1437" y="164" width="43" height="8" fill="white"/>
<rect x="1559" y="164" width="43" height="8" fill="white"/>
<rect x="1437.5" y="43.5" width="42" height="7" stroke="white"/>
<rect x="1559" y="43" width="43" height="8" fill="white"/>
<rect x="1437" y="91" width="43" height="8" fill="white"/>
<rect x="1559.5" y="91.5" width="42" height="7" stroke="white"/>
<rect x="1437" y="140" width="43" height="8" fill="white"/>
<rect x="1559" y="140" width="43" height="8" fill="white"/>
<rect x="1437" y="188" width="43" height="8" fill="white"/>
<rect x="1559" y="188" width="43" height="8" fill="white"/>
<rect x="1437.5" y="31.5" width="42" height="7" stroke="white"/>
<rect x="1559" y="31" width="43" height="8" fill="white"/>
<rect x="1437" y="79" width="43" height="8" fill="white"/>
<rect x="1559.5" y="79.5" width="42" height="7" stroke="white"/>
<rect x="1437" y="128" width="43" height="8" fill="white"/>
<rect x="1559" y="128" width="43" height="8" fill="white"/>
<rect x="1437" y="176" width="43" height="8" fill="white"/>
<rect x="1559" y="176" width="43" height="8" fill="white"/>
<rect x="1437.5" y="55.5" width="42" height="7" stroke="white"/>
<rect x="1559" y="55" width="43" height="8" fill="white"/>
<rect x="1437" y="103" width="43" height="8" fill="white"/>
<rect x="1559.5" y="103.5" width="42" height="7" stroke="white"/>
<rect x="1437" y="152" width="43" height="8" fill="white"/>
<rect x="1559" y="152" width="43" height="8" fill="white"/>
<rect x="1437" y="200" width="43" height="8" fill="white"/>
<rect x="1559" y="200" width="43" height="8" fill="white"/>
</g>
</g>
<defs>
<clipPath id="clip0_780_17302">
<rect width="1702" height="226" fill="white"/>
</clipPath>
<clipPath id="clip1_780_17302">
<rect width="316" height="225" fill="white" transform="translate(0 1)"/>
</clipPath>
<clipPath id="clip2_780_17302">
<rect width="316" height="225" fill="white" transform="translate(338 1)"/>
</clipPath>
<clipPath id="clip3_780_17302">
<rect width="316" height="225" fill="white" transform="translate(676 1)"/>
</clipPath>
<clipPath id="clip4_780_17302">
<rect width="316" height="225" fill="white" transform="translate(1034 1)"/>
</clipPath>
<clipPath id="clip5_780_17302">
<rect width="316" height="226" fill="white" transform="translate(1386)"/>
</clipPath>
</defs>
</svg>
