<svg width="350" height="350" viewBox="0 0 350 350" fill="none" xmlns="http://www.w3.org/2000/svg">
<g clip-path="url(#clip0_803_20253)">
<mask id="path-1-inside-1_803_20253" fill="white">
<path d="M251.49 18.4642C337.956 60.6942 373.817 165.023 331.587 251.49C289.357 337.956 185.028 373.817 98.5614 331.587C12.0949 289.357 -23.7659 185.028 18.4641 98.5616C60.694 12.0951 165.023 -23.7657 251.49 18.4642ZM123.839 279.832C181.721 308.102 251.562 284.096 279.832 226.213C308.102 168.33 284.095 98.4892 226.213 70.2194C168.33 41.9496 98.4891 65.9557 70.2193 123.839C41.9494 181.722 65.9556 251.562 123.839 279.832Z"/>
</mask>
<path d="M251.49 18.4642C337.956 60.6942 373.817 165.023 331.587 251.49C289.357 337.956 185.028 373.817 98.5614 331.587C12.0949 289.357 -23.7659 185.028 18.4641 98.5616C60.694 12.0951 165.023 -23.7657 251.49 18.4642ZM123.839 279.832C181.721 308.102 251.562 284.096 279.832 226.213C308.102 168.33 284.095 98.4892 226.213 70.2194C168.33 41.9496 98.4891 65.9557 70.2193 123.839C41.9494 181.722 65.9556 251.562 123.839 279.832Z" fill="white" stroke="black" stroke-width="2" mask="url(#path-1-inside-1_803_20253)"/>
<mask id="mask0_803_20253" style="mask-type:alpha" maskUnits="userSpaceOnUse" x="0" y="0" width="350" height="350">
<path d="M334.646 105.17C373.225 193.325 333.036 296.065 244.881 334.645C156.725 373.224 53.9856 333.035 15.4058 244.88C-23.1741 156.724 17.0151 53.9846 105.171 15.4048C193.326 -23.1751 296.066 17.0141 334.646 105.17ZM68.172 221.787C93.9984 280.801 162.775 307.705 221.788 281.878C280.802 256.052 307.706 187.276 281.879 128.262C256.053 69.2483 187.277 42.3447 128.263 68.171C69.2493 93.9974 42.3457 162.774 68.172 221.787Z" fill="white"/>
</mask>
<g mask="url(#mask0_803_20253)">
<path d="M255.571 51.9075H327.286V136.853H308.386V68.9175H274.366V136.853H255.571V51.9075ZM337.089 51.9075L397.779 51.9075V68.9175H355.464V84.0375L390.744 84.2475V101.153L355.464 101.048V119.948H397.779V136.853H337.089V51.9075ZM443.522 51.9075C461.897 51.9075 471.452 65.9775 471.452 79.3125C471.452 96.8475 458.222 106.403 444.257 106.403H423.047V136.853H404.252V51.9075H416.747H443.522ZM443.102 89.9175C449.927 89.9175 454.967 85.8225 454.967 79.3125C454.967 72.8025 449.612 68.3925 443.102 68.3925H423.047V89.9175H443.102ZM477.158 51.9075H537.848V68.9175H495.533V84.0375L530.813 84.2475V101.153L495.533 101.048V119.948L537.848 119.948V136.853H477.158V51.9075ZM598.081 92.3325C605.431 96.8475 609.526 103.463 609.526 111.023C609.526 127.718 596.401 138.428 576.031 138.428C557.236 138.428 540.646 127.193 540.646 111.023V109.343H558.391V111.023C558.286 118.583 567.946 121.733 575.191 121.628C582.856 121.628 590.941 117.008 590.731 111.128C590.416 103.988 586.741 99.9975 571.201 99.9975V85.8225C584.011 85.4025 588.946 81.0975 588.946 76.0575C588.946 70.5975 581.176 67.2375 576.031 67.2375C568.261 67.2375 561.961 71.1225 561.961 77.5275V79.2075H544.216V77.5275C544.216 61.3575 555.451 50.1225 574.246 50.1225C594.616 50.1225 607.741 60.9375 607.741 77.5275C607.741 83.5125 604.066 88.5525 598.081 92.3325ZM672.288 136.853L665.673 119.318H634.383L627.768 136.853H609.918L641.103 51.9075H660.843L690.138 136.853H672.288ZM640.263 103.673H659.793L650.028 77.8425L640.263 103.673ZM694.335 51.9075H766.05V136.853H747.15V68.9175H713.13V136.853H694.335V51.9075ZM775.854 51.9075H793.704V107.453L834.864 51.9075H852.714V136.853H834.864V80.8875L793.704 136.853H775.854V51.9075ZM920.774 102.623H939.989C936.734 126.353 919.934 138.428 899.984 138.428C877.829 138.428 859.559 123.308 859.559 94.3275C859.559 65.9775 877.829 50.1225 899.984 50.1225C920.039 50.1225 935.579 62.4075 939.569 83.5125H919.934C917.729 72.9075 909.749 67.7625 899.984 67.7625C887.489 67.7625 877.829 76.1625 877.829 94.3275C877.829 112.598 887.384 120.893 899.984 120.893C910.589 120.893 919.409 115.013 920.774 102.623ZM1000.31 136.853L993.695 119.318H962.405L955.79 136.853H937.94L969.125 51.9075H988.865L1018.16 136.853H1000.31ZM968.285 103.673H987.815L978.05 77.8425L968.285 103.673ZM1009.67 51.9075H1087.68V68.9175H1058.07V136.853H1039.28V68.9175H1009.67V51.9075ZM1129.62 86.1375C1155.03 86.1375 1163.43 97.6875 1163.43 111.968C1163.43 134.018 1143.27 136.853 1125.42 136.853H1094.44V51.9075H1113.24V86.1375H1129.62ZM1145.68 111.653V109.343C1145.68 103.778 1140.22 99.2625 1131.82 99.2625H1113.55V121.733H1131.82C1140.22 121.733 1145.68 117.218 1145.68 111.653Z" fill="black"/>
</g>
</g>
<defs>
<clipPath id="clip0_803_20253">
<rect width="350" height="350" fill="white"/>
</clipPath>
</defs>
</svg>
