<svg width="457" height="457" viewBox="0 0 457 457" fill="none" xmlns="http://www.w3.org/2000/svg">
<path d="M222.122 0.362292C226.206 0.362292 228.034 2.73149 228.034 5.89043C228.034 8.75603 226.409 10.5611 223.047 11.3283C219.888 12.0729 218.444 11.6442 218.444 17.1723H228.282V19H216.594C216.594 18.0749 216.571 18.2103 216.571 17.1723C216.571 11.1929 218.241 10.516 222.37 9.59089C225.71 8.84628 226.161 7.37964 226.161 5.52941C226.161 3.81455 224.897 2.21252 222.551 2.21252C220.407 2.21252 218.128 3.00226 217.903 5.39402H216.075C216.233 2.59611 218.399 0.362292 222.122 0.362292ZM235.938 0.362292C240.022 0.362292 241.85 2.73149 241.85 5.89043C241.85 8.75603 240.225 10.5611 236.863 11.3283C233.704 12.0729 232.26 11.6442 232.26 17.1723H242.098V19H230.41C230.41 18.0749 230.387 18.2103 230.387 17.1723C230.387 11.1929 232.057 10.516 236.186 9.59089C239.526 8.84628 239.977 7.37964 239.977 5.52941C239.977 3.81455 238.713 2.21252 236.367 2.21252C234.223 2.21252 231.944 3.00226 231.718 5.39402H229.891C230.049 2.59611 232.215 0.362292 235.938 0.362292Z" fill="white"/>
<path d="M166.434 28.5807L155.689 31.4598L155.21 29.6726L160.164 28.3688L156.461 14.5508L152.609 18.83L152.081 16.7754L155.956 12.4904L157.765 12.0056L162.01 27.8506L165.955 26.7936L166.434 28.5807ZM178.907 25.2387L168.162 28.1178L167.683 26.3306L172.636 25.0268L168.934 11.2088L165.081 15.488L164.554 13.4334L168.428 9.14836L170.237 8.66364L174.483 24.5086L178.428 23.4516L178.907 25.2387ZM181.764 5.17802C186.123 4.01003 189.356 6.8346 190.891 12.5667C192.457 18.4077 191.04 22.3614 186.681 23.5294C182.365 24.6857 179.118 21.9818 177.553 16.1407C176.04 10.4958 177.426 6.34017 181.764 5.17802ZM186.202 21.7422C188.992 20.9947 190.588 18.5815 189.104 13.0456C187.644 7.59681 185.032 6.21769 182.242 6.96521C179.518 7.6952 177.892 10.2567 179.34 15.6618C180.829 21.2196 183.478 22.4722 186.202 21.7422Z" fill="white"/>
<path d="M62.4526 72.4313C65.3405 69.5435 68.3081 69.9264 70.5418 72.1601C72.5681 74.1864 72.6957 76.6115 70.8609 79.5313C69.1537 82.2915 67.8295 83.0095 71.7384 86.9185L78.6948 79.9621L79.9872 81.2544L71.7225 89.5191C71.0683 88.865 71.1481 88.9767 70.4142 88.2427C66.1861 84.0147 66.8881 82.3553 69.1537 78.7814C70.9886 75.8936 70.2706 74.5374 68.9623 73.2291C67.7497 72.0165 65.7234 71.7772 64.0641 73.4365C62.5484 74.9522 61.4953 77.1221 63.027 78.9729L61.7346 80.2652C59.8679 78.1751 59.82 75.0639 62.4526 72.4313ZM86.3441 67.4305L84.5093 69.2654L88.2428 72.9988L86.9345 74.3072L83.201 70.5737L76.9466 76.828L75.383 75.2645L73.5323 61.8941L75.3352 60.0912L83.201 67.9571L85.0358 66.1222L86.3441 67.4305ZM81.8927 69.2654L75.048 62.4207L76.6914 74.4667L81.8927 69.2654Z" fill="white"/>
<path d="M43.4476 131.802C42.2132 134.346 39.1885 136.065 36.6873 134.621L37.6576 132.94C38.5174 133.437 40.4936 133.353 41.7129 131.061C42.9517 128.78 42.0623 126.755 39.6588 125.368C37.7242 124.251 35.7103 124.625 34.4723 126.724C33.2456 128.804 33.6962 130.054 34.4545 130.726L33.5745 132.251L24.6443 127.095L29.7099 118.321L31.3123 119.246L27.1154 126.515L32.4305 129.584C32.4305 129.584 31.6221 128.231 33.0774 125.711C34.7133 122.877 37.7918 122.284 40.5275 123.863C44.6701 126.255 44.6143 129.375 43.4476 131.802ZM34.0463 110.088C36.3027 106.18 40.586 105.891 45.7252 108.858C50.9622 111.882 52.756 115.679 50.4997 119.587C48.2658 123.457 44.0576 123.841 38.8207 120.817C33.7596 117.895 31.8012 113.977 34.0463 110.088ZM48.8973 118.662C50.3414 116.161 49.7635 113.326 44.8001 110.461C39.9149 107.64 37.0927 108.512 35.6486 111.013C34.2384 113.456 34.8997 116.417 39.7458 119.215C44.7287 122.092 47.4871 121.105 48.8973 118.662Z" fill="#48E2DC"/>
<path d="M0.362292 230.085C0.362292 225.572 3.92737 223.181 9.86166 223.181C15.9088 223.181 19.361 225.572 19.361 230.085C19.361 234.553 15.9088 236.99 9.86166 236.99C4.01763 236.99 0.362292 234.575 0.362292 230.085ZM17.5108 230.085C17.5108 227.197 15.5929 225.031 9.86166 225.031C4.2207 225.031 2.21252 227.197 2.21252 230.085C2.21252 232.906 4.26583 235.139 9.86166 235.139C15.6154 235.139 17.5108 232.906 17.5108 230.085Z" fill="white"/>
<path d="M26.2313 285.016L29.1104 295.761L27.3232 296.24L26.0193 291.287L12.2013 294.989L16.4806 298.842L14.426 299.369L10.1409 295.495L9.65622 293.686L25.5012 289.44L24.4441 285.495L26.2313 285.016ZM24.7791 278.201C25.7052 280.873 24.7819 284.227 21.9921 284.975L21.4899 283.101C22.4489 282.844 23.7872 281.387 23.0285 278.904C22.2915 276.415 20.231 275.612 17.5502 276.331C15.3925 276.909 14.2332 278.598 14.8421 280.957C15.4452 283.295 16.6479 283.861 17.6594 283.8L18.1149 285.5L8.15463 288.169L5.5325 278.383L7.31969 277.904L9.49215 286.012L15.4204 284.423C15.4204 284.423 13.8923 284.038 13.139 281.227C12.2922 278.067 14.0492 275.47 17.1005 274.653C21.7211 273.414 23.8879 275.66 24.7791 278.201Z" fill="white"/>
<path d="M85.3777 381.689C87.5156 383.54 88.3932 386.906 86.3509 388.948L84.9788 387.576C85.6808 386.874 86.1116 384.944 84.213 383.173C82.3303 381.386 80.1444 381.721 78.182 383.683C76.6024 385.263 76.4429 387.305 78.15 389.044C79.8413 390.767 81.1655 390.656 82.0112 390.097L83.2557 391.342L75.9642 398.633L68.8004 391.469L70.1087 390.161L76.044 396.096L80.3837 391.757C80.3837 391.757 78.868 392.187 76.8098 390.129C74.4963 387.816 74.7197 384.688 76.9534 382.455C80.3359 379.072 83.3354 379.934 85.3777 381.689ZM76.1225 372.434C78.2605 374.285 79.138 377.651 77.0958 379.693L75.7236 378.321C76.4257 377.619 76.8564 375.689 74.9578 373.918C73.0751 372.131 70.8893 372.466 68.9268 374.428C67.3473 376.008 67.1877 378.05 68.8949 379.789C70.5861 381.512 71.9104 381.401 72.756 380.842L74.0005 382.087L66.709 389.378L59.5452 382.214L60.8536 380.906L66.7888 386.841L71.1286 382.501C71.1286 382.501 69.6129 382.932 67.5547 380.874C65.2412 378.561 65.4646 375.433 67.6983 373.2C71.0807 369.817 74.0803 370.679 76.1225 372.434Z" fill="white"/>
<path d="M125.141 410.739L134.774 416.301L133.849 417.904L129.425 415.323L122.272 427.712L128.022 427.41L126.942 429.236L121.172 429.526L119.55 428.59L127.752 414.384L124.215 412.342L125.141 410.739ZM108.899 422.883C106.241 421.349 105.954 419.229 106.809 417.117L108.333 417.997C107.915 419.579 108.685 420.727 109.844 421.292C111.768 422.247 113.461 421.661 115.417 419.221C116.869 417.428 117.445 416.249 117.445 416.249C117.445 416.249 115.514 418.105 112.192 416.187C108.948 414.314 109.723 410.671 110.659 409.049C112.78 405.375 116.031 405.115 117.929 406.159C120.749 407.683 122.758 410.432 119.046 416.861C117.421 419.675 115.798 421.629 114.167 422.694C112.379 423.85 110.677 423.91 108.899 422.883ZM113.282 414.705C115.412 415.935 117.454 415.421 118.407 413.861C120.121 411.072 119.707 409.218 117.079 407.857C115.069 406.827 113.057 408.01 112.035 410.051C111.241 411.651 111.465 413.656 113.282 414.705Z" fill="#48E2DC"/>
<path d="M237.422 456.555C234.353 456.555 233.045 454.862 232.729 452.606L234.489 452.606C234.918 454.185 236.159 454.795 237.445 454.704C239.588 454.569 240.762 453.215 241.235 450.124C241.596 447.845 241.506 446.536 241.506 446.536C241.506 446.536 240.762 449.109 236.926 449.109C233.18 449.109 232.029 445.566 232.029 443.693C232.029 439.451 234.714 437.601 236.881 437.556C240.085 437.466 243.198 438.842 243.198 446.266C243.198 449.515 242.77 452.019 241.89 453.757C240.919 455.652 239.475 456.555 237.422 456.555ZM237.129 447.281C239.588 447.281 241.1 445.814 241.145 443.987C241.235 440.715 239.949 439.316 236.993 439.451C234.737 439.564 233.586 441.595 233.722 443.874C233.834 445.656 235.03 447.281 237.129 447.281ZM223.516 456.555C219.003 456.555 216.611 452.99 216.611 447.055C216.611 441.008 219.003 437.556 223.516 437.556C227.983 437.556 230.42 441.008 230.42 447.055C230.42 452.899 228.006 456.555 223.516 456.555ZM223.516 439.406C220.628 439.406 218.461 441.324 218.461 447.055C218.461 452.696 220.628 454.704 223.516 454.704C226.336 454.704 228.57 452.651 228.57 447.055C228.57 441.302 226.336 439.406 223.516 439.406Z" fill="white"/>
<path d="M285.636 430.336L296.381 427.457L296.86 429.245L291.907 430.548L295.609 444.366L299.462 440.087L299.989 442.142L296.114 446.427L294.306 446.912L290.06 431.067L286.115 432.124L285.636 430.336ZM277.03 451.541L276.551 449.753C280.131 443.935 279.665 436.094 278.673 432.389L278.626 432.215L280.391 431.742L280.438 431.916C281.495 435.861 281.821 443.879 279.101 449.07L288.756 446.483L289.235 448.27L277.03 451.541Z" fill="white"/>
<path d="M394.379 385.659C392.209 387.829 390.087 387.558 388.268 386.186L389.513 384.941C390.933 385.755 392.241 385.308 393.087 384.335C394.507 382.724 394.379 380.937 392.528 378.416C391.172 376.549 390.183 375.687 390.183 375.687C390.183 375.687 391.475 378.033 388.763 380.745C386.114 383.394 382.796 381.702 381.472 380.378C378.472 377.379 379.062 374.172 380.562 372.608C382.764 370.279 385.939 369.05 391.188 374.299C393.486 376.597 394.954 378.671 395.56 380.522C396.214 382.548 395.831 384.207 394.379 385.659ZM387.614 379.309C389.353 377.57 389.385 375.464 388.125 374.14C385.875 371.762 383.976 371.683 381.982 373.869C380.466 375.544 381.089 377.793 382.796 379.309C384.136 380.49 386.13 380.793 387.614 379.309ZM371.908 381.263C373.758 379.125 377.125 378.247 379.167 380.289L377.795 381.661C377.093 380.959 375.162 380.529 373.391 382.427C371.604 384.31 371.94 386.496 373.902 388.458C375.482 390.038 377.524 390.197 379.263 388.49C380.986 386.799 380.874 385.475 380.316 384.629L381.56 383.385L388.852 390.676L381.688 397.84L380.38 396.532L386.315 390.596L381.975 386.256C381.975 386.256 382.406 387.772 380.348 389.83C378.034 392.144 374.907 391.921 372.673 389.687C369.291 386.304 370.153 383.305 371.908 381.263Z" fill="white"/>
<path d="M411.099 332.123L416.661 322.489L418.263 323.415L415.683 327.839L428.072 334.992L427.77 329.242L429.595 330.322L429.886 336.091L428.95 337.713L414.743 329.511L412.701 333.048L411.099 332.123ZM414.791 346.667C413.054 347.827 410.957 347.893 408.925 346.72C405.232 344.587 405.581 340.959 407.115 338.301C409.056 334.94 412.262 333.9 415.31 335.659C416.854 336.551 417.828 337.843 418.106 339.436C418.191 339.876 418.214 340.332 418.176 340.805C419.421 340.273 420.823 340.327 422.151 341.094C423.363 341.794 424.12 342.83 424.327 344.096C424.54 345.261 424.279 346.57 423.569 347.801C422.034 350.458 419.467 351.295 417.063 349.907C415.754 349.151 414.961 348.042 414.808 346.729C414.799 346.698 414.811 346.679 414.791 346.667ZM422.005 346.898C422.705 345.687 422.985 343.712 421.226 342.697C419.057 341.444 417.638 343.361 417.198 344.123C416.273 345.725 416.425 347.402 417.988 348.305C420.157 349.557 421.577 347.641 422.005 346.898ZM408.678 339.204C407.336 341.529 407.642 343.842 409.85 345.117C410.671 345.591 413.628 346.517 415.557 343.175C416.572 341.416 416.926 338.728 414.385 337.262C411.2 335.423 409.175 338.344 408.678 339.204Z" fill="#48E2DC"/>
<path d="M456.172 228.446L454.321 228.446C449.628 223.482 441.934 221.902 438.098 221.902L437.917 221.902L437.917 220.074L438.098 220.074C442.182 220.074 450.012 221.834 454.321 225.806L454.321 215.81L456.172 215.81L456.172 228.446ZM456.555 236.346C456.555 240.859 452.99 243.251 447.056 243.251C441.009 243.251 437.556 240.859 437.556 236.346C437.556 231.879 441.009 229.442 447.056 229.442C452.9 229.442 456.555 231.856 456.555 236.346ZM439.407 236.346C439.407 239.234 441.325 241.4 447.056 241.4C452.697 241.4 454.705 239.234 454.705 236.346C454.705 233.526 452.652 231.292 447.056 231.292C441.302 231.292 439.407 233.526 439.407 236.346Z" fill="white"/>
<path d="M448.221 170.803L446.434 171.282C440.615 167.702 432.775 168.168 429.069 169.161L428.895 169.207L428.422 167.442L428.596 167.395C432.541 166.338 440.56 166.012 445.75 168.732L443.163 159.077L444.95 158.598L448.221 170.803ZM432.045 182.357C431.119 179.685 432.042 176.331 434.832 175.584L435.334 177.458C434.375 177.715 433.037 179.171 433.795 181.654C434.532 184.143 436.593 184.946 439.274 184.228C441.431 183.65 442.591 181.961 441.982 179.601C441.379 177.263 440.176 176.698 439.164 176.759L438.709 175.059L448.669 172.39L451.291 182.176L449.504 182.655L447.332 174.547L441.403 176.135C441.403 176.135 442.931 176.52 443.685 179.332C444.532 182.492 442.775 185.088 439.723 185.906C435.103 187.144 432.936 184.898 432.045 182.357Z" fill="white"/>
<path d="M384.037 62.0625C386.925 64.9504 386.542 67.918 384.308 70.1517C382.282 72.178 379.857 72.3056 376.937 70.4708C374.177 68.7636 373.459 67.4393 369.55 71.3483L376.506 78.3047L375.214 79.5971L366.949 71.3324C367.603 70.6782 367.492 70.758 368.226 70.0241C372.454 65.796 374.113 66.498 377.687 68.7636C380.575 70.5984 381.931 69.8805 383.239 68.5722C384.452 67.3596 384.691 65.3333 383.032 63.674C381.516 62.1582 379.346 61.1052 377.495 62.6369L376.203 61.3445C378.293 59.4778 381.404 59.4299 384.037 62.0625ZM394.196 72.2215C397.387 75.4125 396.557 79.6246 392.361 83.8208C388.085 88.0967 383.953 88.8466 380.762 85.6556C377.603 82.4965 378.321 78.3323 382.597 74.0563C386.729 69.924 391.021 69.0464 394.196 72.2215ZM382.07 84.3473C384.112 86.3896 387 86.5651 391.053 82.5125C395.042 78.5237 394.93 75.572 392.888 73.5298C390.893 71.5354 387.862 71.4078 383.905 75.3646C379.836 79.4332 380.076 82.3529 382.07 84.3473Z" fill="white"/>
<path d="M325.692 43.2211C322.937 41.6303 322.619 39.5187 323.454 37.3954L325.037 38.3092C324.63 39.8719 325.428 41.0621 326.626 41.6495C328.62 42.6184 330.341 42.0747 332.297 39.6345C333.76 37.8219 334.356 36.6547 334.356 36.6547C334.356 36.6547 332.405 38.4987 328.966 36.5131C325.625 34.5839 326.368 30.9489 327.316 29.3075C329.426 25.6533 332.735 25.4274 334.703 26.4856C337.61 28.0855 339.716 30.8908 336.004 37.3197C334.391 40.114 332.717 42.0657 331.067 43.1191C329.27 44.2445 327.529 44.2816 325.692 43.2211ZM330.045 35.0514C332.253 36.3262 334.346 35.815 335.287 34.2743C337.001 31.486 336.579 29.6006 333.862 28.2143C331.784 27.1192 329.741 28.3107 328.719 30.352C327.926 31.9522 328.188 33.9796 330.045 35.0514ZM347.949 34.1328C351.857 36.3891 352.145 40.6725 349.178 45.8117C346.155 51.0487 342.357 52.8425 338.449 50.5861C334.58 48.3523 334.196 44.1441 337.219 38.9072C340.141 33.8461 344.06 31.8877 347.949 34.1328ZM339.374 48.9838C341.875 50.4279 344.71 49.85 347.576 44.8866C350.396 40.0014 349.525 37.1792 347.023 35.7351C344.581 34.3249 341.62 34.9862 338.822 39.8323C335.945 44.8152 336.932 47.5735 339.374 48.9838Z" fill="#48E2DC"/>
</svg>
