<svg width="471" height="471" viewBox="0 0 471 471" fill="none" xmlns="http://www.w3.org/2000/svg">
<g clip-path="url(#clip0_803_20257)">
<mask id="path-1-inside-1_803_20257" fill="white">
<path d="M206.813 1.645C335.774 -14.0099 453.009 77.8428 468.664 206.804C484.318 335.765 392.466 452.999 263.505 468.654C134.544 484.309 17.3092 392.456 1.65425 263.495C-14.0007 134.534 77.8521 17.2999 206.813 1.645ZM255.844 405.549C349.953 394.125 416.982 308.573 405.558 214.464C394.134 120.355 308.583 53.3261 214.474 64.7502C120.365 76.1744 53.3354 161.726 64.7595 255.835C76.1836 349.944 161.735 416.973 255.844 405.549Z"/>
</mask>
<path d="M206.813 1.645C335.774 -14.0099 453.009 77.8428 468.664 206.804C484.318 335.765 392.466 452.999 263.505 468.654C134.544 484.309 17.3092 392.456 1.65425 263.495C-14.0007 134.534 77.8521 17.2999 206.813 1.645ZM255.844 405.549C349.953 394.125 416.982 308.573 405.558 214.464C394.134 120.355 308.583 53.3261 214.474 64.7502C120.365 76.1744 53.3354 161.726 64.7595 255.835C76.1836 349.944 161.735 416.973 255.844 405.549Z" fill="white" stroke="black" stroke-width="2" mask="url(#path-1-inside-1_803_20257)"/>
<mask id="mask0_803_20257" style="mask-type:alpha" maskUnits="userSpaceOnUse" x="-1" y="-2" width="472" height="472">
<path d="M174.204 6.87903C299.685 -26.7436 428.664 47.7226 462.287 173.204C495.909 298.685 421.443 427.664 295.962 461.287C170.48 494.91 41.5013 420.443 7.8787 294.962C-25.7439 169.481 48.7223 40.5016 174.204 6.87903ZM279.509 399.884C371.079 375.348 425.42 281.226 400.884 189.657C376.348 98.087 282.226 43.7455 190.656 68.2815C99.0867 92.8175 44.7452 186.94 69.2812 278.509C93.8172 370.079 187.939 424.42 279.509 399.884Z" fill="white"/>
</mask>
<g mask="url(#mask0_803_20257)">
<path d="M-745.859 110.77H-674.144V195.715H-693.044V127.78H-727.064V195.715H-745.859V110.77ZM-664.341 110.77H-603.651V127.78H-645.966V142.9L-610.686 143.11V160.015L-645.966 159.91V178.81H-603.651V195.715H-664.341V110.77ZM-557.908 110.77C-539.533 110.77 -529.978 124.84 -529.978 138.175C-529.978 155.71 -543.208 165.265 -557.173 165.265H-578.383V195.715H-597.178V110.77H-584.683H-557.908ZM-558.328 148.78C-551.503 148.78 -546.463 144.685 -546.463 138.175C-546.463 131.665 -551.818 127.255 -558.328 127.255H-578.383V148.78H-558.328ZM-524.273 110.77L-463.583 110.77V127.78H-505.898V142.9L-470.618 143.11V160.015L-505.898 159.91V178.81H-463.583V195.715H-524.273V110.77ZM-403.349 151.195C-395.999 155.71 -391.904 162.325 -391.904 169.885C-391.904 186.58 -405.029 197.29 -425.399 197.29C-444.194 197.29 -460.784 186.055 -460.784 169.885V168.205H-443.039V169.885C-443.144 177.445 -433.484 180.595 -426.239 180.49C-418.574 180.49 -410.489 175.87 -410.699 169.99C-411.014 162.85 -414.689 158.86 -430.229 158.86V144.685C-417.419 144.265 -412.484 139.96 -412.484 134.92C-412.484 129.46 -420.254 126.1 -425.399 126.1C-433.169 126.1 -439.469 129.985 -439.469 136.39V138.07H-457.214V136.39C-457.214 120.22 -445.979 108.985 -427.184 108.985C-406.814 108.985 -393.689 119.8 -393.689 136.39C-393.689 142.375 -397.364 147.415 -403.349 151.195ZM-329.142 195.715L-335.757 178.18H-367.047L-373.662 195.715H-391.512L-360.327 110.77H-340.587L-311.292 195.715H-329.142ZM-361.167 162.535H-341.637L-351.402 136.705L-361.167 162.535ZM-307.095 110.77H-235.38V195.715H-254.28V127.78H-288.3V195.715H-307.095V110.77ZM-225.576 110.77H-207.726V166.315L-166.566 110.77H-148.716V195.715H-166.566V139.75L-207.726 195.715H-225.576V110.77ZM-80.6557 161.485H-61.4407C-64.6957 185.215 -81.4957 197.29 -101.446 197.29C-123.601 197.29 -141.871 182.17 -141.871 153.19C-141.871 124.84 -123.601 108.985 -101.446 108.985C-81.3907 108.985 -65.8507 121.27 -61.8607 142.375H-81.4957C-83.7007 131.77 -91.6807 126.625 -101.446 126.625C-113.941 126.625 -123.601 135.025 -123.601 153.19C-123.601 171.46 -114.046 179.755 -101.446 179.755C-90.8407 179.755 -82.0207 173.875 -80.6557 161.485ZM-1.11988 195.715L-7.73488 178.18H-39.0249L-45.6399 195.715H-63.4899L-32.3049 110.77H-12.5649L16.7301 195.715H-1.11988ZM-33.1449 162.535H-13.6149L-23.3799 136.705L-33.1449 162.535ZM8.23906 110.77L86.2541 110.77V127.78H56.6441V195.715H37.8491V127.78H8.23906V110.77ZM128.188 145C153.598 145 161.998 156.55 161.998 170.83C161.998 192.88 141.838 195.715 123.988 195.715H93.0126V110.77H111.808V145H128.188ZM144.253 170.515V168.205C144.253 162.64 138.793 158.125 130.393 158.125H112.123V180.595H130.393C138.793 180.595 144.253 176.08 144.253 170.515Z" fill="black"/>
</g>
</g>
<defs>
<clipPath id="clip0_803_20257">
<rect width="471" height="471" fill="white"/>
</clipPath>
</defs>
</svg>
