<svg width="242" height="243" viewBox="0 0 242 243" fill="none" xmlns="http://www.w3.org/2000/svg">
<g clip-path="url(#clip0_803_20260)">
<mask id="path-1-inside-1_803_20260" fill="white">
<path d="M230.16 69.8445C258.8 130.812 233.148 203.193 172.865 231.511C112.582 259.828 40.4961 233.36 11.8565 172.392C-16.783 111.424 8.86895 39.0439 69.1519 10.7261C129.435 -17.5916 201.521 8.87658 230.16 69.8445ZM58.7045 150.385C75.0519 185.186 116.199 200.294 150.608 184.13C185.018 167.966 199.66 126.652 183.312 91.8513C166.965 57.0508 125.818 41.9427 91.4087 58.1065C56.9992 74.2703 42.357 115.585 58.7045 150.385Z"/>
</mask>
<path d="M230.16 69.8445C258.8 130.812 233.148 203.193 172.865 231.511C112.582 259.828 40.4961 233.36 11.8565 172.392C-16.783 111.424 8.86895 39.0439 69.1519 10.7261C129.435 -17.5916 201.521 8.87658 230.16 69.8445ZM58.7045 150.385C75.0519 185.186 116.199 200.294 150.608 184.13C185.018 167.966 199.66 126.652 183.312 91.8513C166.965 57.0508 125.818 41.9427 91.4087 58.1065C56.9992 74.2703 42.357 115.585 58.7045 150.385Z" fill="white" stroke="black" stroke-width="2" mask="url(#path-1-inside-1_803_20260)"/>
<mask id="mask0_803_20260" style="mask-type:alpha" maskUnits="userSpaceOnUse" x="0" y="-1" width="243" height="243">
<path d="M206.789 35.2424C254.42 82.8728 254.854 159.663 207.759 206.758C160.663 253.854 83.8729 253.42 36.2425 205.789C-11.3879 158.159 -11.8218 81.3686 35.2735 34.2734C82.3687 -12.8219 159.159 -12.388 206.789 35.2424ZM72.8419 169.19C100.029 196.377 143.861 196.625 170.743 169.743C197.625 142.861 197.378 99.0292 170.19 71.8418C143.003 44.6543 99.1707 44.4067 72.2888 71.2887C45.4068 98.1706 45.6545 142.003 72.8419 169.19Z" fill="white"/>
</mask>
<g mask="url(#mask0_803_20260)">
<path d="M-859.746 -4.24774H-788.031V80.6973H-806.931V12.7623H-840.951V80.6973H-859.746V-4.24774ZM-778.228 -4.24774H-717.538V12.7623H-759.853V27.8823L-724.573 28.0923V44.9973L-759.853 44.8923V63.7923H-717.538V80.6973H-778.228V-4.24774ZM-671.795 -4.24774C-653.42 -4.24774 -643.865 9.82226 -643.865 23.1573C-643.865 40.6923 -657.095 50.2473 -671.06 50.2473H-692.27V80.6973H-711.065V-4.24774H-698.57H-671.795ZM-672.215 33.7623C-665.39 33.7623 -660.35 29.6673 -660.35 23.1573C-660.35 16.6473 -665.705 12.2373 -672.215 12.2373H-692.27V33.7623H-672.215ZM-638.159 -4.24774H-577.469V12.7623H-619.784V27.8823L-584.504 28.0923V44.9973L-619.784 44.8923V63.7923H-577.469V80.6973H-638.159V-4.24774ZM-517.236 36.1773C-509.886 40.6923 -505.791 47.3073 -505.791 54.8673C-505.791 71.5623 -518.916 82.2723 -539.286 82.2723C-558.081 82.2723 -574.671 71.0373 -574.671 54.8673V53.1873H-556.926V54.8673C-557.031 62.4273 -547.371 65.5773 -540.126 65.4723C-532.461 65.4723 -524.376 60.8523 -524.586 54.9723C-524.901 47.8323 -528.576 43.8423 -544.116 43.8423V29.6673C-531.306 29.2473 -526.371 24.9423 -526.371 19.9023C-526.371 14.4423 -534.141 11.0823 -539.286 11.0823C-547.056 11.0823 -553.356 14.9673 -553.356 21.3723V23.0523H-571.101V21.3723C-571.101 5.20226 -559.866 -6.03274 -541.071 -6.03274C-520.701 -6.03274 -507.576 4.78226 -507.576 21.3723C-507.576 27.3573 -511.251 32.3973 -517.236 36.1773ZM-443.029 80.6973L-449.644 63.1623H-480.934L-487.549 80.6973H-505.399L-474.214 -4.24774H-454.474L-425.179 80.6973H-443.029ZM-475.054 47.5173H-455.524L-465.289 21.6873L-475.054 47.5173ZM-420.982 -4.24774H-349.267V80.6973H-368.167V12.7623H-402.187V80.6973H-420.982V-4.24774ZM-339.463 -4.24774H-321.613V51.2973L-280.453 -4.24774H-262.603V80.6973H-280.453V24.7323L-321.613 80.6973H-339.463V-4.24774ZM-194.542 46.4673H-175.327C-178.582 70.1973 -195.382 82.2723 -215.332 82.2723C-237.487 82.2723 -255.757 67.1523 -255.757 38.1723C-255.757 9.82226 -237.487 -6.03274 -215.332 -6.03274C-195.277 -6.03274 -179.737 6.25226 -175.747 27.3573H-195.382C-197.587 16.7523 -205.567 11.6073 -215.332 11.6073C-227.827 11.6073 -237.487 20.0073 -237.487 38.1723C-237.487 56.4423 -227.932 64.7373 -215.332 64.7373C-204.727 64.7373 -195.907 58.8573 -194.542 46.4673ZM-115.007 80.6973L-121.622 63.1623H-152.912L-159.527 80.6973H-177.377L-146.192 -4.24774H-126.452L-97.1566 80.6973H-115.007ZM-147.032 47.5173H-127.502L-137.267 21.6873L-147.032 47.5173ZM-105.648 -4.24774H-27.6327V12.7623H-57.2427V80.6973H-76.0377V12.7623H-105.648V-4.24774ZM14.3009 29.9823C39.7109 29.9823 48.1109 41.5323 48.1109 55.8123C48.1109 77.8623 27.9509 80.6973 10.1009 80.6973H-20.8741V-4.24774H-2.0791V29.9823H14.3009ZM30.3659 55.4973V53.1873C30.3659 47.6223 24.9059 43.1073 16.5059 43.1073H-1.7641V65.5773H16.5059C24.9059 65.5773 30.3659 61.0623 30.3659 55.4973Z" fill="black"/>
</g>
</g>
<defs>
<clipPath id="clip0_803_20260">
<rect width="242" height="243" fill="white"/>
</clipPath>
</defs>
</svg>
