<svg width="707" height="451" viewBox="0 0 707 451" fill="none" xmlns="http://www.w3.org/2000/svg">
<path d="M1 430.262V20.1849L1.95924 14.4294L4.83698 9.15358L8.67395 5.3166L13.9498 2.43887L19.7053 1L684.461 2.43887L689.258 2.91849L695.013 4.83698L699.33 8.19433L702.208 12.5109L704.126 16.8275L705.085 21.6238L705.565 431.221L704.126 436.497L700.769 442.252L696.932 446.089L692.135 448.487L686.86 449.926H25.9403L17.7868 449.447L11.5517 447.528L6.75547 444.171L3.87773 439.854L1.47962 435.058L1 430.262Z" fill="black"/>
<path d="M22.1033 51.8401L56.636 21.1442L62.3915 17.7869L67.1877 16.8276H635.06L643.694 17.3073L649.449 20.185L670.073 38.4106L679.186 46.5642L683.502 50.8808L686.38 54.2382L687.819 59.9936L688.298 64.3102L689.737 291.651L705.085 302.682V427.384V432.18L704.126 436.497L701.248 441.293L697.411 445.61L691.656 448.967L687.339 449.926H593.813L576.067 360.237L574.628 354.002L571.271 349.206L565.995 344.889L560.719 342.971L557.362 342.491H150.642L144.407 343.45L139.131 345.369L135.294 349.206L131.937 353.522L130.498 357.359L112.272 449.926H20.6644L15.3885 448.967L10.1127 446.569L6.27572 443.212L3.39799 438.895L1.4795 434.099L0.999878 428.823V302.682L16.3478 291.651V65.7491V60.4733L18.7459 55.677L22.1033 51.8401Z" fill="black"/>
<path d="M151.601 434.578V448.967V449.926H237.933V434.099L235.535 426.904L231.218 422.588L225.943 419.231L220.187 417.312H172.225L165.51 418.271L160.714 420.669L155.918 424.986L153.04 429.782L151.601 434.578Z" fill="#48E2DC"/>
<path d="M309.877 434.578V448.967V449.926H396.209V434.099L393.811 426.904L389.494 422.588L384.218 419.231L378.463 417.312H330.5L323.786 418.271L318.99 420.669L314.193 424.986L311.316 429.782L309.877 434.578Z" fill="#48E2DC"/>
<path d="M468.152 434.578V448.967V449.926H554.484V434.099L552.086 426.904L547.769 422.588L542.493 419.231L536.738 417.312H488.776L482.061 418.271L477.265 420.669L472.468 424.986L469.591 429.782L468.152 434.578Z" fill="#48E2DC"/>
<path d="M16.8276 59.0343L16.348 71.0248H688.299V59.0343L685.901 54.238L683.502 50.4011L662.399 32.1754L44.6457 31.6958L19.7054 54.238L16.8276 59.0343Z" fill="white"/>
<path d="M16.3479 291.651L1 303.162V31.2162V20.6645L1.95924 14.4294L4.83698 9.15358L9.15358 4.83698L14.4294 2.43887L20.1849 1L682.543 2.43887L690.217 2.91849L696.452 5.79622L700.769 10.1128L704.126 16.3479L705.085 22.1034V303.162L689.737 292.131L688.299 64.3101L687.819 58.075L684.941 52.3196L682.063 48.9622L655.684 25.9404L649.449 20.6645L645.133 18.2664L639.857 16.8275H67.6675L62.8713 17.7868L58.5547 19.7053L20.6645 52.7992L17.7868 57.1158L16.3479 61.912V291.651Z" fill="#FD4B28"/>
<path d="M112.272 449.926H21.1441C10.0188 449.926 1 440.907 1 429.782V303.162M112.272 449.926L114.816 436.977M112.272 449.926H151.601M593.813 449.926H684.941C696.067 449.926 705.085 440.908 705.085 429.782V303.162M593.813 449.926L591.269 436.977M593.813 449.926H554.484M74.3822 436.977H114.816M114.816 436.977L130.181 358.752C132.037 349.305 140.32 342.491 149.948 342.491H556.137C565.766 342.491 574.048 349.305 575.904 358.752L591.269 436.977M46.5641 418.751L26.6589 368.988C26.5011 368.593 26.42 368.172 26.42 367.747V367.747C26.42 367.224 26.5427 366.708 26.7784 366.242L128.579 164.551M591.269 436.977H634.101M662.399 416.832L679.498 368.386C679.609 368.072 679.665 367.741 679.665 367.407V367.407C679.665 367.105 679.619 366.805 679.528 366.518L616.355 167.429M1 303.162V21.1853C1 10.044 10.044 1.01848 21.1853 1.04125L684.982 2.39778C696.092 2.42049 705.085 11.4327 705.085 22.5419V303.162M1 303.162L16.3479 291.651V164.551V63.8305M705.085 303.162L689.737 291.651V213.952L688.381 63.8305M16.3479 63.8305V63.8305C16.3479 59.5582 18.1691 55.4884 21.3548 52.6416L44.2574 32.1754M16.3479 63.8305H688.381M688.381 63.8305L688.379 63.6627C688.328 57.9675 685.868 52.5602 681.609 48.7794L662.903 32.1754M662.903 32.1754L651.334 21.9064C647.648 18.6345 642.89 16.8275 637.961 16.8275H295.968H69.1216C64.1697 16.8275 59.3913 18.6515 55.6989 21.9511L44.2574 32.1754M662.903 32.1754H44.2574M151.601 449.926V437.456C151.601 426.331 160.62 417.312 171.745 417.312H217.789C228.915 417.312 237.933 426.331 237.933 437.456V449.926M151.601 449.926H237.933M237.933 449.926H309.877M309.877 449.926V437.456C309.877 426.331 318.896 417.312 330.021 417.312H376.065C387.19 417.312 396.209 426.331 396.209 437.456V449.926M309.877 449.926H396.209M396.209 449.926H468.152M468.152 449.926V437.456C468.152 426.331 477.171 417.312 488.296 417.312H534.34C545.465 417.312 554.484 426.331 554.484 437.456V449.926M468.152 449.926H554.484" stroke="white" stroke-width="1.91849"/>
<circle cx="205.799" cy="201.003" r="84.8931" fill="black" stroke="white" stroke-width="1.91849"/>
<circle cx="498.848" cy="201.482" r="121.824" fill="black" stroke="white" stroke-width="1.91849"/>
<circle cx="22.583" cy="21.6239" r="11.9906" fill="white"/>
<circle cx="22.583" cy="429.303" r="11.9906" fill="white"/>
<circle cx="205.319" cy="201.482" r="74.821" fill="white" stroke="white" stroke-width="1.91849"/>
<circle cx="498.848" cy="201.482" r="74.821" fill="white" stroke="white" stroke-width="1.91849"/>
<circle cx="684.461" cy="429.303" r="11.9906" fill="white"/>
<circle cx="684.461" cy="21.6239" r="11.9906" fill="white"/>
<circle cx="205.319" cy="201.482" r="51.7992" fill="black" stroke="white" stroke-width="1.91849"/>
<circle cx="498.848" cy="201.482" r="51.7992" fill="black" stroke="white" stroke-width="1.91849"/>
<circle cx="633.142" cy="405.801" r="27.8181" stroke="white" stroke-width="7.67395"/>
<circle cx="74.8616" cy="405.801" r="27.8181" stroke="white" stroke-width="7.67395"/>
<circle cx="30.2568" cy="367.911" r="4.3166" fill="white"/>
<circle cx="675.828" cy="367.911" r="4.3166" fill="white"/>
<path d="M146.139 61.4512V40.4437H132.901V61.4512H130.541V38.1703H148.498V61.4512H146.139ZM161.805 37.6811C168.452 37.6811 172.769 42.3142 172.769 49.7964C172.769 58.7461 167.1 61.9116 161.805 61.9116C155.129 61.9116 150.841 57.1633 150.841 49.7964C150.841 46.0553 151.963 42.9186 154.064 40.7603C156.021 38.7746 158.754 37.6811 161.805 37.6811ZM161.805 59.5519C167.186 59.5519 170.381 56.041 170.381 49.7964C170.381 42.5445 166.006 40.0408 161.805 40.0408C157.575 40.0408 153.2 42.8035 153.2 49.7964C153.2 57.0195 157.575 59.5519 161.805 59.5519ZM188.068 40.4149H178.859V41.7387C178.859 46.6884 178.83 50.5446 178.255 55.1489C177.65 60.2137 176.528 61.4512 171.981 61.4512C171.981 61.4512 171.981 59.6382 171.981 59.2065C175.435 59.2065 175.665 58.9188 176.24 53.7101C176.471 51.6957 176.73 48.5014 176.73 44.6452V38.1703H190.341V61.4512H188.068V40.4149ZM207.16 38.1128L209.663 38.1703L198.354 61.4512L195.879 61.3936L199.562 53.9978L191.908 38.1703H194.411L200.771 51.3503L207.16 38.1128ZM218.277 50.7172C213.759 50.7172 210.075 48.8755 210.075 44.8179V38.1703H212.435V43.6668C212.435 46.9186 214.737 48.3863 218.277 48.3863C221.932 48.3863 224.09 46.9186 224.09 43.6668V38.1703H226.479V61.4512H224.09V48.8179C224.09 48.8179 222.881 50.7172 218.277 50.7172ZM246.841 40.8754L232.654 61.4512H229.604V38.1703H231.964V58.7461L246.093 38.1703H249.201V61.4512H246.841V40.8754ZM272.54 40.4437H262.785V61.4512H260.425V40.4437H250.698V38.1703H272.54V40.4437ZM283.646 48.415C288.222 48.415 290.869 51.782 290.869 54.8036C290.869 59.1778 288.538 61.4512 283.157 61.4512H274.034V38.1703H276.365V48.415H283.646ZM283.589 59.1778C286.524 59.1778 288.538 58.0554 288.538 55.1489C288.538 52.7892 286.696 50.6884 283.531 50.6884H276.365V59.1778H283.589ZM319.308 61.4512V40.4437H306.071V61.4512H303.711V38.1703H321.668V61.4512H319.308ZM334.255 38.1703C339.205 38.1703 341.881 41.7099 341.881 45.0481C341.881 48.3863 339.263 51.782 334.284 51.782H327.205V61.4512H324.816V38.1703H334.255ZM334.716 49.4222C336.989 49.4222 339.55 47.9834 339.55 45.0481C339.55 42.0553 336.96 40.5301 334.716 40.5301H327.205V49.4222H334.716ZM353.972 37.6811C360.62 37.6811 364.936 42.3142 364.936 49.7964C364.936 58.7461 359.267 61.9116 353.972 61.9116C347.296 61.9116 343.008 57.1633 343.008 49.7964C343.008 46.0553 344.13 42.9186 346.231 40.7603C348.188 38.7746 350.922 37.6811 353.972 37.6811ZM353.972 59.5519C359.354 59.5519 362.548 56.041 362.548 49.7964C362.548 42.5445 358.174 40.0408 353.972 40.0408C349.742 40.0408 345.368 42.8035 345.368 49.7964C345.368 57.0195 349.742 59.5519 353.972 59.5519ZM391.797 38.1703H394.157V61.4512H367.308V38.1703H369.668V59.2065H379.538V38.1703H381.927V59.2065H391.797V38.1703ZM411.682 40.4149H402.473V41.7387C402.473 46.6884 402.445 50.5446 401.869 55.1489C401.265 60.2137 400.143 61.4512 395.596 61.4512C395.596 61.4512 395.596 59.6382 395.596 59.2065C399.049 59.2065 399.279 58.9188 399.855 53.7101C400.085 51.6957 400.344 48.5014 400.344 44.6452V38.1703H413.956V61.4512H411.682V40.4149ZM427.321 37.6811C433.968 37.6811 438.285 42.3142 438.285 49.7964C438.285 58.7461 432.616 61.9116 427.321 61.9116C420.644 61.9116 416.357 57.1633 416.357 49.7964C416.357 46.0553 417.479 42.9186 419.58 40.7603C421.536 38.7746 424.27 37.6811 427.321 37.6811ZM427.321 59.5519C432.702 59.5519 435.896 56.041 435.896 49.7964C435.896 42.5445 431.522 40.0408 427.321 40.0408C423.09 40.0408 418.716 42.8035 418.716 49.7964C418.716 57.0195 423.09 59.5519 427.321 59.5519ZM442.987 40.4437V47.8395H454.182V50.1129L442.987 50.0553V59.2065H456.282V61.4512H440.656V38.1703H456.282V40.4437H442.987ZM481.473 49.4222C484.926 49.9402 485.847 52.7316 485.847 55.3216C485.847 59.0051 483.516 61.4512 478.134 61.4512H469.012V38.1703H477.818C481.876 38.1703 484.437 41.3358 484.437 44.7315C484.437 46.228 483.717 48.6453 481.473 49.4222ZM477.127 40.4725H471.343V48.415C473.214 48.415 475.688 48.415 477.099 48.415C480.322 48.415 482.048 47.4366 482.048 44.4725C482.048 42.1416 480.437 40.4725 477.127 40.4725ZM478.566 59.1778C481.501 59.1778 483.516 58.0554 483.516 55.1489C483.516 52.7892 481.674 50.6884 478.509 50.6884H471.343V59.1778H478.566ZM509.252 38.1703C514.201 38.1703 516.878 41.7099 516.878 45.0481C516.878 48.3863 514.259 51.782 509.281 51.782H502.201V61.4512H499.813V38.1703H509.252ZM509.712 49.4222C511.986 49.4222 514.547 47.9834 514.547 45.0481C514.547 42.0553 511.957 40.5301 509.712 40.5301H502.201V49.4222H509.712ZM532.029 38.1128L534.532 38.1703L523.223 61.4512L520.748 61.3936L524.431 53.9978L516.777 38.1703H519.28L525.64 51.3503L532.029 38.1128ZM538.34 51.0626L550.139 38.1703H553.333L544.729 47.5805L554.398 61.4512H551.549L543.117 49.3359L538.34 54.5446V61.4512H536.009V38.1703H538.34V51.0626ZM573.2 40.8754L559.013 61.4512H555.962V38.1703H558.322V58.7461L572.452 38.1703H575.56V61.4512H573.2V40.8754Z" fill="black"/>
</svg>
