<svg width="188" height="188" viewBox="0 0 188 188" fill="none" xmlns="http://www.w3.org/2000/svg">
<mask id="path-1-inside-1_732_16058" fill="white">
<path fill-rule="evenodd" clip-rule="evenodd" d="M184.11 69.9976C197.428 119.702 167.931 170.792 118.227 184.11C68.5227 197.428 17.4328 167.932 4.11457 118.227C-9.20367 68.5228 20.2931 17.4329 69.9975 4.11467C119.702 -9.20357 170.792 20.2932 184.11 69.9976ZM62.4942 19.2794C59.7896 20.0041 60.2806 22.6091 60.6317 23.9196L65.0317 40.3403C65.5493 42.2722 67.6106 42.2375 68.5765 41.9787L89.8269 36.2847C92.5315 35.56 92.6037 33.125 92.3017 31.9981L88.1606 16.5433C87.3324 13.4523 84.8715 13.2835 83.7446 13.5854L62.4942 19.2794ZM109.527 53.7822C111.845 53.161 113.028 55.2595 113.33 56.3864L117.73 72.8072C118.352 75.1254 116.253 76.3089 115.126 76.6108L66.8298 89.5518C64.5116 90.173 63.4144 88.3964 63.1556 87.4305L58.7556 71.0097C58.0309 68.3051 59.7816 67.1113 60.7475 66.8525L109.527 53.7822ZM115.836 104.373L120.106 120.311C120.408 121.438 120.336 123.873 117.631 124.598L89.6195 132.103C88.6967 132.523 86.6699 132.687 85.9452 129.982L81.5453 113.561C81.2434 112.434 81.219 110.025 83.5372 109.404L112.515 101.639C113.32 101.424 115.111 101.669 115.836 104.373Z"/>
</mask>
<path fill-rule="evenodd" clip-rule="evenodd" d="M184.11 69.9976C197.428 119.702 167.931 170.792 118.227 184.11C68.5227 197.428 17.4328 167.932 4.11457 118.227C-9.20367 68.5228 20.2931 17.4329 69.9975 4.11467C119.702 -9.20357 170.792 20.2932 184.11 69.9976ZM62.4942 19.2794C59.7896 20.0041 60.2806 22.6091 60.6317 23.9196L65.0317 40.3403C65.5493 42.2722 67.6106 42.2375 68.5765 41.9787L89.8269 36.2847C92.5315 35.56 92.6037 33.125 92.3017 31.9981L88.1606 16.5433C87.3324 13.4523 84.8715 13.2835 83.7446 13.5854L62.4942 19.2794ZM109.527 53.7822C111.845 53.161 113.028 55.2595 113.33 56.3864L117.73 72.8072C118.352 75.1254 116.253 76.3089 115.126 76.6108L66.8298 89.5518C64.5116 90.173 63.4144 88.3964 63.1556 87.4305L58.7556 71.0097C58.0309 68.3051 59.7816 67.1113 60.7475 66.8525L109.527 53.7822ZM115.836 104.373L120.106 120.311C120.408 121.438 120.336 123.873 117.631 124.598L89.6195 132.103C88.6967 132.523 86.6699 132.687 85.9452 129.982L81.5453 113.561C81.2434 112.434 81.219 110.025 83.5372 109.404L112.515 101.639C113.32 101.424 115.111 101.669 115.836 104.373Z" fill="black"/>
<path d="M58.3107 71.2811L62.7106 87.7018L63.6766 87.443L59.2766 71.0223L58.3107 71.2811ZM66.9972 90.1767L115.294 77.2358L115.035 76.2698L66.7384 89.2108L66.9972 90.1767ZM118.251 72.8197L118.213 72.6778L117.247 72.9366L117.285 73.0786L118.251 72.8197ZM91.8188 32.1275L91.8568 32.2694L92.8227 32.0106L92.7847 31.8687L91.8188 32.1275ZM89.7355 35.9437L68.4851 41.6377L68.7439 42.6036L89.9943 36.9096L89.7355 35.9437ZM65.5527 40.3529L61.1527 23.9322L60.1868 24.191L64.5867 40.6117L65.5527 40.3529ZM119.623 120.44L119.661 120.582L120.627 120.323L120.589 120.182L119.623 120.44ZM117.54 124.257L89.5281 131.762L89.7869 132.728L117.799 125.222L117.54 124.257ZM86.4662 129.995L82.0663 113.574L81.1004 113.833L85.5003 130.253L86.4662 129.995ZM60.6317 23.9196L59.6658 24.1784L60.6317 23.9196ZM65.0317 40.3403L65.9976 40.0815L65.0317 40.3403ZM68.5765 41.9787L68.3177 41.0128L68.5765 41.9787ZM89.8269 36.2847L90.0857 37.2506L89.8269 36.2847ZM92.3017 31.9981L91.3358 32.2569L92.3017 31.9981ZM88.1606 16.5433L89.1266 16.2844L88.1606 16.5433ZM113.33 56.3864L114.296 56.1276L113.33 56.3864ZM117.73 72.8072L116.764 73.066L117.73 72.8072ZM63.1556 87.4305L62.1896 87.6893L63.1556 87.4305ZM58.7556 71.0097L59.7216 70.7509L58.7556 71.0097ZM120.106 120.311L121.072 120.052L120.106 120.311ZM115.836 104.373L114.87 104.632L115.836 104.373ZM117.631 124.598L117.89 125.563L117.631 124.598ZM89.6195 132.103L89.3607 131.137L89.2807 131.159L89.2054 131.193L89.6195 132.103ZM85.9452 129.982L86.9112 129.723L85.9452 129.982ZM81.5453 113.561L80.5794 113.82L81.5453 113.561ZM83.5372 109.404L83.796 110.37L83.5372 109.404ZM112.515 101.639L112.256 100.674L112.515 101.639ZM118.486 185.076C168.724 171.615 198.537 119.977 185.076 69.7388L183.144 70.2564C196.319 119.427 167.139 169.969 117.968 183.144L118.486 185.076ZM3.14865 118.486C16.6098 168.724 68.2481 198.537 118.486 185.076L117.968 183.144C68.7974 196.32 18.2558 167.139 5.0805 117.968L3.14865 118.486ZM69.7387 3.14875C19.5008 16.6099 -10.3125 68.2482 3.14865 118.486L5.0805 117.968C-8.09481 68.7975 21.0854 18.2559 70.2563 5.0806L69.7387 3.14875ZM185.076 69.7388C171.615 19.5009 119.976 -10.3124 69.7387 3.14875L70.2563 5.0806C119.427 -8.0947 169.969 21.0855 183.144 70.2564L185.076 69.7388ZM61.5977 23.6608C61.4264 23.0214 61.2734 22.2328 61.3996 21.5658C61.4589 21.2526 61.5747 20.9971 61.7573 20.7936C61.9373 20.5928 62.2344 20.3843 62.7531 20.2454L62.2354 18.3135C61.4018 18.5369 60.746 18.9258 60.2684 19.4582C59.7933 19.9879 59.5467 20.6015 59.4345 21.1938C59.2179 22.3382 59.486 23.5073 59.6658 24.1784L61.5977 23.6608ZM65.9976 40.0815L61.5977 23.6608L59.6658 24.1784L64.0657 40.5992L65.9976 40.0815ZM68.3177 41.0128C67.9578 41.1092 67.3922 41.1572 66.911 41.0196C66.4884 40.8987 66.1505 40.6523 65.9976 40.0815L64.0657 40.5992C64.4304 41.9603 65.3821 42.6624 66.3609 42.9425C67.2813 43.2057 68.2292 43.107 68.8353 42.9446L68.3177 41.0128ZM89.568 35.3187L68.3177 41.0128L68.8353 42.9446L90.0857 37.2506L89.568 35.3187ZM91.3358 32.2569C91.4454 32.6658 91.4849 33.3356 91.2566 33.9378C91.0507 34.4813 90.6055 35.0408 89.568 35.3187L90.0857 37.2506C91.7528 36.8039 92.696 35.7835 93.1269 34.6466C93.5354 33.5684 93.4601 32.4573 93.2677 31.7392L91.3358 32.2569ZM87.1947 16.8021L91.3358 32.2569L93.2677 31.7392L89.1266 16.2844L87.1947 16.8021ZM84.0034 14.5513C84.3837 14.4494 85.0376 14.4235 85.6507 14.7023C86.2156 14.9592 86.8513 15.5205 87.1947 16.8021L89.1266 16.2844C88.6417 14.475 87.6329 13.4065 86.4785 12.8817C85.3724 12.3788 84.2324 12.4194 83.4858 12.6195L84.0034 14.5513ZM62.7531 20.2454L84.0034 14.5513L83.4858 12.6195L62.2354 18.3135L62.7531 20.2454ZM114.296 56.1276C114.111 55.4367 113.663 54.4486 112.871 53.7012C112.033 52.9109 110.809 52.4033 109.268 52.8162L109.786 54.7481C110.563 54.5399 111.09 54.771 111.499 55.1563C111.953 55.5846 112.248 56.2093 112.365 56.6453L114.296 56.1276ZM118.696 72.5484L114.296 56.1276L112.365 56.6453L116.764 73.066L118.696 72.5484ZM115.385 77.5768C116.076 77.3916 117.064 76.9438 117.811 76.1512C118.602 75.313 119.109 74.0895 118.696 72.5484L116.764 73.066C116.973 73.8431 116.742 74.3704 116.356 74.779C115.928 75.2332 115.303 75.5281 114.867 75.6449L115.385 77.5768ZM67.0886 90.5177L115.385 77.5768L114.867 75.6449L66.571 88.5859L67.0886 90.5177ZM62.1896 87.6893C62.3605 88.3268 62.7943 89.2125 63.5877 89.8607C64.4299 90.5487 65.6147 90.9126 67.0886 90.5177L66.571 88.5859C65.7267 88.8121 65.2038 88.5983 64.8531 88.3118C64.4537 87.9856 64.2095 87.5 64.1215 87.1716L62.1896 87.6893ZM57.7897 71.2685L62.1896 87.6893L64.1215 87.1716L59.7216 70.7509L57.7897 71.2685ZM60.4887 65.8866C59.8177 66.0664 58.9224 66.5483 58.2982 67.4408C57.6447 68.3751 57.3586 69.6595 57.7897 71.2685L59.7216 70.7509C59.428 69.6553 59.6548 68.9906 59.9371 68.5871C60.2485 68.1419 60.7114 67.8975 61.0064 67.8185L60.4887 65.8866ZM109.268 52.8162L60.4887 65.8866L61.0064 67.8185L109.786 54.7481L109.268 52.8162ZM121.072 120.052L116.802 104.114L114.87 104.632L119.14 120.57L121.072 120.052ZM117.89 125.563C119.557 125.117 120.501 124.096 120.931 122.959C121.34 121.881 121.265 120.77 121.072 120.052L119.14 120.57C119.25 120.979 119.289 121.648 119.061 122.251C118.855 122.794 118.41 123.354 117.373 123.632L117.89 125.563ZM89.8783 133.069L117.89 125.563L117.373 123.632L89.3607 131.137L89.8783 133.069ZM84.9793 130.241C85.41 131.848 86.2961 132.787 87.3833 133.16C88.3996 133.509 89.4068 133.299 90.0336 133.014L89.2054 131.193C88.9094 131.328 88.4418 131.409 88.0329 131.268C87.6948 131.152 87.2052 130.82 86.9112 129.723L84.9793 130.241ZM80.5794 113.82L84.9793 130.241L86.9112 129.723L82.5112 113.302L80.5794 113.82ZM83.2784 108.438C81.7373 108.851 80.9315 109.902 80.6008 111.006C80.2881 112.05 80.3943 113.129 80.5794 113.82L82.5112 113.302C82.3944 112.866 82.3374 112.178 82.5166 111.58C82.6778 111.042 83.0189 110.578 83.796 110.37L83.2784 108.438ZM112.256 100.674L83.2784 108.438L83.796 110.37L112.774 102.605L112.256 100.674ZM116.802 104.114C116.386 102.562 115.621 101.578 114.709 101.047C113.822 100.531 112.896 100.502 112.256 100.674L112.774 102.605C112.939 102.561 113.311 102.547 113.702 102.775C114.068 102.989 114.561 103.48 114.87 104.632L116.802 104.114Z" fill="white" mask="url(#path-1-inside-1_732_16058)"/>
</svg>
