<svg width="441" height="442" viewBox="0 0 441 442" fill="none" xmlns="http://www.w3.org/2000/svg">
<mask id="mask0_727_16039" style="mask-type:alpha" maskUnits="userSpaceOnUse" x="0" y="0" width="441" height="442">
<rect width="441" height="442" fill="#D9D9D9"/>
</mask>
<g mask="url(#mask0_727_16039)">
<path d="M433.596 164.316C465.114 281.945 395.308 402.854 277.679 434.372C160.049 465.891 39.1412 396.084 7.62254 278.455C-23.8961 160.826 45.9103 39.9178 163.539 8.39919C281.169 -23.1195 402.077 46.6869 433.596 164.316ZM38.1356 270.279C65.1388 371.057 168.725 430.862 269.503 403.859C370.28 376.856 430.086 273.269 403.083 172.492C376.079 71.7147 272.493 11.909 171.715 38.9122C70.9381 65.9154 11.1324 169.502 38.1356 270.279Z" fill="#FD4B28"/>
<path d="M31.4508 280.197L22.4165 282.867L23.2823 285.796L21.5813 286.299C20.9322 284.381 19.8415 283.518 18.3091 283.711L17.6444 281.462L30.6856 277.607L31.4508 280.197Z" fill="white"/>
<path d="M24.0506 242.291C24.1992 243.993 23.8809 245.333 23.0959 246.311C22.2977 247.291 21.1472 247.86 19.6442 248.017L19.4214 245.465C21.2317 245.201 22.0642 244.238 21.9191 242.576C21.854 241.83 21.6134 241.264 21.1972 240.878C20.768 240.494 20.2131 240.331 19.5324 240.391C18.878 240.448 18.3858 240.702 18.0558 241.153C17.7259 241.603 17.5964 242.235 17.6672 243.046L17.7392 243.871L15.7169 244.047L15.6501 243.282C15.5929 242.627 15.3902 242.117 15.0418 241.752C14.6922 241.374 14.236 241.209 13.6732 241.258C13.1365 241.305 12.726 241.512 12.4415 241.88C12.144 242.249 12.021 242.728 12.0724 243.317C12.1364 244.05 12.402 244.6 12.8694 244.968C13.3356 245.323 13.9363 245.482 14.6716 245.444L14.8944 247.997C13.5286 248.063 12.4099 247.712 11.5383 246.944C10.6668 246.176 10.1641 245.027 10.0305 243.495C9.90708 242.081 10.1366 240.934 10.7191 240.052C11.3004 239.157 12.1474 238.661 13.26 238.564C14.6474 238.443 15.6567 239.126 16.2877 240.614L16.327 240.611C16.6132 238.753 17.6595 237.745 19.4658 237.587C20.8009 237.471 21.8701 237.859 22.6734 238.751C23.4636 239.645 23.9227 240.825 24.0506 242.291ZM22.9603 233.199L13.5754 234.018L13.841 237.062L12.074 237.216C11.8195 235.207 10.9222 234.144 9.38219 234.028L9.17825 231.692L22.7255 230.509L22.9603 233.199Z" fill="white"/>
<path d="M23.0544 200.031C22.6546 201.691 21.9271 202.861 20.8718 203.539C19.8038 204.215 18.5322 204.388 17.057 204.06L17.6567 201.569C19.4569 201.895 20.5522 201.246 20.9427 199.624C21.118 198.896 21.0696 198.283 20.7976 197.785C20.5128 197.284 20.0383 196.953 19.374 196.793C18.7353 196.64 18.1879 196.724 17.7318 197.047C17.2758 197.369 16.9524 197.927 16.7618 198.719L16.568 199.523L14.5944 199.048L14.7743 198.301C14.9281 197.662 14.8978 197.114 14.6835 196.657C14.4722 196.188 14.092 195.887 13.5427 195.754C13.019 195.628 12.5638 195.694 12.1773 195.953C11.778 196.208 11.5091 196.623 11.3708 197.198C11.1986 197.913 11.2756 198.52 11.6018 199.017C11.9311 199.502 12.4503 199.843 13.1595 200.041L12.5599 202.532C11.2437 202.161 10.2944 201.473 9.71196 200.468C9.12955 199.463 9.01824 198.213 9.37803 196.718C9.71014 195.339 10.2924 194.323 11.1248 193.672C11.9603 193.008 12.921 192.807 14.0068 193.069C15.3608 193.395 16.1007 194.363 16.2263 195.975L16.2646 195.984C17.1264 194.313 18.4386 193.69 20.2014 194.114C21.5044 194.428 22.3949 195.135 22.873 196.237C23.3383 197.335 23.3988 198.6 23.0544 200.031ZM25.8336 188.57C25.4308 190.243 24.4899 191.429 23.011 192.127C21.5351 192.812 19.7497 192.903 17.6548 192.398C15.5599 191.894 14.0128 190.995 13.0136 189.7C12.0143 188.405 11.7161 186.921 12.119 185.248C12.5249 183.562 13.4642 182.382 14.937 181.71C16.4001 181.022 18.1855 180.931 20.2932 181.438C22.3882 181.943 23.9368 182.836 24.9391 184.118C25.9444 185.387 26.2426 186.871 25.8336 188.57ZM23.6156 188.016C24.0553 186.189 22.7295 184.903 19.6382 184.159C18.182 183.809 16.9913 183.759 16.0661 184.009C15.141 184.259 14.5661 184.851 14.3417 185.783C14.1141 186.728 14.3537 187.529 15.0606 188.186C15.7705 188.83 16.8536 189.327 18.3098 189.678C19.766 190.028 20.9567 190.078 21.8819 189.828C22.8101 189.565 23.388 188.961 23.6156 188.016Z" fill="white"/>
<path d="M49.2381 320.774C48.5407 321.17 47.7969 321.402 47.0065 321.469C46.205 321.544 45.513 321.521 44.9306 321.4C44.3413 321.267 43.6872 321.067 42.9682 320.798C42.7128 320.708 42.3284 320.558 41.8151 320.349C41.2949 320.128 40.898 319.97 40.6245 319.876C40.351 319.781 40.0246 319.688 39.6452 319.597C39.2478 319.501 38.895 319.478 38.5867 319.528C38.2672 319.585 37.9674 319.7 37.6872 319.871C37.138 320.207 36.7867 320.615 36.6332 321.094C36.4796 321.573 36.5571 322.064 36.8658 322.569C37.2224 323.151 37.7053 323.487 38.3145 323.577C38.9168 323.655 39.5969 323.47 40.3546 323.022L41.6713 325.173C40.3265 325.996 39.0695 326.296 37.9003 326.072C36.713 325.843 35.7079 325.056 34.8849 323.712C34.1442 322.501 33.9143 321.333 34.1951 320.206C34.4691 319.068 35.1272 318.18 36.1694 317.542C36.685 317.226 37.2037 317.017 37.7255 316.913C38.2294 316.805 38.7544 316.807 39.3007 316.92C39.847 317.032 40.2999 317.155 40.6594 317.29C41.0188 317.424 41.4905 317.628 42.0742 317.903C43.6492 318.664 44.8061 319.019 45.5447 318.967L42.294 313.655L44.1768 312.503L49.2381 320.774Z" fill="white"/>
<path d="M68.4686 347.311C69.7069 348.487 70.356 349.702 70.4159 350.955C70.4668 352.218 69.9814 353.406 68.9597 354.519L67.1023 352.755C68.284 351.358 68.2701 350.085 67.0604 348.936C66.5175 348.42 65.9624 348.155 65.3951 348.142C64.8188 348.138 64.2954 348.384 63.8248 348.879C63.3722 349.356 63.1717 349.872 63.2231 350.428C63.2745 350.984 63.5955 351.543 64.186 352.104L64.7861 352.674L63.3879 354.146L62.8306 353.617C62.3544 353.164 61.8648 352.916 61.3618 352.873C60.8494 352.822 60.3985 353 60.0094 353.41C59.6383 353.8 59.468 354.228 59.4985 354.692C59.5199 355.165 59.7449 355.605 60.1735 356.013C60.7069 356.519 61.2706 356.756 61.8645 356.722C62.4489 356.679 63.0041 356.4 63.5299 355.885L65.3873 357.65C64.408 358.604 63.3375 359.082 62.1758 359.084C61.0142 359.086 59.8761 358.557 58.7617 357.498C57.733 356.521 57.1449 355.509 56.9973 354.463C56.8402 353.407 57.1463 352.475 57.9155 351.665C58.8748 350.655 60.0837 350.499 61.542 351.196L61.5691 351.167C60.5529 349.586 60.6692 348.137 61.9181 346.823C62.8412 345.851 63.8993 345.434 65.0924 345.571C66.2764 345.717 67.4018 346.297 68.4686 347.311Z" fill="white"/>
<path d="M95.4816 374.972L93.4589 377.101L97.9738 381.39L95.9783 383.491L86.1455 384.941L84.1738 383.068L90.079 376.852L88.5931 375.441L90.0728 373.883L91.5587 375.295L93.5814 373.166L95.4816 374.972ZM94.8818 381.497L94.9225 381.454L91.9793 378.658L88.3683 382.458L88.3968 382.486L94.8818 381.497Z" fill="white"/>
<path d="M126.138 394.779C127.465 395.501 128.389 396.43 128.908 397.565C129.416 398.693 129.417 399.86 128.911 401.066L126.591 399.804C126.795 399.182 126.762 398.611 126.492 398.09C126.21 397.563 125.752 397.127 125.117 396.782C124.459 396.424 123.815 396.343 123.185 396.539C122.549 396.746 122.055 397.173 121.703 397.819C121.333 398.5 121.252 399.144 121.46 399.751C121.651 400.363 122.07 400.845 122.716 401.197C123.582 401.667 124.363 401.771 125.06 401.507L127.328 402.74L122.664 408.594L115.669 404.791L116.733 402.834L122.083 405.743L123.927 403.425L123.892 403.407C123.045 403.589 122.091 403.392 121.029 402.814C119.932 402.218 119.199 401.326 118.828 400.137C118.446 398.942 118.59 397.727 119.262 396.492C119.927 395.268 120.915 394.497 122.225 394.177C123.518 393.863 124.822 394.064 126.138 394.779Z" fill="white"/>
<path d="M160.827 410.554C162.603 410.982 163.8 411.932 164.418 413.405C165.02 414.888 165.104 416.591 164.668 418.513C164.106 420.959 163.127 422.669 161.73 423.644C160.593 424.438 159.213 424.639 157.591 424.249C156.314 423.941 155.361 423.381 154.732 422.567C154.091 421.751 153.809 420.818 153.886 419.769L156.396 420.373C156.388 421.358 156.915 421.978 157.975 422.233C158.907 422.458 159.696 422.296 160.342 421.749C160.971 421.211 161.429 420.348 161.715 419.16L161.677 419.151C160.679 419.87 159.542 420.076 158.264 419.769C157.012 419.467 156.045 418.768 155.363 417.672C154.681 416.575 154.505 415.343 154.834 413.977C155.157 412.635 155.895 411.644 157.05 411.003C158.188 410.372 159.447 410.222 160.827 410.554ZM160.429 412.627C159.727 412.458 159.082 412.553 158.496 412.912C157.894 413.281 157.506 413.822 157.334 414.538C157.153 415.291 157.238 415.974 157.591 416.586C157.944 417.198 158.471 417.589 159.174 417.758C159.966 417.949 160.65 417.857 161.227 417.482C161.788 417.117 162.162 416.545 162.35 415.765C162.528 415.025 162.438 414.361 162.079 413.775C161.72 413.188 161.17 412.806 160.429 412.627Z" fill="white"/>
<path d="M198.885 419.426C198.531 420.936 197.94 422.386 197.114 423.775C196.272 425.175 195.424 426.305 194.569 427.167C193.711 428.041 192.832 428.79 191.93 429.414L191.922 429.452L198.494 430.763L198.043 433.024L188.611 431.143L189.043 428.979C190.624 427.901 192.048 426.503 193.315 424.786C194.582 423.07 195.485 421.093 196.025 418.856L198.885 419.426Z" fill="white"/>
<path d="M234.466 419.537C236.055 419.496 237.378 419.83 238.434 420.539C239.491 421.261 240.036 422.279 240.07 423.593C240.091 424.42 239.886 425.148 239.455 425.777C239.025 426.419 238.439 426.894 237.698 427.202L237.699 427.261C238.975 427.807 239.628 428.684 239.659 429.892C239.688 431.022 239.264 431.913 238.387 432.566C237.51 433.22 236.329 433.565 234.845 433.603C233.374 433.641 232.197 433.356 231.314 432.747C230.431 432.152 229.976 431.296 229.947 430.18C229.916 428.972 230.517 428.056 231.75 427.433L231.748 427.374C230.993 427.13 230.39 426.705 229.941 426.099C229.479 425.506 229.238 424.803 229.217 423.988C229.182 422.636 229.654 421.565 230.633 420.778C231.612 419.991 232.889 419.577 234.466 419.537ZM234.58 421.702C233.792 421.722 233.16 421.929 232.684 422.323C232.195 422.729 231.958 423.255 231.975 423.898C231.992 424.594 232.243 425.14 232.726 425.535C233.197 425.944 233.839 426.137 234.653 426.117C235.481 426.095 236.132 425.868 236.608 425.436C237.083 425.016 237.312 424.458 237.294 423.762C237.277 423.105 237.028 422.593 236.545 422.224C236.049 421.855 235.394 421.682 234.58 421.702ZM234.741 427.987C234.058 428.005 233.523 428.183 233.138 428.521C232.739 428.873 232.547 429.318 232.561 429.857C232.575 430.395 232.782 430.817 233.185 431.122C233.587 431.441 234.136 431.591 234.832 431.573C235.529 431.555 236.076 431.377 236.475 431.038C236.861 430.713 237.047 430.281 237.033 429.742C237.019 429.204 236.811 428.769 236.408 428.437C235.993 428.12 235.437 427.969 234.741 427.987Z" fill="white"/>
<path d="M270.87 413.274C272.181 412.887 273.318 412.887 274.281 413.273C275.249 413.672 275.957 414.354 276.406 415.317L273.911 416.054C273.38 415.184 272.585 414.905 271.527 415.218C270.708 415.46 270.164 415.915 269.896 416.583C269.573 417.391 269.602 418.486 269.982 419.866L270.02 419.855C270.547 418.672 271.409 417.903 272.606 417.55C273.942 417.155 275.174 417.243 276.302 417.814C277.42 418.401 278.181 419.375 278.583 420.736C278.974 422.059 278.835 423.279 278.164 424.395C277.485 425.527 276.446 426.3 275.048 426.713C273.309 427.227 271.816 427.066 270.568 426.229C269.324 425.404 268.382 423.908 267.742 421.741C266.375 417.117 267.418 414.295 270.87 413.274ZM272.862 419.735C272.118 419.955 271.568 420.364 271.211 420.963C270.844 421.578 270.769 422.251 270.985 422.982C271.201 423.712 271.624 424.238 272.253 424.559C272.886 424.893 273.574 424.95 274.318 424.73C275.061 424.51 275.601 424.09 275.939 423.47C276.28 422.862 276.346 422.206 276.137 421.5C275.918 420.757 275.512 420.219 274.921 419.887C274.329 419.555 273.643 419.504 272.862 419.735Z" fill="white"/>
<path d="M313.595 397.305L317.644 405.811L320.402 404.498L321.165 406.1C319.372 407.041 318.69 408.253 319.12 409.736L317.002 410.744L311.157 398.466L313.595 397.305ZM304.106 401.473C305.66 400.733 307.174 400.719 308.647 401.429C310.108 402.145 311.302 403.475 312.228 405.421C313.154 407.366 313.429 409.135 313.051 410.726C312.674 412.317 311.708 413.483 310.154 414.223C308.588 414.968 307.08 414.98 305.631 414.259C304.175 413.555 302.981 412.224 302.05 410.267C301.123 408.321 300.843 406.555 301.209 404.97C301.562 403.39 302.528 402.224 304.106 401.473ZM305.071 403.546C303.375 404.354 303.21 406.193 304.576 409.064C305.22 410.416 305.931 411.373 306.707 411.935C307.484 412.496 308.305 412.571 309.171 412.159C310.049 411.741 310.521 411.05 310.586 410.088C310.64 409.131 310.345 407.976 309.701 406.624C309.057 405.271 308.347 404.314 307.571 403.753C306.782 403.197 305.949 403.128 305.071 403.546Z" fill="white"/>
<path d="M344.435 377.072L349.352 385.107L351.958 383.512L352.884 385.025C351.199 386.149 350.648 387.426 351.23 388.856L349.23 390.08L342.132 378.481L344.435 377.072ZM337.852 381.1L342.769 389.135L345.375 387.541L346.301 389.054C344.616 390.177 344.065 391.454 344.647 392.884L342.647 394.109L335.549 382.509L337.852 381.1Z" fill="white"/>
<path d="M372.418 349.632L379.247 356.121L381.351 353.907L382.637 355.128C381.301 356.65 381.099 358.025 382.032 359.256L380.416 360.957L370.558 351.59L372.418 349.632ZM369.219 352.998C369.782 353.57 370.199 354.228 370.469 354.974C370.748 355.729 370.905 356.403 370.939 356.997C370.963 357.601 370.939 358.284 370.866 359.048C370.845 359.318 370.799 359.728 370.73 360.279C370.651 360.838 370.602 361.262 370.581 361.551C370.561 361.84 370.555 362.179 370.565 362.569C370.576 362.978 370.645 363.324 370.773 363.609C370.911 363.903 371.099 364.163 371.337 364.389C371.804 364.833 372.288 365.067 372.791 365.091C373.293 365.115 373.748 364.913 374.155 364.485C374.626 363.989 374.825 363.436 374.754 362.824C374.674 362.222 374.319 361.613 373.69 360.997L375.427 359.169C376.57 360.255 377.185 361.391 377.271 362.579C377.358 363.785 376.858 364.959 375.772 366.102C374.794 367.131 373.725 367.655 372.564 367.676C371.394 367.706 370.366 367.3 369.48 366.458C369.042 366.042 368.705 365.595 368.47 365.118C368.235 364.659 368.101 364.152 368.068 363.595C368.036 363.038 368.037 362.569 368.074 362.187C368.111 361.805 368.186 361.296 368.3 360.661C368.628 358.943 368.671 357.734 368.43 357.033L364.141 361.548L362.54 360.028L369.219 352.998Z" fill="white"/>
<path d="M393.826 319.884L402.102 324.385L403.562 321.701L405.12 322.548C404.223 324.364 404.384 325.745 405.603 326.692L404.483 328.753L392.536 322.257L393.826 319.884ZM388.91 328.307C389.726 326.806 390.731 325.865 391.926 325.483C393.133 325.107 394.406 325.268 395.746 325.967L394.522 328.218C392.867 327.438 391.641 327.781 390.844 329.247C390.486 329.904 390.375 330.509 390.508 331.061C390.654 331.618 391.027 332.06 391.627 332.387C392.204 332.7 392.755 332.76 393.279 332.567C393.803 332.373 394.259 331.919 394.648 331.203L395.044 330.476L396.827 331.445L396.46 332.121C396.146 332.698 396.034 333.235 396.122 333.732C396.205 334.24 396.494 334.629 396.991 334.899C397.464 335.157 397.921 335.211 398.361 335.061C398.813 334.918 399.18 334.587 399.462 334.067C399.814 333.421 399.896 332.815 399.71 332.25C399.517 331.697 399.104 331.233 398.47 330.858L399.694 328.607C400.869 329.306 401.608 330.217 401.911 331.338C402.213 332.46 401.997 333.696 401.263 335.046C400.585 336.293 399.76 337.123 398.787 337.536C397.808 337.961 396.828 337.907 395.847 337.373C394.624 336.708 394.16 335.581 394.456 333.992L394.421 333.973C393.156 335.364 391.727 335.627 390.134 334.76C388.957 334.12 388.28 333.206 388.103 332.018C387.938 330.837 388.207 329.6 388.91 328.307Z" fill="white"/>
<path d="M409.813 283.387L418.693 286.534L419.713 283.655L421.385 284.248C420.783 286.181 421.159 287.52 422.512 288.264L421.729 290.475L408.911 285.932L409.813 283.387ZM406.194 293.596L408.962 294.577L411.043 288.707L413.774 289.675L419.1 298.066L418.192 300.63L410.111 297.765L409.426 299.697L407.402 298.98L408.086 297.048L405.319 296.067L406.194 293.596ZM412.399 291.488L412.343 291.468L410.987 295.295L415.928 297.046L415.941 297.009L412.399 291.488Z" fill="white"/>
<path d="M418.981 246.158L428.14 248.363L428.855 245.393L430.58 245.808C430.183 247.794 430.696 249.086 432.119 249.686L431.57 251.966L418.349 248.783L418.981 246.158ZM416.394 255.643C416.747 254.174 417.405 253.041 418.367 252.246C419.326 251.463 420.453 251.16 421.748 251.337L421.13 253.904C420.477 253.869 419.933 254.049 419.5 254.444C419.064 254.853 418.761 255.408 418.592 256.111C418.417 256.839 418.505 257.482 418.857 258.04C419.222 258.601 419.763 258.967 420.478 259.139C421.232 259.321 421.875 259.232 422.407 258.874C422.949 258.531 423.306 258.003 423.478 257.287C423.709 256.329 423.606 255.548 423.171 254.943L423.775 252.433L430.637 255.422L428.773 263.164L426.608 262.642L428.033 256.722L425.318 255.541L425.308 255.579C425.704 256.35 425.76 257.323 425.477 258.498C425.185 259.712 424.513 260.651 423.461 261.317C422.405 261.995 421.194 262.17 419.828 261.841C418.474 261.515 417.473 260.761 416.825 259.578C416.187 258.411 416.043 257.099 416.394 255.643Z" fill="white"/>
<path d="M419.007 208.973L428.424 208.732L428.346 205.678L430.119 205.633C430.25 207.654 431.08 208.769 432.61 208.98L432.67 211.324L419.076 211.672L419.007 208.973ZM418.975 219.316C418.929 217.49 419.537 216.088 420.8 215.11C422.076 214.144 423.699 213.622 425.669 213.546C428.177 213.455 430.082 213.959 431.385 215.056C432.446 215.949 432.998 217.229 433.041 218.897C433.075 220.211 432.78 221.276 432.157 222.094C431.534 222.925 430.706 223.439 429.673 223.636L429.607 221.055C430.56 220.807 431.022 220.138 430.995 219.048C430.97 218.089 430.61 217.369 429.914 216.887C429.232 216.419 428.28 216.2 427.058 216.231L427.059 216.27C428.012 217.048 428.506 218.093 428.539 219.407C428.572 220.694 428.147 221.809 427.265 222.751C426.382 223.694 425.238 224.183 423.832 224.219C422.453 224.254 421.305 223.797 420.387 222.848C419.482 221.912 419.012 220.735 418.975 219.316ZM421.081 219.164C421.099 219.886 421.358 220.484 421.856 220.958C422.368 221.444 422.992 221.678 423.727 221.659C424.502 221.639 425.14 221.38 425.64 220.88C426.139 220.381 426.38 219.771 426.362 219.048C426.341 218.234 426.075 217.597 425.563 217.137C425.066 216.689 424.416 216.476 423.615 216.496C422.853 216.516 422.236 216.775 421.762 217.273C421.288 217.772 421.061 218.402 421.081 219.164Z" fill="white"/>
<path d="M412.158 171.759L421.193 169.089L420.327 166.159L422.028 165.657C422.677 167.575 423.768 168.437 425.3 168.245L425.965 170.494L412.924 174.348L412.158 171.759ZM413.955 177.837C415.456 177.448 417.014 177.296 418.629 177.381C420.259 177.474 421.655 177.699 422.815 178.055C423.988 178.407 425.06 178.837 426.032 179.344L426.07 179.333L424.171 172.907L426.382 172.253L429.108 181.476L426.991 182.102C425.301 181.204 423.401 180.594 421.292 180.272C419.183 179.95 417.013 180.071 414.781 180.634L413.955 177.837Z" fill="white"/>
<path d="M399.326 137.398L407.876 133.443L406.593 130.67L408.203 129.925C409.124 131.729 410.329 132.424 411.817 132.01L412.802 134.139L400.459 139.848L399.326 137.398ZM403.291 146.673C402.623 145.23 402.406 143.883 402.638 142.632C402.881 141.376 403.6 140.472 404.792 139.92C405.543 139.573 406.293 139.472 407.041 139.618C407.801 139.759 408.469 140.108 409.046 140.667L409.1 140.642C409.095 139.254 409.641 138.307 410.738 137.799C411.764 137.325 412.75 137.361 413.698 137.907C414.645 138.453 415.431 139.4 416.054 140.747C416.672 142.083 416.877 143.276 416.668 144.328C416.472 145.375 415.867 146.132 414.853 146.601C413.756 147.109 412.677 146.92 411.617 146.035L411.563 146.06C411.639 146.85 411.488 147.572 411.109 148.224C410.748 148.884 410.198 149.384 409.459 149.726C408.231 150.294 407.061 150.285 405.95 149.699C404.839 149.113 403.953 148.104 403.291 146.673ZM405.234 145.709C405.565 146.425 406.005 146.923 406.555 147.204C407.122 147.492 407.698 147.501 408.282 147.23C408.914 146.938 409.316 146.492 409.487 145.891C409.676 145.297 409.599 144.631 409.257 143.892C408.909 143.14 408.443 142.632 407.857 142.368C407.283 142.097 406.68 142.108 406.048 142.401C405.452 142.677 405.08 143.109 404.933 143.698C404.791 144.3 404.892 144.97 405.234 145.709ZM410.94 143.07C411.226 143.69 411.602 144.11 412.065 144.33C412.546 144.556 413.031 144.556 413.52 144.33C414.009 144.103 414.314 143.745 414.435 143.255C414.567 142.76 414.487 142.196 414.195 141.564C413.903 140.932 413.522 140.5 413.053 140.268C412.601 140.043 412.131 140.043 411.642 140.269C411.153 140.495 410.836 140.859 410.692 141.36C410.565 141.868 410.647 142.438 410.94 143.07Z" fill="white"/>
<path d="M381.572 100.977L389.607 96.0602L388.013 93.4546L389.526 92.5287C390.649 94.2134 391.926 94.7645 393.356 94.1819L394.581 96.1823L382.981 103.281L381.572 100.977ZM386.49 109.581C385.777 108.415 385.482 107.317 385.606 106.286C385.741 105.248 386.216 104.388 387.03 103.705L388.388 105.924C387.685 106.662 387.621 107.502 388.197 108.444C388.643 109.172 389.224 109.579 389.939 109.666C390.803 109.768 391.852 109.457 393.088 108.732L393.067 108.699C391.788 108.496 390.822 107.862 390.171 106.797C389.444 105.609 389.21 104.397 389.469 103.16C389.747 101.927 390.491 100.94 391.701 100.199C392.878 99.4793 394.092 99.2986 395.344 99.6572C396.613 100.02 397.629 100.824 398.39 102.068C399.337 103.614 399.567 105.098 399.081 106.52C398.607 107.935 397.406 109.232 395.478 110.411C391.365 112.928 388.369 112.651 386.49 109.581ZM392.215 105.985C392.62 106.646 393.158 107.072 393.828 107.262C394.517 107.457 395.187 107.355 395.837 106.957C396.487 106.559 396.886 106.015 397.033 105.324C397.191 104.627 397.068 103.947 396.663 103.286C396.259 102.625 395.713 102.212 395.027 102.046C394.351 101.874 393.7 101.98 393.072 102.364C392.411 102.769 391.997 103.3 391.829 103.957C391.661 104.614 391.79 105.29 392.215 105.985Z" fill="white"/>
<path d="M350.609 70.8442C351.181 70.2813 351.839 69.8649 352.585 69.5949C353.34 69.3153 354.014 69.1587 354.608 69.1249C355.212 69.1002 355.895 69.1245 356.659 69.1979C356.929 69.2189 357.339 69.2642 357.89 69.3338C358.449 69.4124 358.873 69.4619 359.162 69.4824C359.451 69.5029 359.79 69.5082 360.18 69.4982C360.589 69.4878 360.935 69.4185 361.22 69.2904C361.514 69.1528 361.774 68.9649 362 68.7268C362.444 68.2601 362.678 67.7755 362.702 67.273C362.726 66.7705 362.524 66.3156 362.096 65.9084C361.6 65.4378 361.047 65.2382 360.435 65.3096C359.833 65.39 359.224 65.7448 358.608 66.3739L356.78 64.6363C357.866 63.4933 359.002 62.8787 360.19 62.7926C361.396 62.706 362.57 63.2057 363.713 64.2917C364.742 65.2691 365.266 66.3384 365.287 67.4996C365.317 68.6699 364.911 69.6979 364.069 70.5837C363.653 71.0219 363.206 71.3586 362.729 71.5938C362.27 71.8286 361.763 71.9624 361.206 71.9952C360.649 72.0281 360.18 72.0261 359.798 71.9894C359.416 71.9527 358.907 71.8774 358.272 71.7635C356.554 71.4357 355.345 71.3923 354.644 71.6333L359.159 75.923L357.639 77.5232L350.609 70.8442ZM362.349 82.4335C361.101 81.248 360.545 79.8403 360.68 78.2104C360.824 76.5897 361.639 74.9982 363.123 73.4361C364.607 71.874 366.16 70.9839 367.78 70.7659C369.401 70.5479 370.835 71.0317 372.083 72.2172C373.341 73.4118 373.892 74.815 373.738 76.4267C373.603 78.038 372.789 79.6295 371.295 81.2011C369.811 82.7632 368.263 83.6578 366.652 83.8849C365.05 84.121 363.616 83.6372 362.349 82.4335ZM363.938 80.7898C365.3 82.0839 367.076 81.5785 369.266 79.2734C370.298 78.1876 370.937 77.1815 371.183 76.2551C371.429 75.3287 371.204 74.5352 370.509 73.8746C369.804 73.2049 368.99 73.0119 368.068 73.2957C367.156 73.5886 366.183 74.2779 365.152 75.3638C364.12 76.4496 363.481 77.4557 363.235 78.3821C362.999 79.3175 363.233 80.1201 363.938 80.7898Z" fill="white"/>
<path d="M319.293 50.3593C319.699 49.6677 320.228 49.095 320.878 48.6411C321.535 48.1758 322.146 47.8499 322.711 47.6635C323.287 47.4835 323.954 47.33 324.711 47.2032C324.977 47.1536 325.385 47.0912 325.934 47.016C326.495 46.9471 326.918 46.8852 327.202 46.8303C327.486 46.7754 327.815 46.6927 328.189 46.5821C328.581 46.4662 328.898 46.3095 329.14 46.1121C329.389 45.9031 329.591 45.6543 329.748 45.3657C330.056 44.8001 330.156 44.2715 330.05 43.7799C329.943 43.2882 329.63 42.9012 329.111 42.6187C328.51 42.2923 327.924 42.2428 327.352 42.47C326.791 42.7036 326.295 43.2039 325.863 43.971L323.647 42.7659C324.4 41.3807 325.339 40.4929 326.463 40.1024C327.606 39.7066 328.87 39.8853 330.255 40.6385C331.501 41.3164 332.285 42.2135 332.605 43.3298C332.937 44.4524 332.811 45.5505 332.227 46.624C331.938 47.1549 331.594 47.5958 331.194 47.9465C330.812 48.292 330.356 48.5527 329.826 48.7285C329.297 48.9043 328.843 49.0239 328.465 49.0873C328.086 49.1507 327.576 49.2096 326.933 49.2639C325.188 49.3921 324.009 49.6631 323.395 50.077L328.866 53.0521L327.812 54.9913L319.293 50.3593ZM331.548 57.0226L336.048 48.7464L333.364 47.2871L334.211 45.7288C336.027 46.6261 337.408 46.4649 338.355 45.2452L340.416 46.3655L333.92 58.3124L331.548 57.0226Z" fill="white"/>
<path d="M279.54 32.6458C279.836 31.9007 280.272 31.2545 280.846 30.7073C281.425 30.1477 281.979 29.733 282.509 29.4631C283.052 29.1977 283.688 28.945 284.417 28.7049C284.672 28.6154 285.066 28.4919 285.598 28.3343C286.142 28.1812 286.55 28.0559 286.822 27.9586C287.095 27.8613 287.408 27.7296 287.761 27.5635C288.131 27.3896 288.42 27.1867 288.629 26.9548C288.843 26.7106 289.006 26.434 289.117 26.1249C289.335 25.5192 289.354 24.9815 289.174 24.5117C288.995 24.0419 288.627 23.7067 288.07 23.5063C287.428 23.2747 286.841 23.3146 286.309 23.626C285.791 23.9418 285.376 24.5116 285.065 25.3353L282.692 24.4802C283.226 22.9969 284.02 21.977 285.072 21.4205C286.141 20.8561 287.418 20.8411 288.901 21.3755C290.236 21.8566 291.146 22.6245 291.632 23.6794C292.13 24.7387 292.172 25.8432 291.758 26.9928C291.553 27.5614 291.28 28.0493 290.937 28.4567C290.612 28.8562 290.201 29.1829 289.704 29.4369C289.208 29.691 288.777 29.878 288.413 29.9981C288.048 30.1181 287.552 30.2537 286.925 30.4049C285.22 30.796 284.096 31.2427 283.552 31.745L289.411 33.8561L288.662 35.9328L279.54 32.6458ZM289.77 36.332C290.067 35.5869 290.502 34.9407 291.076 34.3935C291.655 33.8339 292.21 33.4191 292.74 33.1493C293.282 32.8839 293.918 32.6311 294.647 32.391C294.903 32.3016 295.296 32.1781 295.828 32.0205C296.372 31.8673 296.78 31.7421 297.053 31.6448C297.325 31.5474 297.638 31.4157 297.991 31.2497C298.361 31.0757 298.651 30.8728 298.86 30.641C299.073 30.3967 299.236 30.1201 299.347 29.8111C299.566 29.2054 299.585 28.6677 299.405 28.1978C299.225 27.728 298.857 27.3929 298.301 27.1925C297.658 26.9609 297.071 27.0008 296.54 27.3122C296.021 27.628 295.606 28.1978 295.295 29.0215L292.922 28.1664C293.457 26.683 294.25 25.6631 295.302 25.1066C296.372 24.5422 297.648 24.5272 299.131 25.0617C300.466 25.5427 301.377 26.3107 301.863 27.3656C302.361 28.4249 302.403 29.5293 301.988 30.6789C301.784 31.2475 301.51 31.7355 301.168 32.1429C300.842 32.5423 300.431 32.8691 299.935 33.1231C299.438 33.3771 299.008 33.5642 298.643 33.6842C298.279 33.8043 297.783 33.9399 297.156 34.091C295.451 34.4822 294.326 34.9289 293.782 35.4312L299.641 37.5423L298.893 39.6189L289.77 36.332Z" fill="white"/>
<path d="M240.275 24.7406C240.417 23.9514 240.715 23.2314 241.168 22.5808C241.624 21.9171 242.085 21.4002 242.55 21.0302C243.029 20.662 243.602 20.2877 244.268 19.9071C244.501 19.7685 244.862 19.5691 245.352 19.3087C245.854 19.0503 246.229 18.8462 246.477 18.6966C246.725 18.5469 247.005 18.3555 247.318 18.1224C247.646 17.8783 247.889 17.6217 248.048 17.3528C248.209 17.0709 248.313 16.7675 248.36 16.4425C248.454 15.8054 248.365 15.2747 248.095 14.8501C247.826 14.4255 247.398 14.1705 246.813 14.0849C246.137 13.986 245.57 14.142 245.111 14.553C244.666 14.9658 244.373 15.6068 244.232 16.476L241.736 16.1108C241.965 14.5507 242.539 13.3932 243.459 12.6382C244.395 11.872 245.642 11.6031 247.203 11.8313C248.607 12.0367 249.652 12.6079 250.338 13.5449C251.037 14.4837 251.298 15.5577 251.121 16.7667C251.034 17.3647 250.863 17.8975 250.609 18.3648C250.369 18.8211 250.032 19.2232 249.596 19.5711C249.16 19.9189 248.775 20.188 248.442 20.3783C248.109 20.5685 247.65 20.8002 247.066 21.0732C245.473 21.7963 244.459 22.4581 244.026 23.0586L250.189 23.9601L249.869 26.1442L240.275 24.7406ZM255.947 27.3322C254.257 27.0849 253.026 26.4667 252.255 25.4774C251.485 24.4751 251.197 23.2246 251.389 21.7257L253.925 22.0966C253.764 23.9189 254.51 24.9508 256.161 25.1923C256.902 25.3007 257.508 25.1968 257.979 24.8807C258.452 24.5515 258.738 24.0489 258.837 23.3729C258.932 22.7229 258.798 22.1854 258.435 21.7606C258.073 21.3357 257.488 21.0643 256.682 20.9464L255.863 20.8266L256.157 18.818L256.917 18.9292C257.568 19.0243 258.11 18.9444 258.546 18.6894C258.995 18.4364 259.26 18.0304 259.342 17.4713C259.42 16.9383 259.312 16.4911 259.02 16.1296C258.73 15.7551 258.292 15.5251 257.707 15.4395C256.979 15.333 256.382 15.4648 255.916 15.8349C255.463 16.2068 255.171 16.7549 255.038 17.4791L252.503 17.1083C252.753 15.7638 253.352 14.7559 254.3 14.0846C255.248 13.4133 256.482 13.1889 258.004 13.4114C259.408 13.6169 260.472 14.1045 261.196 14.8743C261.932 15.6461 262.22 16.5845 262.058 17.6895C261.857 19.0676 260.959 19.8923 259.366 20.1638L259.36 20.2028C261.103 20.9092 261.843 22.1595 261.58 23.9535C261.386 25.2796 260.762 26.2307 259.709 26.8069C258.657 27.3701 257.403 27.5452 255.947 27.3322Z" fill="white"/>
<path d="M199.511 23.6721C199.516 22.8702 199.688 22.1101 200.024 21.3918C200.36 20.6603 200.726 20.0726 201.122 19.6288C201.532 19.1846 202.032 18.7184 202.624 18.2301C202.83 18.0539 203.152 17.796 203.59 17.4562C204.042 17.1161 204.377 16.8512 204.595 16.6616C204.814 16.472 205.057 16.2358 205.326 15.9529C205.608 15.6566 205.804 15.3624 205.915 15.0704C206.025 14.7653 206.076 14.4485 206.068 14.1202C206.051 13.4766 205.874 12.9685 205.536 12.596C205.198 12.2235 204.733 12.0448 204.142 12.0599C203.459 12.0774 202.927 12.3276 202.545 12.8105C202.176 13.2931 201.996 13.9746 202.006 14.8549L199.484 14.9194C199.444 13.3433 199.813 12.1049 200.592 11.2044C201.383 10.2904 202.567 9.8133 204.143 9.773C205.562 9.73673 206.689 10.1219 207.524 10.9286C208.373 11.7349 208.813 12.7488 208.844 13.9703C208.859 14.5745 208.782 15.1285 208.61 15.6324C208.452 16.1227 208.188 16.5763 207.817 16.9932C207.447 17.4102 207.113 17.7407 206.817 17.9848C206.521 18.229 206.109 18.5353 205.579 18.9037C204.132 19.887 203.246 20.7114 202.922 21.3768L209.148 21.2176L209.204 23.4242L199.511 23.6721ZM216.183 23.2458L216.108 20.3102L209.882 20.4694L209.808 17.5732L215.735 9.59488L218.454 9.52536L218.673 18.0957L220.722 18.0433L220.777 20.1908L218.728 20.2432L218.803 23.1788L216.183 23.2458ZM211.993 18.2074L211.994 18.2665L216.053 18.1627L215.919 12.922L215.88 12.923L211.993 18.2074Z" fill="white"/>
<path d="M157.636 34.1831C157.434 33.407 157.403 32.6285 157.542 31.8475C157.677 31.054 157.879 30.3916 158.147 29.8603C158.427 29.3254 158.79 28.7454 159.235 28.1205C159.389 27.8971 159.633 27.5646 159.968 27.123C160.316 26.6777 160.571 26.3352 160.733 26.0955C160.895 25.8558 161.07 25.5645 161.256 25.2217C161.451 24.8626 161.565 24.5276 161.596 24.2169C161.624 23.8936 161.591 23.5744 161.498 23.2594C161.316 22.642 161.013 22.1972 160.59 21.9249C160.167 21.6526 159.672 21.6002 159.105 21.7678C158.45 21.9614 158 22.3409 157.756 22.9062C157.525 23.4678 157.528 24.1726 157.764 25.0205L155.345 25.7355C154.898 24.2235 154.934 22.9318 155.454 21.8604C155.982 20.7727 157.002 20.0055 158.514 19.5586C159.874 19.1564 161.063 19.2368 162.079 19.7997C163.107 20.3589 163.794 21.2244 164.141 22.3962C164.312 22.9758 164.38 23.5311 164.345 24.0621C164.319 24.5767 164.181 25.0833 163.931 25.5819C163.681 26.0805 163.445 26.486 163.222 26.7984C162.999 27.1109 162.68 27.5136 162.264 28.0065C161.121 29.3307 160.479 30.3563 160.337 31.0831L166.31 29.318L166.935 31.4348L157.636 34.1831ZM173.027 29.9427C171.578 30.371 170.268 30.3675 169.099 29.9323C167.941 29.4934 167.115 28.6688 166.621 27.4587L169.153 26.7102C169.449 27.2941 169.877 27.6746 170.436 27.8518C171.008 28.0253 171.64 28.0097 172.333 27.8049C173.052 27.5926 173.564 27.1945 173.871 26.6106C174.174 26.014 174.222 25.3629 174.013 24.6573C173.793 23.9139 173.395 23.4013 172.819 23.1196C172.251 22.8215 171.615 22.7768 170.909 22.9853C169.964 23.2646 169.338 23.744 169.032 24.4236L166.556 25.1554L165.715 17.718L173.35 15.4613L173.982 17.5971L168.142 19.3231L168.477 22.2656L168.515 22.2544C168.984 21.5264 169.799 20.9911 170.958 20.6485C172.155 20.2947 173.305 20.407 174.408 20.9854C175.523 21.5601 176.28 22.5215 176.678 23.8697C177.073 25.2053 176.92 26.4494 176.219 27.6018C175.527 28.7379 174.463 29.5182 173.027 29.9427Z" fill="white"/>
<path d="M114.886 53.5808C114.51 52.8729 114.298 52.1229 114.252 51.331C114.2 50.5277 114.242 49.8366 114.379 49.2578C114.527 48.6723 114.746 48.0239 115.034 47.3127C115.131 47.0598 115.291 46.6797 115.515 46.1723C115.75 45.6583 115.918 45.2659 116.02 44.9951C116.122 44.7244 116.224 44.4006 116.326 44.0239C116.432 43.6292 116.465 43.2771 116.423 42.9676C116.375 42.6467 116.269 42.3438 116.106 42.059C115.785 41.5009 115.387 41.1385 114.912 40.9719C114.438 40.8052 113.944 40.8692 113.432 41.1639C112.839 41.5044 112.49 41.9779 112.384 42.5844C112.289 43.1844 112.456 43.8693 112.883 44.639L110.696 45.8963C109.91 44.5293 109.646 43.2646 109.902 42.1019C110.163 40.9214 110.977 39.9382 112.343 39.1524C113.574 38.4452 114.748 38.2474 115.867 38.5591C116.997 38.8642 117.867 39.5464 118.476 40.6058C118.777 41.1297 118.972 41.654 119.061 42.1785C119.156 42.6851 119.139 43.2099 119.012 43.7529C118.884 44.2959 118.749 44.7453 118.605 45.1009C118.46 45.4566 118.243 45.9224 117.953 46.4984C117.149 48.052 116.762 49.1986 116.793 49.9384L122.193 46.8346L123.293 48.7483L114.886 53.5808ZM129.316 45.6269C127.732 46.5371 126.21 46.6698 124.748 46.025C123.291 45.3622 122.06 44.183 121.055 42.4875C119.781 40.3249 119.317 38.4096 119.661 36.7416C119.941 35.3833 120.805 34.2884 122.251 33.4568C123.39 32.8019 124.468 32.5539 125.484 32.7126C126.511 32.8648 127.357 33.3482 128.022 34.163L125.784 35.4497C125.112 34.7295 124.304 34.6411 123.358 35.1846C122.527 35.6626 122.065 36.3222 121.972 37.1634C121.885 37.9866 122.146 38.9279 122.755 39.9872L122.789 39.9676C123.019 38.7594 123.703 37.8279 124.842 37.1731C125.959 36.5314 127.141 36.3743 128.391 36.7019C129.64 37.0295 130.615 37.8027 131.315 39.0216C132.003 40.2176 132.148 41.4452 131.75 42.7043C131.357 43.9455 130.546 44.9197 129.316 45.6269ZM128.179 43.8478C128.806 43.4877 129.209 42.9757 129.388 42.312C129.572 41.6303 129.481 40.9705 129.114 40.3326C128.727 39.6606 128.196 39.2235 127.519 39.0216C126.842 38.8196 126.191 38.8987 125.564 39.2589C124.858 39.6648 124.424 40.2021 124.263 40.8707C124.106 41.5214 124.228 42.1941 124.627 42.889C125.007 43.5496 125.529 43.9696 126.193 44.1487C126.856 44.3279 127.519 44.2276 128.179 43.8478Z" fill="white"/>
<path d="M80.4348 82.3788C79.9112 81.7714 79.5396 81.0866 79.32 80.3244C79.0915 79.5525 78.9802 78.8691 78.9861 78.2742C79.0017 77.6705 79.0716 76.9899 79.1959 76.2326C79.2348 75.9645 79.3074 75.5584 79.4135 75.0141C79.5293 74.461 79.6071 74.0411 79.6468 73.7545C79.6865 73.4679 79.7144 73.1297 79.7305 72.7398C79.7473 72.3313 79.7013 71.9807 79.5925 71.688C79.4748 71.3856 79.3047 71.1136 79.0822 70.8719C78.6461 70.3983 78.1782 70.1326 77.6785 70.0748C77.1788 70.017 76.7114 70.1883 76.2765 70.5888C75.7739 71.0516 75.5378 71.5905 75.5682 72.2054C75.6083 72.8115 75.9216 73.4428 76.5083 74.0993L74.6525 75.808C73.5845 74.6482 73.0471 73.473 73.0405 72.2825C73.0345 71.0735 73.6115 69.9349 74.7714 68.867C75.8153 67.9058 76.9172 67.4538 78.0772 67.5109C79.2468 67.5592 80.2454 68.0327 81.0731 68.9316C81.4825 69.3762 81.7886 69.8445 81.9915 70.3364C82.1952 70.8097 82.2948 71.3252 82.2904 71.883C82.286 72.4407 82.2527 72.9089 82.1906 73.2876C82.1285 73.6663 82.0194 74.1685 81.8634 74.7944C81.4217 76.4871 81.2976 77.6908 81.4913 78.4055L86.0728 74.1869L87.568 75.8108L80.4348 82.3788ZM89.6104 73.9301C88.5989 72.754 87.7751 71.4229 87.139 69.9368C86.5037 68.4321 86.0899 67.0807 85.8975 65.8825C85.6963 64.6747 85.609 63.5228 85.6356 62.4266L85.6089 62.3976L80.6794 66.9365L79.1175 65.2402L86.1927 58.7256L87.6879 60.3494C87.6276 62.2624 87.9181 64.2364 88.5595 66.2713C89.2008 68.3062 90.2664 70.2006 91.7562 71.9544L89.6104 73.9301Z" fill="white"/>
<path d="M51.6207 117.189C51.0055 116.674 50.5276 116.059 50.1872 115.343C49.8364 114.618 49.6157 113.962 49.525 113.374C49.4424 112.775 49.4009 112.093 49.4006 111.325C49.3955 111.054 49.4012 110.642 49.4176 110.088C49.442 109.523 49.4506 109.096 49.4433 108.807C49.436 108.517 49.4086 108.179 49.3612 107.792C49.3115 107.386 49.2092 107.048 49.0543 106.776C48.8891 106.497 48.6771 106.256 48.4183 106.054C47.9112 105.657 47.4063 105.471 46.9038 105.495C46.4013 105.519 45.968 105.764 45.6038 106.23C45.183 106.768 45.0375 107.338 45.1673 107.94C45.3053 108.532 45.7169 109.104 46.4023 109.656L44.8485 111.644C43.6064 110.673 42.8855 109.6 42.6856 108.427C42.4836 107.234 42.8681 106.017 43.8392 104.775C44.7133 103.657 45.7272 103.033 46.8811 102.901C48.043 102.758 49.1053 103.064 50.0679 103.816C50.544 104.189 50.9221 104.601 51.2021 105.053C51.4799 105.487 51.6619 105.98 51.748 106.531C51.8342 107.082 51.8774 107.549 51.8776 107.933C51.8777 108.317 51.8517 108.83 51.7993 109.473C51.6382 111.215 51.7111 112.423 52.0183 113.097L55.8543 108.19L57.5932 109.55L51.6207 117.189ZM61.8427 104.595C60.8634 105.847 59.7643 106.656 58.5454 107.02C57.316 107.377 56.1838 107.15 55.1488 106.341C54.4967 105.831 54.065 105.21 53.8537 104.478C53.632 103.737 53.6379 102.983 53.8715 102.215L53.8249 102.179C52.5926 102.816 51.5003 102.763 50.548 102.018C49.6579 101.322 49.2395 100.428 49.293 99.3359C49.3465 98.2436 49.8305 97.1126 50.745 95.943C51.6514 94.7837 52.6201 94.0567 53.651 93.762C54.6716 93.4593 55.6219 93.6518 56.5017 94.3397C57.4539 95.0843 57.7785 96.1303 57.4755 97.4778L57.5221 97.5142C58.1904 97.0861 58.9013 96.8914 59.6548 96.9302C60.4061 96.9505 61.1026 97.2116 61.7444 97.7133C62.8105 98.5469 63.3362 99.5917 63.3215 100.848C63.3068 102.104 62.8138 103.353 61.8427 104.595ZM60.0984 103.306C60.584 102.685 60.8264 102.066 60.8257 101.448C60.8227 100.812 60.5676 100.296 60.0604 99.8991C59.5118 99.4702 58.9314 99.3166 58.3192 99.4384C57.7047 99.5417 57.1466 99.9142 56.6449 100.556C56.135 101.208 55.896 101.855 55.9278 102.497C55.9492 103.131 56.2342 103.662 56.7828 104.091C57.3003 104.496 57.8549 104.629 58.4464 104.491C59.046 104.343 59.5967 103.948 60.0984 103.306ZM55.1456 99.4337C55.5664 98.8955 55.7689 98.37 55.7529 97.8571C55.7347 97.3258 55.5133 96.8943 55.089 96.5625C54.6646 96.2307 54.2068 96.1229 53.7156 96.2392C53.214 96.3474 52.7488 96.6758 52.3199 97.2244C51.891 97.773 51.6804 98.3089 51.6883 98.832C51.694 99.3368 51.909 99.7551 52.3333 100.087C52.7577 100.419 53.2259 100.535 53.7378 100.434C54.2474 100.316 54.7167 99.9823 55.1456 99.4337Z" fill="white"/>
<path d="M30.661 159.055C29.9695 158.649 29.3968 158.121 28.9429 157.47C28.4775 156.813 28.1516 156.202 27.9653 155.637C27.7852 155.061 27.6318 154.394 27.505 153.637C27.4553 153.371 27.3929 152.963 27.3178 152.414C27.2489 151.853 27.187 151.43 27.1321 151.146C27.0772 150.862 26.9944 150.533 26.8838 150.159C26.768 149.767 26.6113 149.45 26.4138 149.208C26.2049 148.96 25.9561 148.757 25.6675 148.6C25.1019 148.292 24.5733 148.192 24.0816 148.299C23.59 148.405 23.2029 148.718 22.9205 149.238C22.5941 149.838 22.5445 150.424 22.7718 150.996C23.0053 151.557 23.5056 152.053 24.2727 152.485L23.0676 154.702C21.6825 153.948 20.7947 153.01 20.4042 151.885C20.0084 150.742 20.1871 149.479 20.9403 148.093C21.6181 146.847 22.5152 146.063 23.6316 145.743C24.7542 145.411 25.8522 145.537 26.9257 146.121C27.4567 146.41 27.8975 146.754 28.2483 147.154C28.5938 147.537 28.8544 147.992 29.0303 148.522C29.2061 149.051 29.3257 149.505 29.3891 149.883C29.4525 150.262 29.5114 150.772 29.5657 151.415C29.6938 153.16 29.9648 154.339 30.3788 154.953L33.3538 149.482L35.293 150.536L30.661 159.055ZM38.6291 145.02C37.9763 146.22 37.1726 147.025 36.2178 147.433C35.2516 147.835 34.269 147.854 33.2703 147.49L34.513 145.205C35.5043 145.444 36.2635 145.08 36.7907 144.11C37.1987 143.36 37.2612 142.653 36.9783 141.991C36.6354 141.191 35.8411 140.438 34.5955 139.731L34.5767 139.765C35.0407 140.975 34.9746 142.128 34.3783 143.224C33.713 144.448 32.7798 145.257 31.5786 145.65C30.3721 146.026 29.1456 145.875 27.899 145.198C26.687 144.539 25.9234 143.577 25.6082 142.314C25.2877 141.033 25.4759 139.752 26.1726 138.471C27.0387 136.878 28.2088 135.936 29.6827 135.646C31.1451 135.35 32.869 135.741 34.8544 136.821C39.0906 139.124 40.3488 141.857 38.6291 145.02ZM32.6526 141.86C33.0229 141.179 33.1227 140.5 32.952 139.824C32.7759 139.13 32.3532 138.601 31.6837 138.237C31.0142 137.873 30.3435 137.8 29.6717 138.018C28.9883 138.23 28.4614 138.676 28.0911 139.357C27.7208 140.038 27.6357 140.717 27.8358 141.394C28.0244 142.065 28.4419 142.576 29.0883 142.928C29.7693 143.298 30.4363 143.392 31.0894 143.208C31.7424 143.025 32.2635 142.576 32.6526 141.86Z" fill="white"/>
</g>
</svg>
