<svg width="263" height="263" viewBox="0 0 263 263" fill="none" xmlns="http://www.w3.org/2000/svg">
<mask id="mask0_727_16037" style="mask-type:alpha" maskUnits="userSpaceOnUse" x="0" y="0" width="263" height="263">
<rect width="263" height="263" fill="#D9D9D9"/>
</mask>
<g mask="url(#mask0_727_16037)">
<path d="M258.752 97.5971C277.527 167.665 235.946 239.686 165.878 258.461C95.8095 277.236 23.7883 235.654 5.0136 165.586C-13.7611 95.5182 27.8204 23.4969 97.8885 4.72224C167.957 -14.0524 239.978 27.5291 258.752 97.5971ZM36.4792 157.155C50.5975 209.845 104.756 241.114 157.446 226.995C210.136 212.877 241.405 158.718 227.287 106.028C213.169 53.3382 159.01 22.0696 106.32 36.1879C53.6296 50.3061 22.361 104.465 36.4792 157.155Z" fill="#FD4B28"/>
<path d="M26.6449 103.914L13.642 98.8171L17.6751 88.5276L30.6781 93.6244L29.6002 96.3743L18.8919 92.177L17.0145 96.9666L27.7228 101.164L26.6449 103.914ZM33.9268 85.336L32.849 88.086L22.1407 83.8886L20.7558 87.4217L18.4612 86.5222L22.3087 76.7063L24.6034 77.6057L23.2185 81.1387L33.9268 85.336Z" fill="white"/>
<path d="M223.022 191.978L233.754 200.915L226.681 209.408L215.949 200.47L217.84 198.2L226.677 205.561L229.97 201.608L221.132 194.247L223.022 191.978ZM206.372 211.97L208.262 209.701L212.891 213.556L216.434 209.302L211.805 205.447L213.695 203.177L224.426 212.115L222.536 214.385L218.328 210.88L214.785 215.133L218.994 218.638L217.104 220.908L206.372 211.97Z" fill="white"/>
<path d="M103.097 28.5517L100.214 29.3239L98.8029 24.0558C98.0762 24.5506 97.3944 24.9583 96.7575 25.279C96.1333 25.5963 95.484 25.8453 94.8096 26.026C93.5371 26.3669 92.4564 26.3292 91.5674 25.9128C90.6877 25.4802 90.0945 24.6913 89.7876 23.546L88.2789 17.9153L91.161 17.143L92.4499 21.953C92.6272 22.6147 92.9129 23.07 93.3069 23.3191C93.701 23.5681 94.2606 23.5954 94.986 23.4011C95.5204 23.2578 96.0395 23.0574 96.5433 22.7997C97.047 22.5419 97.5991 22.2099 98.1994 21.8035L96.5628 15.6956L99.4449 14.9233L103.097 28.5517ZM111.773 26.227L108.89 26.9992L105.883 15.7759L102.18 16.7681L101.536 14.3631L111.824 11.6064L112.468 14.0114L108.765 15.0036L111.773 26.227Z" fill="white"/>
<path d="M198.469 31.4617C198.024 31.1207 197.558 30.9034 197.071 30.8097C196.594 30.724 196.11 30.7556 195.618 30.9045C195.135 31.043 194.652 31.2976 194.171 31.6683C193.7 32.0469 193.243 32.526 192.799 33.1057C192.196 33.8925 191.774 34.6367 191.532 35.3385C191.308 36.0378 191.292 36.691 191.485 37.2981C191.677 37.9051 192.093 38.4545 192.735 38.9461C193.191 39.2951 193.681 39.5883 194.205 39.8257C194.74 40.0711 195.343 40.3029 196.013 40.521L194.503 42.493C193.865 42.317 193.273 42.0932 192.726 41.8216C192.178 41.55 191.609 41.1881 191.019 40.7361C189.88 39.8638 189.117 38.9093 188.728 37.8725C188.358 36.8332 188.322 35.7544 188.62 34.6359C188.927 33.5071 189.516 32.3733 190.388 31.2346C191.031 30.3961 191.731 29.7172 192.49 29.1981C193.257 28.6687 194.053 28.3168 194.876 28.1426C195.71 27.9764 196.554 27.9993 197.41 28.2115C198.277 28.4316 199.129 28.8628 199.968 29.5051C200.516 29.9254 201.009 30.4182 201.447 30.9834C201.903 31.5462 202.293 32.141 202.618 32.7676L200.394 34.0947C200.131 33.5808 199.842 33.0888 199.529 32.6188C199.226 32.1566 198.872 31.7709 198.469 31.4617ZM208.571 36.3421C209.999 37.4365 210.802 38.544 210.978 39.6647C211.173 40.783 210.858 41.8805 210.033 42.9571C209.66 43.4436 209.231 43.854 208.745 44.1881C208.267 44.5118 207.723 44.7188 207.111 44.8091C206.518 44.897 205.872 44.8291 205.173 44.6055C204.474 44.3819 203.72 43.9608 202.913 43.3423L201.904 42.5691L198.882 46.5132L196.537 44.717L205.031 33.6301L208.571 36.3421ZM206.972 38.1724L205.9 37.3517L203.378 40.6436L204.155 41.2384C204.6 41.5794 205.027 41.8158 205.435 41.9478C205.843 42.0798 206.23 42.0889 206.596 41.9753C206.963 41.8616 207.297 41.6081 207.598 41.2148C208.018 40.6661 208.177 40.1474 208.075 39.6586C207.981 39.1595 207.614 38.6641 206.972 38.1724Z" fill="white"/>
<path d="M119.315 253.406C118.104 253.144 117.115 252.81 116.349 252.404C115.568 252.008 115.028 251.511 114.731 250.913C114.418 250.325 114.354 249.604 114.539 248.75C114.649 248.24 114.832 247.793 115.089 247.408C115.346 247.023 115.662 246.731 116.039 246.533C116.403 246.331 116.816 246.241 117.279 246.261L117.299 246.165C116.86 245.977 116.48 245.728 116.16 245.418C115.84 245.109 115.619 244.714 115.496 244.234C115.373 243.753 115.389 243.156 115.543 242.443C115.723 241.614 116.081 240.945 116.618 240.434C117.14 239.933 117.812 239.605 118.633 239.449C119.451 239.306 120.376 239.346 121.409 239.569L126.513 240.674L123.559 254.324L119.315 253.406ZM120.161 247.925C119.319 247.743 118.711 247.751 118.334 247.95C117.945 248.146 117.695 248.499 117.585 249.009C117.471 249.531 117.581 249.949 117.914 250.261C118.247 250.573 118.827 250.819 119.656 250.998L121.185 251.329L121.843 248.289L120.161 247.925ZM122.339 245.995L123.109 242.439L121.216 242.03C120.35 241.842 119.709 241.877 119.293 242.134C118.874 242.403 118.604 242.818 118.483 243.379C118.408 243.723 118.42 244.039 118.518 244.327C118.603 244.613 118.808 244.864 119.135 245.081C119.462 245.299 119.931 245.474 120.542 245.606L122.339 245.995ZM105.401 248.073C105.949 248.191 106.463 248.189 106.944 248.066C107.411 247.941 107.836 247.706 108.217 247.361C108.596 247.03 108.924 246.594 109.201 246.053C109.465 245.51 109.674 244.882 109.829 244.168C110.038 243.199 110.103 242.346 110.023 241.608C109.927 240.88 109.662 240.283 109.23 239.815C108.797 239.348 108.186 239.029 107.396 238.858C106.835 238.737 106.267 238.68 105.691 238.689C105.103 238.695 104.459 238.743 103.759 238.832L104.285 236.404C104.936 236.291 105.567 236.241 106.178 236.253C106.789 236.265 107.458 236.35 108.185 236.507C109.587 236.811 110.684 237.348 111.478 238.121C112.256 238.903 112.749 239.863 112.956 241.002C113.16 242.154 113.111 243.431 112.807 244.833C112.584 245.865 112.239 246.778 111.774 247.571C111.306 248.377 110.737 249.034 110.066 249.543C109.383 250.049 108.609 250.388 107.745 250.561C106.867 250.732 105.912 250.705 104.88 250.482C104.204 250.336 103.548 250.1 102.911 249.775C102.259 249.461 101.652 249.089 101.091 248.661L102.537 246.512C102.994 246.865 103.465 247.187 103.949 247.478C104.42 247.767 104.904 247.965 105.401 248.073Z" fill="white"/>
<path d="M252.14 114.563C252.221 115.8 252.171 116.842 251.991 117.69C251.825 118.55 251.496 119.205 251.003 119.656C250.523 120.118 249.847 120.378 248.976 120.435C248.455 120.469 247.975 120.416 247.534 120.274C247.094 120.133 246.726 119.909 246.432 119.602C246.138 119.307 245.937 118.935 245.829 118.484L245.732 118.491C245.671 118.965 245.536 119.399 245.327 119.791C245.117 120.184 244.798 120.506 244.37 120.756C243.943 121.006 243.364 121.155 242.635 121.202C241.79 121.258 241.047 121.097 240.409 120.721C239.784 120.356 239.283 119.801 238.908 119.054C238.545 118.307 238.33 117.406 238.261 116.352L237.92 111.141L251.857 110.23L252.14 114.563ZM246.638 115.256C246.694 116.115 246.869 116.698 247.164 117.006C247.459 117.326 247.867 117.469 248.388 117.435C248.921 117.4 249.292 117.18 249.501 116.774C249.71 116.369 249.786 115.743 249.731 114.897L249.629 113.336L246.526 113.538L246.638 115.256ZM244.183 113.692L240.553 113.929L240.679 115.861C240.737 116.746 240.946 117.353 241.308 117.682C241.682 118.011 242.155 118.156 242.728 118.119C243.079 118.096 243.38 117.998 243.63 117.825C243.881 117.664 244.066 117.397 244.185 117.024C244.305 116.65 244.344 116.151 244.303 115.526L244.183 113.692ZM239.128 129.623L238.935 126.675L250.413 125.925L250.165 122.139L252.624 121.978L253.312 132.499L250.853 132.659L250.605 128.873L239.128 129.623Z" fill="white"/>
<path d="M28.8245 190.46C29.0659 190.966 29.3822 191.372 29.7732 191.676C30.1586 191.969 30.6042 192.161 31.1099 192.252C31.6039 192.349 32.1494 192.341 32.7464 192.23C33.3378 192.107 33.9631 191.888 34.6221 191.573C35.5166 191.146 36.231 190.675 36.7655 190.16C37.2826 189.639 37.5936 189.064 37.6985 188.436C37.8034 187.808 37.6818 187.13 37.3336 186.4C37.0865 185.882 36.7834 185.398 36.4242 184.948C36.0594 184.487 35.6279 184.006 35.1297 183.507L37.3717 182.437C37.8592 182.884 38.2851 183.352 38.6494 183.843C39.0136 184.334 39.3558 184.915 39.6759 185.586C40.2936 186.88 40.5398 188.078 40.4145 189.178C40.2719 190.272 39.8135 191.249 39.0393 192.11C38.2534 192.976 37.2132 193.718 35.9185 194.336C34.9652 194.79 34.0325 195.077 33.1205 195.194C32.1966 195.317 31.3284 195.269 30.5159 195.05C29.6977 194.819 28.9557 194.414 28.2897 193.836C27.6182 193.246 27.055 192.475 26.6001 191.521C26.3025 190.898 26.0872 190.235 25.9543 189.532C25.8041 188.824 25.7267 188.116 25.7223 187.411L28.3064 187.24C28.3074 187.817 28.3407 188.386 28.4062 188.947C28.466 189.497 28.6054 190.001 28.8245 190.46ZM36.5703 179.531L23.9655 185.546L20.1665 177.584L22.3733 176.531L24.9003 181.827L27.5307 180.572L27.0253 179.513C26.4581 178.324 26.1596 177.275 26.1298 176.364C26.0943 175.442 26.2778 174.661 26.6804 174.021C27.083 173.381 27.6551 172.884 28.3965 172.53C29.2204 172.137 30.0136 171.982 30.7761 172.066C31.5387 172.151 32.2613 172.499 32.9441 173.113C33.6151 173.732 34.2398 174.647 34.8183 175.859L36.5703 179.531ZM32.6797 177.01C32.2922 176.198 31.8595 175.624 31.3816 175.289C30.8981 174.941 30.3326 174.922 29.6853 175.231C29.2381 175.444 28.9529 175.725 28.8299 176.073C28.7012 176.409 28.6967 176.808 28.8165 177.271C28.9189 177.728 29.1105 178.251 29.3913 178.839L29.7198 179.528L33.1093 177.91L32.6797 177.01Z" fill="white"/>
</g>
</svg>
