<svg width="707" height="451" viewBox="0 0 707 451" fill="none" xmlns="http://www.w3.org/2000/svg">
<path d="M3.03787 12.5109L7.35447 6.75547L10.7118 3.87773L15.508 1.95924L20.7839 1L676.907 2.43887H686.499L692.735 3.87773L698.01 7.23509L702.327 12.0313L704.725 17.3072L705.205 21.6238V427.384V432.66L703.766 437.456L701.368 441.773L697.051 446.089L691.296 448.967L685.061 449.926H593.932L577.146 363.594L575.227 355.441L572.829 351.124L568.992 346.808L564.196 343.93L557.961 342.491L150.282 342.011L140.689 344.889L133.495 350.645L130.617 358.319L112.392 449.926H41.8873H19.345L12.6303 448.487L6.39523 443.212L2.55825 437.456L1.11938 431.221V348.246V40.8086V18.746L3.03787 12.5109Z" fill="black"/>
<path d="M130.618 357.359L112.872 449.447L593.933 449.927L576.666 361.676L574.748 354.482L570.911 348.726L564.676 344.41L557.961 342.491H147.404L140.69 344.889L133.495 350.645L130.618 357.359Z" fill="black"/>
<path d="M84.5738 29.298L31.8154 77.2603L29.4173 79.1787L27.0192 83.4953L25.5803 87.8119V92.1285V305.081V312.755L26.5396 317.551L29.8969 323.786L35.6524 329.062L42.3671 331.46H47.1633H659.161L667.794 330.501L674.509 326.184L678.826 319.949L680.744 312.755V88.7712L679.305 83.4953L677.387 79.1787L631.343 29.7777L625.108 26.4203L618.873 24.9814H96.5644L89.8497 26.4203L84.5738 29.298Z" fill="#48E2DC"/>
<path d="M45.7244 98.843V130.978H660.12L659.641 94.0468L656.763 86.8525L627.506 55.1974L621.751 49.442L615.995 46.5642L611.199 45.605L105.677 47.0438L97.5236 48.0031L91.7681 50.4012L74.0221 66.7084L57.7149 81.5766L49.0817 89.2506L46.204 94.5264L45.7244 98.843Z" fill="white"/>
<path d="M45.2449 292.131L45.7245 131.937H660.12V287.814V294.529L658.202 299.805L654.365 305.56L649.569 308.918L642.854 311.316H68.2667L60.5928 310.836L54.8373 308.438L50.0411 304.121L46.6837 297.886L45.2449 292.131Z" fill="black"/>
<path d="M45.2449 290.692L45.7245 132.417L660.12 131.937L660.6 289.733L659.641 295.488L657.243 301.244L653.885 305.56L650.048 308.918L644.293 310.836L640.935 311.316H80.2573H63.4705L58.6743 309.877L53.3984 307.479L48.1226 301.723L45.2449 295.009V290.692Z" fill="#FD4B28"/>
<path d="M196.326 147.764L203.04 147.285H502.325H512.397L520.55 148.724L531.582 153.04L542.133 159.755L549.328 167.429L554.124 175.103L557.481 183.736L559.879 193.328L560.359 199.563L559.879 207.237L558.92 214.432L557.481 220.667L555.563 224.983L552.685 230.739L547.889 236.974L543.572 241.291L537.337 246.566L531.102 249.924L523.908 253.281L517.193 254.72L512.397 255.2H211.194L195.846 254.72L181.937 251.842L171.385 248.005L162.273 241.77L155.558 236.015L150.762 228.341L147.884 220.667L145.486 211.554L145.006 204.36V196.206L146.445 188.053L148.843 180.858L151.721 174.144L156.517 167.908L163.711 160.714L170.906 156.397L180.498 152.081L188.652 149.683L196.326 147.764Z" fill="black"/>
<path d="M276.423 243.689V161.674H323.426L324.864 165.031L326.783 173.185L328.701 182.777L329.661 192.37L330.14 202.921L329.661 214.432L328.222 224.984L326.303 232.658L323.426 243.689H276.423Z" fill="black"/>
<path d="M430.861 161.674V243.21H382.419L380.98 237.934L378.103 225.464L376.184 212.993V203.881V194.288L378.103 179.899L380.501 168.389L382.899 161.674H430.861Z" fill="black"/>
<path d="M112.392 449.926H21.2635C10.1382 449.926 1.11938 440.908 1.11938 429.782V21.1853C1.11938 10.044 10.1634 1.01848 21.3047 1.04125L685.102 2.39778C696.211 2.42049 705.205 11.4327 705.205 22.5419V429.782C705.205 440.908 696.186 449.926 685.061 449.926H593.932M112.392 449.926L130.301 358.752C132.157 349.305 140.439 342.491 150.067 342.491H556.257C565.885 342.491 574.167 349.305 576.023 358.752L593.932 449.926M112.392 449.926H593.932M660.12 103.639V98.1632C660.12 93.0528 658.178 88.1335 654.687 84.4016L647.065 76.2537L624.394 52.0194C620.567 47.929 615.21 45.6165 609.609 45.637L102.47 47.4947C97.4369 47.5131 92.5932 49.4149 88.8922 52.8256L63.4703 76.2537L52.1677 86.6698C48.058 90.4571 45.7065 95.7815 45.6752 101.37L45.6624 103.639M660.12 103.639V131.937M660.12 103.639H45.6624M45.5039 131.937L44.765 263.833L45.3255 291.578C45.547 302.543 54.4988 311.316 65.4655 311.316H639.976C651.101 311.316 660.12 302.297 660.12 291.171V131.937M45.5039 131.937H660.12M45.5039 131.937L45.6624 103.639M382.899 161.673H430.861V243.689H382.899M382.899 161.673C377.623 173.664 370.908 212.513 382.899 243.689M382.899 161.673H323.425M382.899 243.689H323.425M323.425 161.673H276.423V243.689H323.425M323.425 161.673C328.701 175.103 335.32 206.854 323.425 243.689M205.918 147.285H510.958C527.265 147.285 560.359 163.112 560.359 201.482C560.359 239.852 527.745 255.2 510.958 255.2H205.918C185.294 255.2 145.006 248.005 145.006 201.482C145.006 158.316 185.294 147.285 205.918 147.285ZM97.1143 24.9811H618.273C623.856 24.9811 629.189 27.2986 632.999 31.3805L675.326 76.7311C678.808 80.4612 680.744 85.3735 680.744 90.4758V311.316C680.744 322.441 671.725 331.46 660.6 331.46H45.7242C34.5989 331.46 25.5801 322.441 25.5801 311.316V91.4922C25.5801 85.7903 27.9965 80.3556 32.2299 76.536L83.6199 30.169C87.3212 26.8295 92.1292 24.9811 97.1143 24.9811Z" stroke="white" stroke-width="1.91849"/>
<circle cx="22.7025" cy="21.6239" r="11.0313" fill="white" stroke="white" stroke-width="1.91849"/>
<circle cx="203.52" cy="202.442" r="43.166" fill="white" stroke="white" stroke-width="1.91849"/>
<circle cx="502.804" cy="202.442" r="43.166" fill="white" stroke="white" stroke-width="1.91849"/>
<circle cx="353.642" cy="374.626" r="11.0313" fill="white" stroke="white" stroke-width="1.91849"/>
<circle cx="180.978" cy="424.507" r="15.8275" fill="white" stroke="white" stroke-width="1.91849"/>
<circle cx="524.387" cy="424.507" r="15.8275" fill="white" stroke="white" stroke-width="1.91849"/>
<circle cx="22.7025" cy="429.303" r="11.0313" fill="white" stroke="white" stroke-width="1.91849"/>
<circle cx="684.581" cy="429.303" r="11.0313" fill="white" stroke="white" stroke-width="1.91849"/>
<circle cx="684.581" cy="21.6239" r="11.0313" fill="white" stroke="white" stroke-width="1.91849"/>
<path d="M145.299 87.3511V66.3436H132.061V87.3511H129.702V64.0702H147.659V87.3511H145.299ZM160.965 63.581C167.613 63.581 171.93 68.2141 171.93 75.6963C171.93 84.646 166.26 87.8115 160.965 87.8115C154.289 87.8115 150.001 83.0633 150.001 75.6963C150.001 71.9552 151.124 68.8185 153.224 66.6602C155.181 64.6745 157.915 63.581 160.965 63.581ZM160.965 85.4518C166.347 85.4518 169.541 81.9409 169.541 75.6963C169.541 68.4444 165.167 65.9407 160.965 65.9407C156.735 65.9407 152.361 68.7034 152.361 75.6963C152.361 82.9194 156.735 85.4518 160.965 85.4518ZM187.228 66.3148H178.02V67.6386C178.02 72.5883 177.991 76.4445 177.415 81.0488C176.811 86.1136 175.689 87.3511 171.142 87.3511C171.142 87.3511 171.142 85.5381 171.142 85.1064C174.595 85.1064 174.825 84.8187 175.401 79.61C175.631 77.5956 175.89 74.4013 175.89 70.5451V64.0702H189.502V87.3511H187.228V66.3148ZM206.32 64.0127L208.824 64.0702L197.514 87.3511L195.039 87.2935L198.723 79.8977L191.068 64.0702H193.572L199.931 77.2502L206.32 64.0127ZM217.438 76.6171C212.919 76.6171 209.236 74.7754 209.236 70.7178V64.0702H211.596V69.5667C211.596 72.8185 213.898 74.2862 217.438 74.2862C221.092 74.2862 223.251 72.8185 223.251 69.5667V64.0702H225.639V87.3511H223.251V74.7178C223.251 74.7178 222.042 76.6171 217.438 76.6171ZM246.002 66.7753L231.815 87.3511H228.764V64.0702H231.124V84.646L245.254 64.0702H248.362V87.3511H246.002V66.7753ZM271.701 66.3436H261.945V87.3511H259.585V66.3436H249.859V64.0702H271.701V66.3436ZM282.807 74.3149C287.382 74.3149 290.03 77.6819 290.03 80.7035C290.03 85.0777 287.699 87.3511 282.317 87.3511H273.195V64.0702H275.526V74.3149H282.807ZM282.749 85.0777C285.684 85.0777 287.699 83.9553 287.699 81.0488C287.699 78.6891 285.857 76.5884 282.691 76.5884H275.526V85.0777H282.749ZM318.469 87.3511V66.3436H305.231V87.3511H302.872V64.0702H320.829V87.3511H318.469ZM333.416 64.0702C338.365 64.0702 341.042 67.6098 341.042 70.948C341.042 74.2862 338.423 77.6819 333.445 77.6819H326.365V87.3511H323.977V64.0702H333.416ZM333.876 75.3221C336.15 75.3221 338.711 73.8833 338.711 70.948C338.711 67.9552 336.121 66.43 333.876 66.43H326.365V75.3221H333.876ZM353.133 63.581C359.78 63.581 364.097 68.2141 364.097 75.6963C364.097 84.646 358.428 87.8115 353.133 87.8115C346.456 87.8115 342.169 83.0633 342.169 75.6963C342.169 71.9552 343.291 68.8185 345.392 66.6602C347.349 64.6745 350.082 63.581 353.133 63.581ZM353.133 85.4518C358.514 85.4518 361.708 81.9409 361.708 75.6963C361.708 68.4444 357.334 65.9407 353.133 65.9407C348.902 65.9407 344.528 68.7034 344.528 75.6963C344.528 82.9194 348.902 85.4518 353.133 85.4518ZM390.958 64.0702H393.318V87.3511H366.468V64.0702H368.828V85.1064H378.699V64.0702H381.087V85.1064H390.958V64.0702ZM410.843 66.3148H401.634V67.6386C401.634 72.5883 401.605 76.4445 401.03 81.0488C400.425 86.1136 399.303 87.3511 394.756 87.3511C394.756 87.3511 394.756 85.5381 394.756 85.1064C398.21 85.1064 398.44 84.8187 399.015 79.61C399.245 77.5956 399.504 74.4013 399.504 70.5451V64.0702H413.116V87.3511H410.843V66.3148ZM426.481 63.581C433.129 63.581 437.445 68.2141 437.445 75.6963C437.445 84.646 431.776 87.8115 426.481 87.8115C419.805 87.8115 415.517 83.0633 415.517 75.6963C415.517 71.9552 416.639 68.8185 418.74 66.6602C420.697 64.6745 423.431 63.581 426.481 63.581ZM426.481 85.4518C431.863 85.4518 435.057 81.9409 435.057 75.6963C435.057 68.4444 430.683 65.9407 426.481 65.9407C422.251 65.9407 417.877 68.7034 417.877 75.6963C417.877 82.9194 422.251 85.4518 426.481 85.4518ZM442.148 66.3436V73.7394H453.342V76.0128L442.148 75.9553V85.1064H455.443V87.3511H439.817V64.0702H455.443V66.3436H442.148ZM480.633 75.3221C484.086 75.8401 485.007 78.6315 485.007 81.2215C485.007 84.905 482.676 87.3511 477.295 87.3511H468.173V64.0702H476.978C481.036 64.0702 483.597 67.2357 483.597 70.6314C483.597 72.1279 482.878 74.5452 480.633 75.3221ZM476.288 66.3724H470.504V74.3149C472.374 74.3149 474.849 74.3149 476.259 74.3149C479.482 74.3149 481.209 73.3365 481.209 70.3724C481.209 68.0415 479.597 66.3724 476.288 66.3724ZM477.727 85.0777C480.662 85.0777 482.676 83.9553 482.676 81.0488C482.676 78.6891 480.835 76.5884 477.669 76.5884H470.504V85.0777H477.727ZM508.412 64.0702C513.362 64.0702 516.038 67.6098 516.038 70.948C516.038 74.2862 513.42 77.6819 508.441 77.6819H501.362V87.3511H498.973V64.0702H508.412ZM508.873 75.3221C511.146 75.3221 513.707 73.8833 513.707 70.948C513.707 67.9552 511.117 66.43 508.873 66.43H501.362V75.3221H508.873ZM531.189 64.0127L533.693 64.0702L522.383 87.3511L519.908 87.2935L523.592 79.8977L515.937 64.0702H518.441L524.801 77.2502L531.189 64.0127ZM537.501 76.9625L549.299 64.0702H552.494L543.889 73.4804L553.559 87.3511H550.71L542.278 75.2358L537.501 80.4445V87.3511H535.17V64.0702H537.501V76.9625ZM572.36 66.7753L558.173 87.3511H555.123V64.0702H557.483V84.646L571.612 64.0702H574.72V87.3511H572.36V66.7753Z" fill="black"/>
<path d="M46.4116 103.639H659.161" stroke="black" stroke-width="1.91849"/>
<path d="M46.4507 132.417H659.161" stroke="black" stroke-width="1.91849"/>
</svg>
