<svg width="582" height="583" viewBox="0 0 582 583" fill="none" xmlns="http://www.w3.org/2000/svg">
<g clip-path="url(#clip0_803_20251)">
<mask id="path-1-inside-1_803_20251" fill="white">
<path d="M100.8 68.9164C222.193 -34.9119 405.784 -19.4877 510.863 103.367C615.942 226.222 602.718 409.985 481.326 513.813C359.933 617.641 176.342 602.217 71.2628 479.362C-33.8164 356.507 -20.592 172.745 100.8 68.9164ZM443.289 469.342C540.413 386.271 550.993 239.245 466.921 140.951C382.849 42.6571 235.961 30.3165 138.837 113.388C41.7133 196.459 31.1327 343.484 115.205 441.778C199.277 540.072 346.165 552.413 443.289 469.342Z"/>
</mask>
<path d="M100.8 68.9164C222.193 -34.9119 405.784 -19.4877 510.863 103.367C615.942 226.222 602.718 409.985 481.326 513.813C359.933 617.641 176.342 602.217 71.2628 479.362C-33.8164 356.507 -20.592 172.745 100.8 68.9164ZM443.289 469.342C540.413 386.271 550.993 239.245 466.921 140.951C382.849 42.6571 235.961 30.3165 138.837 113.388C41.7133 196.459 31.1327 343.484 115.205 441.778C199.277 540.072 346.165 552.413 443.289 469.342Z" fill="white" stroke="black" stroke-width="2" mask="url(#path-1-inside-1_803_20251)"/>
<mask id="mask0_803_20251" style="mask-type:alpha" maskUnits="userSpaceOnUse" x="0" y="-1" width="582" height="583">
<mask id="path-2-inside-2_803_20251" fill="white">
<path d="M100.8 67.9974C222.193 -35.8308 405.784 -20.4067 510.863 102.448C615.942 225.303 602.718 409.066 481.326 512.894C359.933 616.722 176.342 601.298 71.2628 478.443C-33.8164 355.589 -20.592 171.826 100.8 67.9974ZM443.289 468.423C540.413 385.352 550.993 238.326 466.921 140.032C382.849 41.7381 235.961 29.3975 138.837 112.469C41.7133 195.54 31.1327 342.565 115.205 440.859C199.277 539.153 346.165 551.494 443.289 468.423Z"/>
</mask>
<path d="M100.8 67.9974C222.193 -35.8308 405.784 -20.4067 510.863 102.448C615.942 225.303 602.718 409.066 481.326 512.894C359.933 616.722 176.342 601.298 71.2628 478.443C-33.8164 355.589 -20.592 171.826 100.8 67.9974ZM443.289 468.423C540.413 385.352 550.993 238.326 466.921 140.032C382.849 41.7381 235.961 29.3975 138.837 112.469C41.7133 195.54 31.1327 342.565 115.205 440.859C199.277 539.153 346.165 551.494 443.289 468.423Z" fill="white" stroke="black" stroke-width="2" mask="url(#path-2-inside-2_803_20251)"/>
</mask>
<g mask="url(#mask0_803_20251)">
<path d="M371.571 167.827H443.286V252.772H424.386V184.837H390.366V252.772H371.571V167.827ZM453.089 167.827H513.779V184.837H471.464V199.957L506.744 200.167V217.072L471.464 216.967V235.867H513.779V252.772H453.089V167.827ZM559.522 167.827C577.897 167.827 587.452 181.897 587.452 195.232C587.452 212.767 574.222 222.322 560.257 222.322H539.047V252.772H520.252V167.827H532.747H559.522ZM559.102 205.837C565.927 205.837 570.967 201.742 570.967 195.232C570.967 188.722 565.612 184.312 559.102 184.312H539.047V205.837H559.102ZM593.158 167.827H653.848V184.837H611.533V199.957L646.813 200.167V217.072L611.533 216.967V235.867H653.848V252.772H593.158V167.827ZM714.081 208.252C721.431 212.767 725.526 219.382 725.526 226.942C725.526 243.637 712.401 254.347 692.031 254.347C673.236 254.347 656.646 243.112 656.646 226.942V225.262H674.391V226.942C674.286 234.502 683.946 237.652 691.191 237.547C698.856 237.547 706.941 232.927 706.731 227.047C706.416 219.907 702.741 215.917 687.201 215.917V201.742C700.011 201.322 704.946 197.017 704.946 191.977C704.946 186.517 697.176 183.157 692.031 183.157C684.261 183.157 677.961 187.042 677.961 193.447V195.127H660.216V193.447C660.216 177.277 671.451 166.042 690.246 166.042C710.616 166.042 723.741 176.857 723.741 193.447C723.741 199.432 720.066 204.472 714.081 208.252ZM788.288 252.772L781.673 235.237H750.383L743.768 252.772H725.918L757.103 167.827H776.843L806.138 252.772H788.288ZM756.263 219.592H775.793L766.028 193.762L756.263 219.592ZM810.335 167.827H882.05V252.772H863.15V184.837H829.13V252.772H810.335V167.827ZM891.854 167.827H909.704V223.372L950.864 167.827H968.714V252.772H950.864V196.807L909.704 252.772H891.854V167.827ZM1036.77 218.542H1055.99C1052.73 242.272 1035.93 254.347 1015.98 254.347C993.829 254.347 975.559 239.227 975.559 210.247C975.559 181.897 993.829 166.042 1015.98 166.042C1036.04 166.042 1051.58 178.327 1055.57 199.432H1035.93C1033.73 188.827 1025.75 183.682 1015.98 183.682C1003.49 183.682 993.829 192.082 993.829 210.247C993.829 228.517 1003.38 236.812 1015.98 236.812C1026.59 236.812 1035.41 230.932 1036.77 218.542ZM1116.31 252.772L1109.7 235.237H1078.41L1071.79 252.772H1053.94L1085.13 167.827H1104.87L1134.16 252.772H1116.31ZM1084.29 219.592H1103.82L1094.05 193.762L1084.29 219.592ZM1125.67 167.827H1203.68V184.837H1174.07V252.772H1155.28V184.837H1125.67V167.827ZM1245.62 202.057C1271.03 202.057 1279.43 213.607 1279.43 227.887C1279.43 249.937 1259.27 252.772 1241.42 252.772H1210.44V167.827H1229.24V202.057H1245.62ZM1261.68 227.572V225.262C1261.68 219.697 1256.22 215.182 1247.82 215.182H1229.55V237.652H1247.82C1256.22 237.652 1261.68 233.137 1261.68 227.572Z" fill="black"/>
<path d="M637.611 316.827H657.351V401.772H639.501V353.157L620.496 401.772H606.426L587.421 353.052V401.772H569.571V316.827H589.206L613.461 383.712L637.611 316.827ZM704.57 315.042C727.775 315.042 745.1 331.422 745.1 359.247C745.1 388.332 726.725 403.347 704.57 403.347C682.415 403.347 664.145 388.227 664.145 359.247C664.145 330.897 682.415 315.042 704.57 315.042ZM704.57 385.812C717.275 385.812 726.725 377.517 726.725 359.247C726.725 341.082 717.17 332.682 704.57 332.682C692.075 332.682 682.415 341.082 682.415 359.247C682.415 377.517 691.97 385.812 704.57 385.812ZM819.925 316.827H839.665V401.772H821.815V353.157L802.81 401.772H788.74L769.735 353.052V401.772H751.885V316.827H771.52L795.775 383.712L819.925 316.827ZM849.4 316.827H910.09V333.837H867.775V348.957L903.055 349.167V366.072L867.775 365.967V384.867H910.09V401.772H849.4V316.827ZM935.358 316.827V348.957H971.163V316.827H990.063V401.772H971.163V365.967H935.358V401.772H916.563V316.827H935.358ZM997.8 316.827H1075.82V333.837H1046.21V401.772H1027.41V333.837H997.8V316.827Z" fill="black"/>
</g>
</g>
<defs>
<clipPath id="clip0_803_20251">
<rect width="582" height="583" fill="white"/>
</clipPath>
</defs>
</svg>
