<svg width="469" height="471" viewBox="0 0 469 471" fill="none" xmlns="http://www.w3.org/2000/svg">
<g clip-path="url(#clip0_803_20252)">
<mask id="path-1-inside-1_803_20252" fill="white">
<path d="M206.505 2.34617C335.466 -13.3088 452.7 78.544 468.355 207.505C484.01 336.466 392.157 453.7 263.196 469.355C134.235 485.01 17.0006 393.158 1.34566 264.197C-14.3093 135.236 77.5435 18.0011 206.505 2.34617ZM255.536 406.25C349.644 394.826 416.674 309.275 405.25 215.166C393.826 121.057 308.274 54.0273 214.165 65.4514C120.056 76.8756 53.0268 162.427 64.4509 256.536C75.8751 350.645 161.427 417.674 255.536 406.25Z"/>
</mask>
<path d="M206.505 2.34617C335.466 -13.3088 452.7 78.544 468.355 207.505C484.01 336.466 392.157 453.7 263.196 469.355C134.235 485.01 17.0006 393.158 1.34566 264.197C-14.3093 135.236 77.5435 18.0011 206.505 2.34617ZM255.536 406.25C349.644 394.826 416.674 309.275 405.25 215.166C393.826 121.057 308.274 54.0273 214.165 65.4514C120.056 76.8756 53.0268 162.427 64.4509 256.536C75.8751 350.645 161.427 417.674 255.536 406.25Z" fill="white" stroke="black" stroke-width="2" mask="url(#path-1-inside-1_803_20252)"/>
<mask id="mask0_803_20252" style="mask-type:alpha" maskUnits="userSpaceOnUse" x="-1" y="0" width="472" height="472">
<path d="M206.505 2.34617C335.466 -13.3088 452.7 78.544 468.355 207.505C484.01 336.466 392.157 453.7 263.196 469.355C134.235 485.01 17.0006 393.158 1.34566 264.197C-14.3093 135.236 77.5435 18.0011 206.505 2.34617ZM255.536 406.25C349.644 394.826 416.674 309.275 405.25 215.166C393.826 121.057 308.274 54.0273 214.165 65.4514C120.056 76.8756 53.0268 162.427 64.4509 256.536C75.8751 350.645 161.427 417.674 255.536 406.25Z" fill="white"/>
</mask>
<g mask="url(#mask0_803_20252)">
<path d="M314.262 111.61H385.977V196.555H367.077V128.62H333.057V196.555H314.262V111.61ZM395.781 111.61H456.471V128.62H414.156V143.74L449.436 143.95V160.855L414.156 160.75V179.65H456.471V196.555H395.781V111.61ZM502.214 111.61C520.589 111.61 530.144 125.68 530.144 139.015C530.144 156.55 516.914 166.105 502.949 166.105H481.739V196.555H462.944V111.61H475.439H502.214ZM501.794 149.62C508.619 149.62 513.659 145.525 513.659 139.015C513.659 132.505 508.304 128.095 501.794 128.095H481.739V149.62H501.794ZM535.849 111.61H596.539V128.62H554.224V143.74L589.504 143.95V160.855L554.224 160.75V179.65H596.539V196.555H535.849V111.61ZM656.772 152.035C664.122 156.55 668.217 163.165 668.217 170.725C668.217 187.42 655.092 198.13 634.722 198.13C615.927 198.13 599.337 186.895 599.337 170.725V169.045H617.082V170.725C616.977 178.285 626.637 181.435 633.882 181.33C641.547 181.33 649.632 176.71 649.422 170.83C649.107 163.69 645.432 159.7 629.892 159.7V145.525C642.702 145.105 647.637 140.8 647.637 135.76C647.637 130.3 639.867 126.94 634.722 126.94C626.952 126.94 620.652 130.825 620.652 137.23V138.91H602.907V137.23C602.907 121.06 614.142 109.825 632.937 109.825C653.307 109.825 666.432 120.64 666.432 137.23C666.432 143.215 662.757 148.255 656.772 152.035ZM730.979 196.555L724.364 179.02H693.074L686.459 196.555H668.609L699.794 111.61H719.534L748.829 196.555H730.979ZM698.954 163.375H718.484L708.719 137.545L698.954 163.375ZM753.027 111.61H824.742V196.555H805.842V128.62H771.822V196.555H753.027V111.61ZM834.545 111.61H852.395V167.155L893.555 111.61H911.405V196.555H893.555V140.59L852.395 196.555H834.545V111.61ZM979.466 162.325H998.681C995.426 186.055 978.626 198.13 958.676 198.13C936.521 198.13 918.251 183.01 918.251 154.03C918.251 125.68 936.521 109.825 958.676 109.825C978.731 109.825 994.271 122.11 998.261 143.215H978.626C976.421 132.61 968.441 127.465 958.676 127.465C946.181 127.465 936.521 135.865 936.521 154.03C936.521 172.3 946.076 180.595 958.676 180.595C969.281 180.595 978.101 174.715 979.466 162.325ZM1059 196.555L1052.39 179.02H1021.1L1014.48 196.555H996.632L1027.82 111.61H1047.56L1076.85 196.555H1059ZM1026.98 163.375H1046.51L1036.74 137.545L1026.98 163.375ZM1068.36 111.61H1146.38V128.62H1116.77V196.555H1097.97V128.62H1068.36V111.61ZM1188.31 145.84C1213.72 145.84 1222.12 157.39 1222.12 171.67C1222.12 193.72 1201.96 196.555 1184.11 196.555H1153.13V111.61H1171.93V145.84H1188.31ZM1204.37 171.355V169.045C1204.37 163.48 1198.91 158.965 1190.51 158.965H1172.24V181.435H1190.51C1198.91 181.435 1204.37 176.92 1204.37 171.355Z" fill="black"/>
</g>
</g>
<defs>
<clipPath id="clip0_803_20252">
<rect width="469" height="471" fill="white"/>
</clipPath>
</defs>
</svg>
