<svg width="242" height="244" viewBox="0 0 242 244" fill="none" xmlns="http://www.w3.org/2000/svg">
<g clip-path="url(#clip0_803_20254)">
<mask id="path-1-inside-1_803_20254" fill="white">
<path d="M230.16 70.3924C258.8 131.36 233.148 203.741 172.865 232.058C112.582 260.376 40.4961 233.908 11.8565 172.94C-16.783 111.972 8.86895 39.5918 69.1519 11.274C129.435 -17.0438 201.521 9.42443 230.16 70.3924ZM58.7045 150.933C75.0519 185.734 116.199 200.842 150.608 184.678C185.018 168.514 199.66 127.2 183.312 92.3991C166.965 57.5986 125.818 42.4906 91.4087 58.6544C56.9992 74.8181 42.357 116.133 58.7045 150.933Z"/>
</mask>
<path d="M230.16 70.3924C258.8 131.36 233.148 203.741 172.865 232.058C112.582 260.376 40.4961 233.908 11.8565 172.94C-16.783 111.972 8.86895 39.5918 69.1519 11.274C129.435 -17.0438 201.521 9.42443 230.16 70.3924ZM58.7045 150.933C75.0519 185.734 116.199 200.842 150.608 184.678C185.018 168.514 199.66 127.2 183.312 92.3991C166.965 57.5986 125.818 42.4906 91.4087 58.6544C56.9992 74.8181 42.357 116.133 58.7045 150.933Z" fill="white" stroke="black" stroke-width="2" mask="url(#path-1-inside-1_803_20254)"/>
<mask id="mask0_803_20254" style="mask-type:alpha" maskUnits="userSpaceOnUse" x="0" y="-1" width="242" height="245">
<path d="M230.16 70.3924C258.8 131.36 233.148 203.741 172.865 232.058C112.582 260.376 40.4961 233.908 11.8565 172.94C-16.783 111.972 8.86895 39.5918 69.1519 11.274C129.435 -17.0438 201.521 9.42443 230.16 70.3924ZM58.7045 150.933C75.052 185.734 116.199 200.842 150.608 184.678C185.018 168.514 199.66 127.2 183.312 92.3991C166.965 57.5986 125.818 42.4906 91.4087 58.6544C56.9992 74.8181 42.357 116.133 58.7045 150.933Z" fill="white"/>
</mask>
<g mask="url(#mask0_803_20254)">
<path d="M201.571 -2.09149H273.286V82.8535H254.386V14.9185H220.366V82.8535H201.571V-2.09149ZM283.089 -2.09149H343.779V14.9185H301.464V30.0385L336.744 30.2485V47.1535L301.464 47.0485V65.9485H343.779V82.8535H283.089V-2.09149ZM404.012 38.3335C411.362 42.8485 415.457 49.4635 415.457 57.0235C415.457 73.7185 402.332 84.4285 381.962 84.4285C363.167 84.4285 346.577 73.1935 346.577 57.0235V55.3435H364.322V57.0235C364.217 64.5835 373.877 67.7335 381.122 67.6285C388.787 67.6285 396.872 63.0085 396.662 57.1285C396.347 49.9885 392.672 45.9985 377.132 45.9985V31.8235C389.942 31.4035 394.877 27.0985 394.877 22.0585C394.877 16.5985 387.107 13.2385 381.962 13.2385C374.192 13.2385 367.892 17.1235 367.892 23.5285V25.2085H350.147V23.5285C350.147 7.35851 361.382 -3.87649 380.177 -3.87649C400.547 -3.87649 413.672 6.93851 413.672 23.5285C413.672 29.5135 409.997 34.5535 404.012 38.3335ZM478.219 82.8535L471.604 65.3185H440.314L433.699 82.8535H415.849L447.034 -2.09149H466.774L496.069 82.8535H478.219ZM446.194 49.6735H465.724L455.959 23.8435L446.194 49.6735ZM500.267 -2.09149H571.982V82.8535H553.082V14.9185H519.062V82.8535H500.267V-2.09149ZM581.786 -2.09149H599.636V53.4535L640.796 -2.09149H658.646V82.8535H640.796V26.8885L599.636 82.8535H581.786V-2.09149ZM726.706 48.6235H745.921C742.666 72.3535 725.866 84.4285 705.916 84.4285C683.761 84.4285 665.491 69.3085 665.491 40.3285C665.491 11.9785 683.761 -3.87649 705.916 -3.87649C725.971 -3.87649 741.511 8.40851 745.501 29.5135H725.866C723.661 18.9085 715.681 13.7635 705.916 13.7635C693.421 13.7635 683.761 22.1635 683.761 40.3285C683.761 58.5985 693.316 66.8935 705.916 66.8935C716.521 66.8935 725.341 61.0135 726.706 48.6235ZM806.242 82.8535L799.627 65.3185H768.337L761.722 82.8535H743.872L775.057 -2.09149H794.797L824.092 82.8535H806.242ZM774.217 49.6735H793.747L783.982 23.8435L774.217 49.6735ZM815.601 -2.09149H893.616V14.9185H864.006V82.8535H845.211V14.9185H815.601V-2.09149ZM935.549 32.1385C960.959 32.1385 969.359 43.6885 969.359 57.9685C969.359 80.0185 949.199 82.8535 931.349 82.8535H900.374V-2.09149H919.169V32.1385H935.549ZM951.614 57.6535V55.3435C951.614 49.7785 946.154 45.2635 937.754 45.2635H919.484V67.7335H937.754C946.154 67.7335 951.614 63.2185 951.614 57.6535Z" fill="black"/>
</g>
</g>
<defs>
<clipPath id="clip0_803_20254">
<rect width="242" height="244" fill="white"/>
</clipPath>
</defs>
</svg>
