<svg width="822" height="575" viewBox="0 0 822 575" fill="none" xmlns="http://www.w3.org/2000/svg">
<g clip-path="url(#clip0_780_17303)">
<rect x="0.5" y="286.5" width="411" height="288" stroke="white"/>
<rect x="411.5" y="286.5" width="410" height="288" stroke="white"/>
<path d="M101 360C101 380.711 84.2107 397.5 63.5 397.5C42.7893 397.5 26 380.711 26 360" stroke="white" stroke-width="1.1194"/>
<path d="M101 454C101 474.711 84.2107 491.5 63.5 491.5C42.7893 491.5 26 474.711 26 454" stroke="white" stroke-width="1.1194"/>
<path d="M196 360C196 380.711 179.211 397.5 158.5 397.5C137.789 397.5 121 380.711 121 360" stroke="white" stroke-width="1.1194"/>
<path d="M196 454C196 474.711 179.211 491.5 158.5 491.5C137.789 491.5 121 474.711 121 454" stroke="white" stroke-width="1.1194"/>
<path d="M291 358C291 378.711 274.211 395.5 253.5 395.5C232.789 395.5 216 378.711 216 358" stroke="white" stroke-width="1.1194"/>
<path d="M291 452C291 472.711 274.211 489.5 253.5 489.5C232.789 489.5 216 472.711 216 452" stroke="white" stroke-width="1.1194"/>
<path d="M386 358C386 378.711 369.211 395.5 348.5 395.5C327.789 395.5 311 378.711 311 358" stroke="white" stroke-width="1.1194"/>
<path d="M386 452C386 472.711 369.211 489.5 348.5 489.5C327.789 489.5 311 472.711 311 452" stroke="white" stroke-width="1.1194"/>
<path d="M115.45 368.74C117.45 368.74 118.51 370.32 118.51 372.95C118.51 375.63 117.45 377.16 115.45 377.16C113.47 377.16 112.39 375.63 112.39 372.95C112.39 370.36 113.46 368.74 115.45 368.74ZM115.45 376.34C116.73 376.34 117.69 375.49 117.69 372.95C117.69 370.45 116.73 369.56 115.45 369.56C114.2 369.56 113.21 370.47 113.21 372.95C113.21 375.5 114.2 376.34 115.45 376.34Z" fill="white"/>
<path d="M19.45 368.74C21.45 368.74 22.51 370.32 22.51 372.95C22.51 375.63 21.45 377.16 19.45 377.16C17.47 377.16 16.39 375.63 16.39 372.95C16.39 370.36 17.46 368.74 19.45 368.74ZM19.45 376.34C20.73 376.34 21.69 375.49 21.69 372.95C21.69 370.45 20.73 369.56 19.45 369.56C18.2 369.56 17.21 370.47 17.21 372.95C17.21 375.5 18.2 376.34 19.45 376.34Z" fill="white"/>
<path d="M211.45 368.74C213.45 368.74 214.51 370.32 214.51 372.95C214.51 375.63 213.45 377.16 211.45 377.16C209.47 377.16 208.39 375.63 208.39 372.95C208.39 370.36 209.46 368.74 211.45 368.74ZM211.45 376.34C212.73 376.34 213.69 375.49 213.69 372.95C213.69 370.45 212.73 369.56 211.45 369.56C210.2 369.56 209.21 370.47 209.21 372.95C209.21 375.5 210.2 376.34 211.45 376.34Z" fill="white"/>
<path d="M307.45 368.74C309.45 368.74 310.51 370.32 310.51 372.95C310.51 375.63 309.45 377.16 307.45 377.16C305.47 377.16 304.39 375.63 304.39 372.95C304.39 370.36 305.46 368.74 307.45 368.74ZM307.45 376.34C308.73 376.34 309.69 375.49 309.69 372.95C309.69 370.45 308.73 369.56 307.45 369.56C306.2 369.56 305.21 370.47 305.21 372.95C305.21 375.5 306.2 376.34 307.45 376.34Z" fill="white"/>
<path d="M307.45 461.74C309.45 461.74 310.51 463.32 310.51 465.95C310.51 468.63 309.45 470.16 307.45 470.16C305.47 470.16 304.39 468.63 304.39 465.95C304.39 463.36 305.46 461.74 307.45 461.74ZM307.45 469.34C308.73 469.34 309.69 468.49 309.69 465.95C309.69 463.45 308.73 462.56 307.45 462.56C306.2 462.56 305.21 463.47 305.21 465.95C305.21 468.5 306.2 469.34 307.45 469.34Z" fill="white"/>
<path d="M211.45 461.74C213.45 461.74 214.51 463.32 214.51 465.95C214.51 468.63 213.45 470.16 211.45 470.16C209.47 470.16 208.39 468.63 208.39 465.95C208.39 463.36 209.46 461.74 211.45 461.74ZM211.45 469.34C212.73 469.34 213.69 468.49 213.69 465.95C213.69 463.45 212.73 462.56 211.45 462.56C210.2 462.56 209.21 463.47 209.21 465.95C209.21 468.5 210.2 469.34 211.45 469.34Z" fill="white"/>
<path d="M115.45 461.74C117.45 461.74 118.51 463.32 118.51 465.95C118.51 468.63 117.45 470.16 115.45 470.16C113.47 470.16 112.39 468.63 112.39 465.95C112.39 463.36 113.46 461.74 115.45 461.74ZM115.45 469.34C116.73 469.34 117.69 468.49 117.69 465.95C117.69 463.45 116.73 462.56 115.45 462.56C114.2 462.56 113.21 463.47 113.21 465.95C113.21 468.5 114.2 469.34 115.45 469.34Z" fill="white"/>
<path d="M19.45 461.74C21.45 461.74 22.51 463.32 22.51 465.95C22.51 468.63 21.45 470.16 19.45 470.16C17.47 470.16 16.39 468.63 16.39 465.95C16.39 463.36 17.46 461.74 19.45 461.74ZM19.45 469.34C20.73 469.34 21.69 468.49 21.69 465.95C21.69 463.45 20.73 462.56 19.45 462.56C18.2 462.56 17.21 463.47 17.21 465.95C17.21 468.5 18.2 469.34 19.45 469.34Z" fill="white"/>
<path d="M155.45 403.74C157.45 403.74 158.51 405.32 158.51 407.95C158.51 410.63 157.45 412.16 155.45 412.16C153.47 412.16 152.39 410.63 152.39 407.95C152.39 405.36 153.46 403.74 155.45 403.74ZM155.45 411.34C156.73 411.34 157.69 410.49 157.69 407.95C157.69 405.45 156.73 404.56 155.45 404.56C154.2 404.56 153.21 405.47 153.21 407.95C153.21 410.5 154.2 411.34 155.45 411.34ZM160.234 412H159.164V410.9H160.234V412ZM163.496 412.16C162.246 412.25 160.916 411.47 160.916 410.19H161.776C161.776 410.63 162.246 411.37 163.396 411.33C164.546 411.3 165.126 410.51 165.126 409.28C165.126 408.29 164.536 407.6 163.456 407.59C162.386 407.58 162.006 408.03 161.916 408.47H161.136V403.9H165.626V404.72H161.906V407.44C161.906 407.44 162.246 406.83 163.536 406.83C164.986 406.83 165.896 407.88 165.896 409.28C165.896 411.4 164.686 412.07 163.496 412.16Z" fill="white"/>
<path d="M59.45 403.74C61.45 403.74 62.51 405.32 62.51 407.95C62.51 410.63 61.45 412.16 59.45 412.16C57.47 412.16 56.39 410.63 56.39 407.95C56.39 405.36 57.46 403.74 59.45 403.74ZM59.45 411.34C60.73 411.34 61.69 410.49 61.69 407.95C61.69 405.45 60.73 404.56 59.45 404.56C58.2 404.56 57.21 405.47 57.21 407.95C57.21 410.5 58.2 411.34 59.45 411.34ZM64.2341 412H63.1641V410.9H64.2341V412ZM67.4961 412.16C66.2461 412.25 64.9161 411.47 64.9161 410.19H65.7761C65.7761 410.63 66.2461 411.37 67.3961 411.33C68.5461 411.3 69.1261 410.51 69.1261 409.28C69.1261 408.29 68.5361 407.6 67.4561 407.59C66.3861 407.58 66.0061 408.03 65.9161 408.47H65.1361V403.9H69.6261V404.72H65.9061V407.44C65.9061 407.44 66.2461 406.83 67.5361 406.83C68.9861 406.83 69.8961 407.88 69.8961 409.28C69.8961 411.4 68.6861 412.07 67.4961 412.16Z" fill="white"/>
<path d="M251.45 403.74C253.45 403.74 254.51 405.32 254.51 407.95C254.51 410.63 253.45 412.16 251.45 412.16C249.47 412.16 248.39 410.63 248.39 407.95C248.39 405.36 249.46 403.74 251.45 403.74ZM251.45 411.34C252.73 411.34 253.69 410.49 253.69 407.95C253.69 405.45 252.73 404.56 251.45 404.56C250.2 404.56 249.21 405.47 249.21 407.95C249.21 410.5 250.2 411.34 251.45 411.34ZM256.234 412H255.164V410.9H256.234V412ZM259.496 412.16C258.246 412.25 256.916 411.47 256.916 410.19H257.776C257.776 410.63 258.246 411.37 259.396 411.33C260.546 411.3 261.126 410.51 261.126 409.28C261.126 408.29 260.536 407.6 259.456 407.59C258.386 407.58 258.006 408.03 257.916 408.47H257.136V403.9H261.626V404.72H257.906V407.44C257.906 407.44 258.246 406.83 259.536 406.83C260.986 406.83 261.896 407.88 261.896 409.28C261.896 411.4 260.686 412.07 259.496 412.16Z" fill="white"/>
<path d="M347.45 403.74C349.45 403.74 350.51 405.32 350.51 407.95C350.51 410.63 349.45 412.16 347.45 412.16C345.47 412.16 344.39 410.63 344.39 407.95C344.39 405.36 345.46 403.74 347.45 403.74ZM347.45 411.34C348.73 411.34 349.69 410.49 349.69 407.95C349.69 405.45 348.73 404.56 347.45 404.56C346.2 404.56 345.21 405.47 345.21 407.95C345.21 410.5 346.2 411.34 347.45 411.34ZM352.234 412H351.164V410.9H352.234V412ZM355.496 412.16C354.246 412.25 352.916 411.47 352.916 410.19H353.776C353.776 410.63 354.246 411.37 355.396 411.33C356.546 411.3 357.126 410.51 357.126 409.28C357.126 408.29 356.536 407.6 355.456 407.59C354.386 407.58 354.006 408.03 353.916 408.47H353.136V403.9H357.626V404.72H353.906V407.44C353.906 407.44 354.246 406.83 355.536 406.83C356.986 406.83 357.896 407.88 357.896 409.28C357.896 411.4 356.686 412.07 355.496 412.16Z" fill="white"/>
<path d="M347.45 496.74C349.45 496.74 350.51 498.32 350.51 500.95C350.51 503.63 349.45 505.16 347.45 505.16C345.47 505.16 344.39 503.63 344.39 500.95C344.39 498.36 345.46 496.74 347.45 496.74ZM347.45 504.34C348.73 504.34 349.69 503.49 349.69 500.95C349.69 498.45 348.73 497.56 347.45 497.56C346.2 497.56 345.21 498.47 345.21 500.95C345.21 503.5 346.2 504.34 347.45 504.34ZM352.234 505H351.164V503.9H352.234V505ZM355.496 505.16C354.246 505.25 352.916 504.47 352.916 503.19H353.776C353.776 503.63 354.246 504.37 355.396 504.33C356.546 504.3 357.126 503.51 357.126 502.28C357.126 501.29 356.536 500.6 355.456 500.59C354.386 500.58 354.006 501.03 353.916 501.47H353.136V496.9H357.626V497.72H353.906V500.44C353.906 500.44 354.246 499.83 355.536 499.83C356.986 499.83 357.896 500.88 357.896 502.28C357.896 504.4 356.686 505.07 355.496 505.16Z" fill="white"/>
<path d="M251.45 496.74C253.45 496.74 254.51 498.32 254.51 500.95C254.51 503.63 253.45 505.16 251.45 505.16C249.47 505.16 248.39 503.63 248.39 500.95C248.39 498.36 249.46 496.74 251.45 496.74ZM251.45 504.34C252.73 504.34 253.69 503.49 253.69 500.95C253.69 498.45 252.73 497.56 251.45 497.56C250.2 497.56 249.21 498.47 249.21 500.95C249.21 503.5 250.2 504.34 251.45 504.34ZM256.234 505H255.164V503.9H256.234V505ZM259.496 505.16C258.246 505.25 256.916 504.47 256.916 503.19H257.776C257.776 503.63 258.246 504.37 259.396 504.33C260.546 504.3 261.126 503.51 261.126 502.28C261.126 501.29 260.536 500.6 259.456 500.59C258.386 500.58 258.006 501.03 257.916 501.47H257.136V496.9H261.626V497.72H257.906V500.44C257.906 500.44 258.246 499.83 259.536 499.83C260.986 499.83 261.896 500.88 261.896 502.28C261.896 504.4 260.686 505.07 259.496 505.16Z" fill="white"/>
<path d="M155.45 496.74C157.45 496.74 158.51 498.32 158.51 500.95C158.51 503.63 157.45 505.16 155.45 505.16C153.47 505.16 152.39 503.63 152.39 500.95C152.39 498.36 153.46 496.74 155.45 496.74ZM155.45 504.34C156.73 504.34 157.69 503.49 157.69 500.95C157.69 498.45 156.73 497.56 155.45 497.56C154.2 497.56 153.21 498.47 153.21 500.95C153.21 503.5 154.2 504.34 155.45 504.34ZM160.234 505H159.164V503.9H160.234V505ZM163.496 505.16C162.246 505.25 160.916 504.47 160.916 503.19H161.776C161.776 503.63 162.246 504.37 163.396 504.33C164.546 504.3 165.126 503.51 165.126 502.28C165.126 501.29 164.536 500.6 163.456 500.59C162.386 500.58 162.006 501.03 161.916 501.47H161.136V496.9H165.626V497.72H161.906V500.44C161.906 500.44 162.246 499.83 163.536 499.83C164.986 499.83 165.896 500.88 165.896 502.28C165.896 504.4 164.686 505.07 163.496 505.16Z" fill="white"/>
<path d="M59.45 496.74C61.45 496.74 62.51 498.32 62.51 500.95C62.51 503.63 61.45 505.16 59.45 505.16C57.47 505.16 56.39 503.63 56.39 500.95C56.39 498.36 57.46 496.74 59.45 496.74ZM59.45 504.34C60.73 504.34 61.69 503.49 61.69 500.95C61.69 498.45 60.73 497.56 59.45 497.56C58.2 497.56 57.21 498.47 57.21 500.95C57.21 503.5 58.2 504.34 59.45 504.34ZM64.2341 505H63.1641V503.9H64.2341V505ZM67.4961 505.16C66.2461 505.25 64.9161 504.47 64.9161 503.19H65.7761C65.7761 503.63 66.2461 504.37 67.3961 504.33C68.5461 504.3 69.1261 503.51 69.1261 502.28C69.1261 501.29 68.5361 500.6 67.4561 500.59C66.3861 500.58 66.0061 501.03 65.9161 501.47H65.1361V496.9H69.6261V497.72H65.9061V500.44C65.9061 500.44 66.2461 499.83 67.5361 499.83C68.9861 499.83 69.8961 500.88 69.8961 502.28C69.8961 504.4 68.6861 505.07 67.4961 505.16Z" fill="white"/>
<path d="M203.17 377H198.24V376.18L200.51 376.19V369.85L198.37 371.24L198.38 370.3L200.53 368.91H201.36V376.18H203.17V377Z" fill="#FD4B28"/>
<path d="M107.17 377H102.24V376.18L104.51 376.19V369.85L102.37 371.24L102.38 370.3L104.53 368.91H105.36V376.18H107.17V377Z" fill="#FD4B28"/>
<path d="M299.17 377H294.24V376.18L296.51 376.19V369.85L294.37 371.24L294.38 370.3L296.53 368.91H297.36V376.18H299.17V377Z" fill="#FD4B28"/>
<path d="M395.17 377H390.24V376.18L392.51 376.19V369.85L390.37 371.24L390.38 370.3L392.53 368.91H393.36V376.18H395.17V377Z" fill="#FD4B28"/>
<path d="M395.17 470H390.24V469.18L392.51 469.19V462.85L390.37 464.24L390.38 463.3L392.53 461.91H393.36V469.18H395.17V470Z" fill="#FD4B28"/>
<path d="M299.17 470H294.24V469.18L296.51 469.19V462.85L294.37 464.24L294.38 463.3L296.53 461.91H297.36V469.18H299.17V470Z" fill="#FD4B28"/>
<path d="M203.17 470H198.24V469.18L200.51 469.19V462.85L198.37 464.24L198.38 463.3L200.53 461.91H201.36V469.18H203.17V470Z" fill="#FD4B28"/>
<path d="M107.17 470H102.24V469.18L104.51 469.19V462.85L102.37 464.24L102.38 463.3L104.53 461.91H105.36V469.18H107.17V470Z" fill="#FD4B28"/>
<rect x="0.5" y="0.5" width="821" height="286" stroke="white"/>
<path d="M612.26 66.9706L612.26 51.0382L638.925 43.072L665.59 51.0382L665.59 66.9706L638.925 74.9369L612.26 66.9706Z" fill="#48E2DC"/>
<path d="M503.257 66.9706L503.257 51.0382L529.921 43.072L556.586 51.0382L556.586 66.9706L529.921 74.9369L503.257 66.9706Z" fill="#FD4B28"/>
<path d="M394.253 66.9706L394.253 51.0382L420.918 43.072L447.583 51.0382L447.583 66.9706L420.918 74.9369L394.253 66.9706Z" fill="#48E2DC"/>
<path d="M333.143 244.956L333.143 229.024L359.808 221.057L386.472 229.024L386.472 244.956L359.807 252.922L333.143 244.956Z" fill="#FD4B28"/>
<path d="M195.948 244.962L195.948 229.029L222.613 221.063L249.277 229.029L249.277 244.962L222.613 252.928L195.948 244.962Z" fill="#48E2DC"/>
<path d="M60.8635 244.977L60.8635 229.044L87.5283 221.078L114.193 229.044L114.193 244.976L87.5283 252.943L60.8635 244.977Z" fill="#FD4B28"/>
<path d="M451.41 59.1581L475.829 59.1581L475.829 86.9941L585.894 86.9941M671.186 58.7918L770.28 58.7918L770.28 86.9941L585.894 86.9941M585.894 86.9941L585.894 59.1581L606.775 59.1581M389.83 59.1581L375.32 59.1581L375.32 36.9992L529.747 36.9992L529.747 39.7607" stroke="white" stroke-width="2.9997" stroke-linecap="round"/>
<path d="M118.145 237.164L156.509 237.164L156.509 265L291.374 265M390.606 236.798L517.304 236.798L517.304 265L291.374 265M291.374 265L291.374 237.164L328.568 237.164M56.4095 237.164L33.3532 237.164L33.3532 215.005L222.767 215.005L222.767 217.711" stroke="white" stroke-width="2.9997" stroke-linecap="round"/>
</g>
<defs>
<clipPath id="clip0_780_17303">
<rect width="822" height="575" fill="white"/>
</clipPath>
</defs>
</svg>
