<svg width="323" height="324" viewBox="0 0 323 324" fill="none" xmlns="http://www.w3.org/2000/svg">
<mask id="mask0_803_19963" style="mask-type:alpha" maskUnits="userSpaceOnUse" x="40" y="39" width="242" height="245">
<path d="M270.16 110.392C298.8 171.36 273.148 243.741 212.865 272.058C152.582 300.376 80.4961 273.908 51.8565 212.94C23.217 151.972 48.869 79.5918 109.152 51.274C169.435 22.9562 241.521 49.4244 270.16 110.392ZM98.7045 190.933C115.052 225.734 156.199 240.842 190.608 224.678C225.018 208.514 239.66 167.2 223.312 132.399C206.965 97.5986 165.818 82.4906 131.409 98.6544C96.9992 114.818 82.357 156.133 98.7045 190.933Z" fill="white"/>
</mask>
<g mask="url(#mask0_803_19963)">
<path d="M241.571 37.9085H313.286V122.854H294.386V54.9185H260.366V122.854H241.571V37.9085ZM323.089 37.9085H383.779V54.9185H341.464V70.0385L376.744 70.2485V87.1535L341.464 87.0485V105.949H383.779V122.854H323.089V37.9085ZM444.012 78.3335C451.362 82.8485 455.457 89.4635 455.457 97.0235C455.457 113.719 442.332 124.429 421.962 124.429C403.167 124.429 386.577 113.194 386.577 97.0235V95.3435H404.322V97.0235C404.217 104.584 413.877 107.734 421.122 107.629C428.787 107.629 436.872 103.009 436.662 97.1285C436.347 89.9885 432.672 85.9985 417.132 85.9985V71.8235C429.942 71.4035 434.877 67.0985 434.877 62.0585C434.877 56.5985 427.107 53.2385 421.962 53.2385C414.192 53.2385 407.892 57.1235 407.892 63.5285V65.2085H390.147V63.5285C390.147 47.3585 401.382 36.1235 420.177 36.1235C440.547 36.1235 453.672 46.9385 453.672 63.5285C453.672 69.5135 449.997 74.5535 444.012 78.3335ZM518.219 122.854L511.604 105.319H480.314L473.699 122.854H455.849L487.034 37.9085H506.774L536.069 122.854H518.219ZM486.194 89.6735H505.724L495.959 63.8435L486.194 89.6735ZM540.267 37.9085H611.982V122.854H593.082V54.9185H559.062V122.854H540.267V37.9085ZM621.786 37.9085H639.636V93.4535L680.796 37.9085H698.646V122.854H680.796V66.8885L639.636 122.854H621.786V37.9085ZM766.706 88.6235H785.921C782.666 112.354 765.866 124.429 745.916 124.429C723.761 124.429 705.491 109.309 705.491 80.3285C705.491 51.9785 723.761 36.1235 745.916 36.1235C765.971 36.1235 781.511 48.4085 785.501 69.5135H765.866C763.661 58.9085 755.681 53.7635 745.916 53.7635C733.421 53.7635 723.761 62.1635 723.761 80.3285C723.761 98.5985 733.316 106.894 745.916 106.894C756.521 106.894 765.341 101.014 766.706 88.6235ZM846.242 122.854L839.627 105.319H808.337L801.722 122.854H783.872L815.057 37.9085H834.797L864.092 122.854H846.242ZM814.217 89.6735H833.747L823.982 63.8435L814.217 89.6735ZM855.601 37.9085H933.616V54.9185H904.006V122.854H885.211V54.9185H855.601V37.9085ZM975.549 72.1385C1000.96 72.1385 1009.36 83.6885 1009.36 97.9685C1009.36 120.019 989.199 122.854 971.349 122.854H940.374V37.9085H959.169V72.1385H975.549ZM991.614 97.6535V95.3435C991.614 89.7785 986.154 85.2635 977.754 85.2635H959.484V107.734H977.754C986.154 107.734 991.614 103.219 991.614 97.6535Z" fill="black"/>
</g>
</svg>
