<svg width="316" height="225" viewBox="0 0 316 225" fill="none" xmlns="http://www.w3.org/2000/svg">
<g clip-path="url(#clip0_780_17295)">
<path d="M297.007 7.48C301.007 7.48 303.127 10.64 303.127 15.9C303.127 21.26 301.007 24.32 297.007 24.32C293.047 24.32 290.887 21.26 290.887 15.9C290.887 10.72 293.027 7.48 297.007 7.48ZM297.007 22.68C299.567 22.68 301.487 20.98 301.487 15.9C301.487 10.9 299.567 9.12 297.007 9.12C294.507 9.12 292.527 10.94 292.527 15.9C292.527 21 294.507 22.68 297.007 22.68ZM313.787 24L303.927 24L303.927 22.36L308.467 22.38L308.467 9.7L304.187 12.48L304.207 10.6L308.507 7.82L310.167 7.82L310.167 22.36L313.787 22.36L313.787 24Z" fill="white"/>
<path d="M296.117 54.48C300.117 54.48 302.237 57.64 302.237 62.9C302.237 68.26 300.117 71.32 296.117 71.32C292.157 71.32 289.997 68.26 289.997 62.9C289.997 57.72 292.137 54.48 296.117 54.48ZM296.117 69.68C298.677 69.68 300.597 67.98 300.597 62.9C300.597 57.9 298.677 56.12 296.117 56.12C293.617 56.12 291.637 57.94 291.637 62.9C291.637 68 293.617 69.68 296.117 69.68ZM308.597 54.48C312.217 54.48 313.837 56.58 313.837 59.38C313.837 61.92 312.397 63.52 309.417 64.2C306.617 64.86 305.337 64.48 305.337 69.38L314.057 69.38L314.057 71L303.697 71C303.697 70.18 303.677 70.3 303.677 69.38C303.677 64.08 305.157 63.48 308.817 62.66C311.777 62 312.177 60.7 312.177 59.06C312.177 57.54 311.057 56.12 308.977 56.12C307.077 56.12 305.057 56.82 304.857 58.94L303.237 58.94C303.377 56.46 305.297 54.48 308.597 54.48Z" fill="white"/>
<path d="M296.283 101.48C300.283 101.48 302.403 104.64 302.403 109.9C302.403 115.26 300.283 118.32 296.283 118.32C292.323 118.32 290.163 115.26 290.163 109.9C290.163 104.72 292.303 101.48 296.283 101.48ZM296.283 116.68C298.843 116.68 300.763 114.98 300.763 109.9C300.763 104.9 298.843 103.12 296.283 103.12C293.783 103.12 291.803 104.94 291.803 109.9C291.803 115 293.783 116.68 296.283 116.68ZM310.558 108.96C310.558 108.96 313.858 109.3 313.858 113.24C313.858 116.64 311.858 118.32 308.538 118.32C305.518 118.32 303.538 116.62 303.378 113.78L304.978 113.78C305.518 115.98 306.498 116.72 308.978 116.72C311.158 116.72 312.218 115.14 312.218 112.98C312.218 111.6 311.158 110 308.598 109.72L308.598 108.28C310.398 108.02 311.238 107.12 311.238 105.94C311.238 103.94 310.158 103.12 308.398 103.12C306.918 103.12 306.158 103.82 305.798 105.16L304.178 105.16C304.338 103.04 305.838 101.48 308.398 101.48C311.498 101.48 312.898 103.52 312.898 105.54C312.898 108.7 310.558 108.96 310.558 108.96Z" fill="white"/>
<path d="M296.129 147.48C300.129 147.48 302.249 150.64 302.249 155.9C302.249 161.26 300.129 164.32 296.129 164.32C292.169 164.32 290.009 161.26 290.009 155.9C290.009 150.72 292.149 147.48 296.129 147.48ZM296.129 162.68C298.689 162.68 300.609 160.98 300.609 155.9C300.609 150.9 298.689 149.12 296.129 149.12C293.629 149.12 291.649 150.94 291.649 155.9C291.649 161 293.629 162.68 296.129 162.68ZM315.467 159.32L313.167 159.32L313.167 164L311.527 164L311.527 159.32L303.687 159.32L303.687 157.36L310.907 147.82L313.167 147.82L313.167 157.68L315.467 157.68L315.467 159.32ZM311.527 157.68L311.527 149.1L305.007 157.68L311.527 157.68Z" fill="white"/>
<path d="M296.312 195.48C300.312 195.48 302.432 198.64 302.432 203.9C302.432 209.26 300.312 212.32 296.312 212.32C292.352 212.32 290.192 209.26 290.192 203.9C290.192 198.72 292.332 195.48 296.312 195.48ZM296.312 210.68C298.872 210.68 300.792 208.98 300.792 203.9C300.792 198.9 298.872 197.12 296.312 197.12C293.812 197.12 291.832 198.94 291.832 203.9C291.832 209 293.812 210.68 296.312 210.68ZM308.986 212.32C306.486 212.5 303.826 210.94 303.826 208.38L305.546 208.38C305.546 209.26 306.486 210.74 308.786 210.66C311.086 210.6 312.246 209.02 312.246 206.56C312.246 204.58 311.066 203.2 308.906 203.18C306.766 203.16 306.006 204.06 305.826 204.94L304.266 204.94L304.266 195.8L313.246 195.8L313.246 197.44L305.806 197.44L305.806 202.88C305.806 202.88 306.486 201.66 309.066 201.66C311.966 201.66 313.786 203.76 313.786 206.56C313.786 210.8 311.366 212.14 308.986 212.32Z" fill="white"/>
<rect x="238" width="35" height="35" rx="0.875" fill="white"/>
<rect x="239.75" y="1.75" width="31.5" height="31.5" rx="0.875" fill="white"/>
<rect x="238" y="47" width="35" height="35" rx="0.875" fill="white"/>
<rect x="239.75" y="48.75" width="31.5" height="31.5" rx="0.875" fill="black"/>
<rect x="238" y="94" width="35" height="35" rx="0.875" fill="white"/>
<rect x="239.75" y="95.75" width="31.5" height="31.5" rx="0.875" fill="black"/>
<rect x="238" y="141" width="35" height="35" rx="0.875" fill="white"/>
<rect x="239.75" y="142.75" width="31.5" height="31.5" rx="0.875" fill="black"/>
<rect x="238" y="188" width="35" height="35" rx="0.875" fill="white"/>
<rect x="239.75" y="189.75" width="31.5" height="31.5" rx="0.875" fill="black"/>
<rect x="0.5" y="0.5" width="97" height="224" stroke="white"/>
<rect x="122.5" y="0.5" width="97" height="224" stroke="white"/>
<rect x="4" y="19" width="43" height="8" fill="#48E2DC"/>
<rect x="126" y="19" width="43" height="8" fill="white"/>
<rect x="4" y="67" width="43" height="8" fill="white"/>
<rect x="126" y="67" width="43" height="8" fill="#48E2DC"/>
<rect x="4" y="115" width="43" height="8" fill="#FD4B28"/>
<rect x="126.5" y="115.5" width="42" height="7" stroke="white"/>
<rect x="4.5" y="163.5" width="42" height="7" stroke="white"/>
<rect x="126" y="163" width="43" height="8" fill="#FD4B28"/>
<rect x="4" y="43" width="43" height="8" fill="#48E2DC"/>
<rect x="126" y="43" width="43" height="8" fill="white"/>
<rect x="4" y="91" width="43" height="8" fill="white"/>
<rect x="126" y="91" width="43" height="8" fill="#48E2DC"/>
<rect x="4" y="139" width="43" height="8" fill="#FD4B28"/>
<rect x="126.5" y="139.5" width="42" height="7" stroke="white"/>
<rect x="4.5" y="187.5" width="42" height="7" stroke="white"/>
<rect x="126" y="187" width="43" height="8" fill="#FD4B28"/>
<rect x="4" y="31" width="43" height="8" fill="#48E2DC"/>
<rect x="126" y="31" width="43" height="8" fill="white"/>
<rect x="4" y="79" width="43" height="8" fill="white"/>
<rect x="126" y="79" width="43" height="8" fill="#48E2DC"/>
<rect x="4" y="127" width="43" height="8" fill="#FD4B28"/>
<rect x="126.5" y="127.5" width="42" height="7" stroke="white"/>
<rect x="4.5" y="175.5" width="42" height="7" stroke="white"/>
<rect x="126" y="175" width="43" height="8" fill="#FD4B28"/>
<rect x="4" y="55" width="43" height="8" fill="#48E2DC"/>
<rect x="126" y="55" width="43" height="8" fill="white"/>
<rect x="4" y="103" width="43" height="8" fill="white"/>
<rect x="126" y="103" width="43" height="8" fill="#48E2DC"/>
<rect x="4" y="151" width="43" height="8" fill="#FD4B28"/>
<rect x="126.5" y="151.5" width="42" height="7" stroke="white"/>
<rect x="4.5" y="199.5" width="42" height="7" stroke="white"/>
<rect x="126" y="199" width="43" height="8" fill="#FD4B28"/>
<rect x="51.5" y="19.5" width="42" height="7" stroke="white"/>
<rect x="173" y="19" width="43" height="8" fill="#FD4B28"/>
<rect x="51" y="67" width="43" height="8" fill="#FD4B28"/>
<rect x="173.5" y="67.5" width="42" height="7" stroke="white"/>
<rect x="51" y="115" width="43" height="8" fill="white"/>
<rect x="173" y="115" width="43" height="8" fill="#48E2DC"/>
<rect x="51" y="163" width="43" height="8" fill="#48E2DC"/>
<rect x="173" y="163" width="43" height="8" fill="white"/>
<rect x="51.5" y="43.5" width="42" height="7" stroke="white"/>
<rect x="173" y="43" width="43" height="8" fill="#FD4B28"/>
<rect x="51" y="91" width="43" height="8" fill="#FD4B28"/>
<rect x="173.5" y="91.5" width="42" height="7" stroke="white"/>
<rect x="51" y="139" width="43" height="8" fill="white"/>
<rect x="173" y="139" width="43" height="8" fill="#48E2DC"/>
<rect x="51" y="187" width="43" height="8" fill="#48E2DC"/>
<rect x="173" y="187" width="43" height="8" fill="white"/>
<rect x="51.5" y="31.5" width="42" height="7" stroke="white"/>
<rect x="173" y="31" width="43" height="8" fill="#FD4B28"/>
<rect x="51" y="79" width="43" height="8" fill="#FD4B28"/>
<rect x="173.5" y="79.5" width="42" height="7" stroke="white"/>
<rect x="51" y="127" width="43" height="8" fill="white"/>
<rect x="173" y="127" width="43" height="8" fill="#48E2DC"/>
<rect x="51" y="175" width="43" height="8" fill="#48E2DC"/>
<rect x="173" y="175" width="43" height="8" fill="white"/>
<rect x="51.5" y="55.5" width="42" height="7" stroke="white"/>
<rect x="173" y="55" width="43" height="8" fill="#FD4B28"/>
<rect x="51" y="103" width="43" height="8" fill="#FD4B28"/>
<rect x="173.5" y="103.5" width="42" height="7" stroke="white"/>
<rect x="51" y="151" width="43" height="8" fill="white"/>
<rect x="173" y="151" width="43" height="8" fill="#48E2DC"/>
<rect x="51" y="199" width="43" height="8" fill="#48E2DC"/>
<rect x="173" y="199" width="43" height="8" fill="white"/>
</g>
<defs>
<clipPath id="clip0_780_17295">
<rect width="316" height="225" fill="white"/>
</clipPath>
</defs>
</svg>
