<svg width="582" height="583" viewBox="0 0 582 583" fill="none" xmlns="http://www.w3.org/2000/svg">
<g clip-path="url(#clip0_803_20256)">
<mask id="path-1-inside-1_803_20256" fill="white">
<path d="M100.8 69.1058C222.192 -34.7224 405.783 -19.2983 510.863 103.557C615.942 226.411 602.717 410.174 481.325 514.002C359.933 617.831 176.341 602.407 71.2623 479.552C-33.8168 356.697 -20.5925 172.934 100.8 69.1058ZM443.288 469.531C540.412 386.46 550.993 239.434 466.921 141.141C382.849 42.8465 235.96 30.5059 138.837 113.577C41.7128 196.648 31.1322 343.674 115.204 441.968C199.276 540.262 346.164 552.602 443.288 469.531Z"/>
</mask>
<path d="M100.8 69.1058C222.192 -34.7224 405.783 -19.2983 510.863 103.557C615.942 226.411 602.717 410.174 481.325 514.002C359.933 617.831 176.341 602.407 71.2623 479.552C-33.8168 356.697 -20.5925 172.934 100.8 69.1058ZM443.288 469.531C540.412 386.46 550.993 239.434 466.921 141.141C382.849 42.8465 235.96 30.5059 138.837 113.577C41.7128 196.648 31.1322 343.674 115.204 441.968C199.276 540.262 346.164 552.602 443.288 469.531Z" fill="white" stroke="black" stroke-width="2" mask="url(#path-1-inside-1_803_20256)"/>
<mask id="mask0_803_20256" style="mask-type:alpha" maskUnits="userSpaceOnUse" x="1" y="0" width="583" height="583">
<path d="M85.0427 84.518C197.995 -28.4341 382.23 -27.3309 496.543 86.9821C610.856 201.295 611.959 385.53 499.007 498.482C386.055 611.434 201.82 610.331 87.5068 496.018C-26.8062 381.705 -27.9094 197.47 85.0427 84.518ZM457.719 457.194C548.139 366.773 547.256 219.289 455.746 127.779C364.236 36.2686 216.752 35.3855 126.331 125.806C35.9101 216.227 36.7932 363.711 128.303 455.221C219.814 546.732 367.298 547.615 457.719 457.194Z" fill="white"/>
</mask>
<g mask="url(#mask0_803_20256)">
<path d="M-422.864 316.908H-403.124V401.853H-420.974V353.238L-439.979 401.853H-454.049L-473.054 353.133V401.853H-490.904V316.908H-471.269L-447.014 383.793L-422.864 316.908ZM-355.904 315.123C-332.699 315.123 -315.374 331.503 -315.374 359.328C-315.374 388.413 -333.749 403.428 -355.904 403.428C-378.059 403.428 -396.329 388.308 -396.329 359.328C-396.329 330.978 -378.059 315.123 -355.904 315.123ZM-355.904 385.893C-343.199 385.893 -333.749 377.598 -333.749 359.328C-333.749 341.163 -343.304 332.763 -355.904 332.763C-368.399 332.763 -378.059 341.163 -378.059 359.328C-378.059 377.598 -368.504 385.893 -355.904 385.893ZM-240.549 316.908H-220.809V401.853H-238.659V353.238L-257.664 401.853H-271.734L-290.739 353.133V401.853H-308.589V316.908H-288.954L-264.699 383.793L-240.549 316.908ZM-211.075 316.908H-150.385V333.918H-192.7V349.038L-157.42 349.248V366.153L-192.7 366.048V384.948H-150.385V401.853H-211.075V316.908ZM-125.117 316.908V349.038H-89.3117V316.908H-70.4117V401.853H-89.3117V366.048H-125.117V401.853H-143.912V316.908H-125.117ZM-62.6745 316.908H15.3405V333.918H-14.2695V401.853H-33.0645V333.918H-62.6745V316.908Z" fill="black"/>
<path d="M-689.958 167.307H-618.243V252.252H-637.143V184.317H-671.163V252.252H-689.958V167.307ZM-608.44 167.307H-547.75V184.317H-590.065V199.437L-554.785 199.647V216.552L-590.065 216.447V235.347H-547.75V252.252H-608.44V167.307ZM-502.006 167.307C-483.631 167.307 -474.076 181.377 -474.076 194.712C-474.076 212.247 -487.306 221.802 -501.271 221.802H-522.481V252.252H-541.276V167.307H-528.781H-502.006ZM-502.426 205.317C-495.601 205.317 -490.561 201.222 -490.561 194.712C-490.561 188.202 -495.916 183.792 -502.426 183.792H-522.481V205.317H-502.426ZM-468.371 167.307H-407.681V184.317H-449.996V199.437L-414.716 199.647V216.552L-449.996 216.447V235.347H-407.681V252.252H-468.371V167.307ZM-347.448 207.732C-340.098 212.247 -336.003 218.862 -336.003 226.422C-336.003 243.117 -349.128 253.827 -369.498 253.827C-388.293 253.827 -404.883 242.592 -404.883 226.422V224.742H-387.138V226.422C-387.243 233.982 -377.583 237.132 -370.338 237.027C-362.673 237.027 -354.588 232.407 -354.798 226.527C-355.113 219.387 -358.788 215.397 -374.328 215.397V201.222C-361.518 200.802 -356.583 196.497 -356.583 191.457C-356.583 185.997 -364.353 182.637 -369.498 182.637C-377.268 182.637 -383.568 186.522 -383.568 192.927V194.607H-401.313V192.927C-401.313 176.757 -390.078 165.522 -371.283 165.522C-350.913 165.522 -337.788 176.337 -337.788 192.927C-337.788 198.912 -341.463 203.952 -347.448 207.732ZM-273.241 252.252L-279.856 234.717H-311.146L-317.761 252.252H-335.611L-304.426 167.307H-284.686L-255.391 252.252H-273.241ZM-305.266 219.072H-285.736L-295.501 193.242L-305.266 219.072ZM-251.193 167.307H-179.478V252.252H-198.378V184.317H-232.398V252.252H-251.193V167.307ZM-169.675 167.307H-151.825V222.852L-110.665 167.307H-92.8149V252.252H-110.665V196.287L-151.825 252.252H-169.675V167.307ZM-24.7544 218.022H-5.53937C-8.79437 241.752 -25.5944 253.827 -45.5444 253.827C-67.6994 253.827 -85.9694 238.707 -85.9694 209.727C-85.9694 181.377 -67.6994 165.522 -45.5444 165.522C-25.4894 165.522 -9.94937 177.807 -5.95937 198.912H-25.5944C-27.7994 188.307 -35.7794 183.162 -45.5444 183.162C-58.0394 183.162 -67.6994 191.562 -67.6994 209.727C-67.6994 227.997 -58.1444 236.292 -45.5444 236.292C-34.9394 236.292 -26.1194 230.412 -24.7544 218.022ZM54.7815 252.252L48.1665 234.717H16.8765L10.2615 252.252H-7.58852L23.5965 167.307H43.3365L72.6315 252.252H54.7815ZM22.7565 219.072H42.2865L32.5215 193.242L22.7565 219.072ZM64.1404 167.307H142.155V184.317H112.545V252.252H93.7504V184.317H64.1404V167.307ZM184.089 201.537C209.499 201.537 217.899 213.087 217.899 227.367C217.899 249.417 197.739 252.252 179.889 252.252H148.914V167.307H167.709V201.537H184.089ZM200.154 227.052V224.742C200.154 219.177 194.694 214.662 186.294 214.662H168.024V237.132H186.294C194.694 237.132 200.154 232.617 200.154 227.052Z" fill="black"/>
</g>
</g>
<defs>
<clipPath id="clip0_803_20256">
<rect width="582" height="583" fill="white"/>
</clipPath>
</defs>
</svg>
