<svg width="350" height="350" viewBox="0 0 350 350" fill="none" xmlns="http://www.w3.org/2000/svg">
<g clip-path="url(#clip0_803_20259)">
<mask id="path-1-inside-1_803_20259" fill="white">
<path d="M251.49 18.3412C337.956 60.5711 373.817 164.9 331.587 251.367C289.357 337.833 185.028 373.694 98.5614 331.464C12.0949 289.234 -23.7659 184.905 18.4641 98.4386C60.694 11.972 165.023 -23.8888 251.49 18.3412ZM123.839 279.709C181.721 307.979 251.562 283.973 279.832 226.09C308.102 168.207 284.095 98.3662 226.213 70.0964C168.33 41.8266 98.4891 65.8327 70.2193 123.716C41.9494 181.599 65.9556 251.439 123.839 279.709Z"/>
</mask>
<path d="M251.49 18.3412C337.956 60.5711 373.817 164.9 331.587 251.367C289.357 337.833 185.028 373.694 98.5614 331.464C12.0949 289.234 -23.7659 184.905 18.4641 98.4386C60.694 11.972 165.023 -23.8888 251.49 18.3412ZM123.839 279.709C181.721 307.979 251.562 283.973 279.832 226.09C308.102 168.207 284.095 98.3662 226.213 70.0964C168.33 41.8266 98.4891 65.8327 70.2193 123.716C41.9494 181.599 65.9556 251.439 123.839 279.709Z" fill="white" stroke="black" stroke-width="2" mask="url(#path-1-inside-1_803_20259)"/>
<mask id="mask0_803_20259" style="mask-type:alpha" maskUnits="userSpaceOnUse" x="1" y="1" width="349" height="349">
<path d="M220.491 7.09584C313.44 32.0015 368.6 127.542 343.694 220.491C318.788 313.44 223.248 368.6 130.299 343.694C37.3501 318.789 -17.81 223.249 7.09565 130.299C32.0013 37.3503 127.541 -17.8098 220.491 7.09584ZM144.926 289.106C207.727 305.933 272.278 268.664 289.106 205.864C305.933 143.063 268.664 78.5117 205.864 61.6844C143.063 44.857 78.5116 82.1257 61.6842 144.926C44.8568 207.727 82.1255 272.278 144.926 289.106Z" fill="white"/>
</mask>
<g mask="url(#mask0_803_20259)">
<path d="M-807.291 51.2025H-735.576V136.147H-754.476V68.2125H-788.496V136.147H-807.291V51.2025ZM-725.773 51.2025L-665.083 51.2025V68.2125H-707.398V83.3325L-672.118 83.5425V100.447L-707.398 100.342V119.242H-665.083V136.147H-725.773V51.2025ZM-619.339 51.2025C-600.964 51.2025 -591.409 65.2725 -591.409 78.6075C-591.409 96.1425 -604.639 105.697 -618.604 105.697H-639.814V136.147H-658.609V51.2025H-646.114H-619.339ZM-619.759 89.2125C-612.934 89.2125 -607.894 85.1175 -607.894 78.6075C-607.894 72.0975 -613.249 67.6875 -619.759 67.6875H-639.814V89.2125H-619.759ZM-585.704 51.2025H-525.014V68.2125H-567.329V83.3325L-532.049 83.5425V100.447L-567.329 100.342V119.242L-525.014 119.242V136.147H-585.704V51.2025ZM-464.781 91.6275C-457.431 96.1425 -453.336 102.757 -453.336 110.317C-453.336 127.012 -466.461 137.722 -486.831 137.722C-505.626 137.722 -522.216 126.487 -522.216 110.317V108.637H-504.471V110.317C-504.576 117.877 -494.916 121.027 -487.671 120.922C-480.006 120.922 -471.921 116.302 -472.131 110.422C-472.446 103.282 -476.121 99.2925 -491.661 99.2925V85.1175C-478.851 84.6975 -473.916 80.3925 -473.916 75.3525C-473.916 69.8925 -481.686 66.5325 -486.831 66.5325C-494.601 66.5325 -500.901 70.4175 -500.901 76.8225V78.5025H-518.646V76.8225C-518.646 60.6525 -507.411 49.4175 -488.616 49.4175C-468.246 49.4175 -455.121 60.2325 -455.121 76.8225C-455.121 82.8075 -458.796 87.8475 -464.781 91.6275ZM-390.574 136.147L-397.189 118.612H-428.479L-435.094 136.147H-452.944L-421.759 51.2025H-402.019L-372.724 136.147H-390.574ZM-422.599 102.967H-403.069L-412.834 77.1375L-422.599 102.967ZM-368.526 51.2025H-296.811V136.147H-315.711V68.2125H-349.731V136.147H-368.526V51.2025ZM-287.008 51.2025H-269.158V106.747L-227.998 51.2025H-210.148V136.147H-227.998V80.1825L-269.158 136.147H-287.008V51.2025ZM-142.087 101.917H-122.872C-126.127 125.647 -142.927 137.722 -162.877 137.722C-185.032 137.722 -203.302 122.602 -203.302 93.6225C-203.302 65.2725 -185.032 49.4175 -162.877 49.4175C-142.822 49.4175 -127.282 61.7025 -123.292 82.8075H-142.927C-145.132 72.2025 -153.112 67.0575 -162.877 67.0575C-175.372 67.0575 -185.032 75.4575 -185.032 93.6225C-185.032 111.892 -175.477 120.187 -162.877 120.187C-152.272 120.187 -143.452 114.307 -142.087 101.917ZM-62.5515 136.147L-69.1665 118.612H-100.457L-107.072 136.147H-124.922L-93.7365 51.2025H-73.9965L-44.7015 136.147H-62.5515ZM-94.5765 102.967H-75.0465L-84.8115 77.1375L-94.5765 102.967ZM-53.1926 51.2025H24.8224V68.2125H-4.78758V136.147H-23.5826V68.2125H-53.1926V51.2025ZM66.756 85.4325C92.166 85.4325 100.566 96.9825 100.566 111.262C100.566 133.312 80.406 136.147 62.556 136.147H31.581V51.2025H50.376V85.4325H66.756ZM82.821 110.947V108.637C82.821 103.072 77.361 98.5575 68.961 98.5575H50.691V121.027H68.961C77.361 121.027 82.821 116.512 82.821 110.947Z" fill="black"/>
</g>
</g>
<defs>
<clipPath id="clip0_803_20259">
<rect width="350" height="350" fill="white"/>
</clipPath>
</defs>
</svg>
